M48
; DRILL file {KiCad 8.0.9-8.0.9-0~ubuntu24.04.1} date 2025-08-15T15:16:13-0700
; FORMAT={-:-/ absolute / inch / decimal}
; #@! TF.CreationDate,2025-08-15T15:16:13-07:00
; #@! TF.GenerationSoftware,Kicad,Pcbnew,8.0.9-8.0.9-0~ubuntu24.04.1
; #@! TF.FileFunction,Plated,1,4,PTH
FMAT,2
INCH
; #@! TA.AperFunction,Plated,PTH,ComponentDrill
T1C0.0079
; #@! TA.AperFunction,Plated,PTH,ViaDrill
T2C0.0118
; #@! TA.AperFunction,Plated,PTH,ComponentDrill
T3C0.0394
%
G90
G05
T1
X5.6713Y-4.1634
X5.6713Y-4.2461
X5.6781Y-3.6909
X5.6781Y-3.7736
X5.7539Y-4.1634
X5.7539Y-4.2461
X5.7608Y-3.6909
X5.7608Y-3.7736
T2
X4.0945Y-3.5433
X4.0945Y-4.4488
X4.2913Y-3.5433
X4.2913Y-4.4488
X4.4291Y-3.9331
X4.4331Y-4.0079
X4.4331Y-4.0433
X4.4488Y-4.0787
X4.4606Y-4.0236
X4.4646Y-3.9803
X4.4882Y-3.5433
X4.4882Y-3.874
X4.4882Y-4.4488
X4.5236Y-3.937
X4.5512Y-4.0
X4.5748Y-4.0315
X4.5748Y-4.0669
X4.591Y-3.9517
X4.6063Y-3.874
X4.6063Y-4.252
X4.626Y-4.0
X4.6378Y-3.7795
X4.6535Y-4.0315
X4.685Y-4.4488
X4.7126Y-3.8898
X4.7244Y-3.5827
X4.7835Y-3.7953
X4.811Y-3.5472
X4.815Y-4.2283
X4.8228Y-4.2953
X4.8228Y-3.9764
X4.8307Y-4.1142
X4.8504Y-4.3386
X4.8543Y-3.5945
X4.8543Y-3.6339
X4.8543Y-3.685
X4.8543Y-3.8543
X4.8543Y-4.0394
X4.8551Y-4.252
X4.8622Y-3.9961
X4.874Y-3.9173
X4.874Y-4.1181
X4.8858Y-4.0236
X4.8898Y-3.7874
X4.9055Y-4.3425
X4.9213Y-3.685
X4.9213Y-3.7638
X4.9213Y-3.8386
X4.9252Y-3.9173
X4.9291Y-3.9921
X4.9724Y-3.8878
X5.0Y-4.1496
X5.0039Y-3.9961
X5.0236Y-3.7874
X5.0354Y-4.0906
X5.0354Y-4.1417
X5.0433Y-3.9843
X5.0472Y-4.3307
X5.0647Y-3.81
X5.0659Y-3.688
X5.0827Y-3.7244
X5.0866Y-3.9567
X5.096Y-4.0103
X5.1173Y-4.0925
X5.1299Y-4.1535
X5.1397Y-3.6671
X5.1457Y-3.5389
X5.1693Y-3.8268
X5.189Y-3.8819
X5.1969Y-4.0197
X5.2047Y-3.9055
X5.2047Y-3.9882
X5.2051Y-4.0473
X5.2167Y-3.8405
X5.2244Y-4.2598
X5.2441Y-3.7953
X5.2458Y-3.7129
X5.248Y-4.1191
X5.2553Y-3.847
X5.2775Y-3.7913
X5.2795Y-3.9488
X5.311Y-3.9173
X5.311Y-3.9843
X5.315Y-3.7835
X5.3425Y-3.7008
X5.3465Y-3.8819
X5.3465Y-3.9528
X5.3465Y-4.0157
X5.3819Y-3.9213
X5.3819Y-3.9843
X5.3858Y-4.2402
X5.3871Y-4.1464
X5.3937Y-3.5827
X5.3976Y-4.2884
X5.4134Y-3.9528
X5.4134Y-4.4094
X5.4144Y-4.1181
X5.4412Y-4.2243
X5.4646Y-4.2464
X5.4656Y-4.0739
X5.4803Y-3.7638
X5.4918Y-3.9567
X5.4918Y-4.0394
X5.5039Y-4.3228
X5.5079Y-3.7165
X5.5118Y-4.4488
X5.5184Y-3.8333
X5.5197Y-3.626
X5.5197Y-4.1969
X5.5197Y-4.2362
X5.5276Y-4.1496
X5.5394Y-3.9961
X5.543Y-4.0605
X5.5458Y-3.7786
X5.5551Y-3.7254
X5.563Y-4.1969
X5.5748Y-3.626
X5.5817Y-3.7625
X5.6053Y-3.8189
X5.6142Y-4.0394
X5.6299Y-4.0827
X5.6299Y-4.374
X5.6339Y-3.9016
X5.6772Y-4.2047
X5.685Y-3.7323
X5.7126Y-4.1693
X5.7126Y-4.2047
X5.7126Y-4.2402
X5.7165Y-4.4331
X5.7205Y-3.6969
X5.7205Y-3.7323
X5.7205Y-3.7677
X5.7205Y-3.9724
X5.748Y-4.2047
X5.7559Y-3.7323
X5.7756Y-4.3307
X5.7835Y-4.0748
X5.7953Y-4.0
X5.8031Y-3.5906
X5.8071Y-3.9724
X5.815Y-4.4213
X5.8193Y-4.2708
X5.8258Y-3.7835
X5.8346Y-3.689
X5.8386Y-4.1024
X5.8425Y-3.8268
X5.8465Y-4.1732
X5.8543Y-4.2874
X5.8622Y-3.6575
X5.8819Y-3.9055
X5.8937Y-3.8268
X5.9016Y-4.3228
X5.9094Y-4.1732
X5.9114Y-3.8725
X5.9134Y-4.2795
X5.9488Y-3.8268
X5.9724Y-4.1969
X5.9764Y-3.6457
X5.9843Y-3.7402
X5.9843Y-3.7874
X5.9843Y-4.2677
X6.0039Y-4.1614
X6.0079Y-3.8819
X6.0079Y-3.937
X6.0079Y-4.0079
X6.0079Y-4.0709
X6.0079Y-4.1181
X6.0197Y-4.2283
X6.0276Y-3.5551
X6.0276Y-3.6063
X6.0354Y-3.8307
X6.0394Y-3.6457
X6.0591Y-4.189
X6.063Y-3.8819
X6.063Y-3.937
X6.0669Y-4.0236
X6.0669Y-4.0709
X6.0669Y-4.1299
X6.0866Y-3.7402
X6.0866Y-3.7953
X6.1024Y-3.6457
X6.1024Y-4.0472
X6.1339Y-4.0
X6.1496Y-3.9252
X6.1535Y-3.5472
X6.1575Y-3.5866
X6.1614Y-3.6457
X6.1732Y-3.7402
X6.1772Y-3.5669
X6.1791Y-3.9252
X6.1811Y-4.4488
X6.2047Y-4.0
X6.2087Y-3.9252
X6.2283Y-3.7795
X6.2362Y-3.9646
X6.2362Y-4.0
X6.2441Y-3.7402
X6.2441Y-3.9331
X6.248Y-3.8465
X6.2598Y-4.0394
X6.2638Y-3.622
X6.2913Y-4.126
X6.2992Y-3.6457
X6.2992Y-3.7402
X6.2992Y-3.8465
X6.2992Y-3.9331
X6.3386Y-4.4488
X6.3465Y-4.2087
X6.3504Y-4.2913
X6.3583Y-3.6457
X6.3583Y-3.7402
X6.3583Y-4.0394
X6.3622Y-3.8465
X6.3622Y-3.9331
X6.374Y-4.122
X6.4173Y-3.6457
X6.4173Y-3.7402
X6.4213Y-4.0394
X6.4331Y-3.8465
X6.4567Y-3.6053
X6.4724Y-3.8701
X6.4764Y-3.6457
X6.4764Y-4.0394
X6.4803Y-3.7402
X6.4961Y-4.2913
X6.5197Y-3.9252
X6.5236Y-3.8386
X6.5394Y-3.6457
X6.5984Y-3.6457
X6.5984Y-3.7441
X6.6142Y-3.9685
X6.6181Y-3.8622
X6.6693Y-3.8622
X6.6693Y-3.9685
X6.6969Y-3.6457
X6.748Y-3.6457
X6.748Y-4.3583
X6.748Y-4.3937
X6.7598Y-3.8268
X6.7598Y-3.9094
X6.7756Y-4.3346
X6.7756Y-4.4213
X6.7795Y-3.7323
X6.7835Y-3.5472
X6.7874Y-3.5827
X6.7874Y-3.622
X6.7913Y-3.9449
X6.8071Y-3.563
X6.8071Y-3.6024
X6.8071Y-3.6417
X6.8071Y-3.7323
X6.811Y-4.0197
X6.8228Y-4.4213
X6.8268Y-3.5472
X6.8268Y-3.5827
X6.8268Y-3.622
X6.8268Y-3.8307
X6.8268Y-4.3346
X6.8346Y-3.7323
X6.8386Y-4.0394
X6.8701Y-4.4213
X6.874Y-4.3346
X6.8819Y-3.9016
X6.8898Y-3.6299
X6.8898Y-3.9567
X6.8937Y-4.0984
X6.9016Y-3.7717
X6.9213Y-4.3346
X6.9213Y-4.4213
X6.9252Y-3.9961
X6.9409Y-4.1299
X6.9567Y-3.6299
X6.9567Y-4.0276
X6.9606Y-3.9685
X6.9685Y-3.5433
X6.9685Y-4.3346
X6.9685Y-4.4213
X6.9803Y-3.7323
X6.9843Y-4.1299
X6.9921Y-4.0
X7.0118Y-4.0472
X7.0118Y-4.3346
X7.0118Y-4.4213
X7.0197Y-3.6299
X7.0197Y-3.9606
X7.0236Y-3.7323
X7.0394Y-3.8701
X7.0491Y-4.0182
X7.0591Y-4.1299
X7.0591Y-4.3346
X7.0591Y-4.4213
X7.0669Y-3.7323
X7.0709Y-4.0512
X7.0748Y-3.8661
X7.0748Y-3.8976
X7.0748Y-3.9331
X7.0787Y-3.6299
X7.0866Y-3.8031
X7.1102Y-3.7323
X7.122Y-4.1417
X7.122Y-4.4213
X7.122Y-4.4646
X7.126Y-3.9843
X7.126Y-4.1929
X7.126Y-4.2362
X7.126Y-4.2795
X7.126Y-4.3228
X7.1535Y-4.122
X7.1614Y-4.0748
X7.1693Y-3.9331
X7.1693Y-4.0315
X7.1732Y-3.815
X7.1732Y-3.8543
X7.1732Y-3.8976
X7.1969Y-3.626
X7.1969Y-3.6575
X7.2008Y-4.0276
X7.2047Y-3.937
X7.2047Y-4.122
X7.2323Y-3.815
X7.252Y-3.6614
X7.252Y-4.0276
X7.252Y-4.122
X7.2559Y-3.937
X7.2874Y-3.815
X7.2992Y-3.7126
X7.2992Y-3.7638
X7.2992Y-4.122
X7.3071Y-3.937
X7.3071Y-4.0276
X7.3425Y-3.815
X7.3425Y-4.122
X7.3583Y-3.7126
X7.3858Y-4.122
X7.4016Y-3.815
X7.4291Y-4.122
X7.4685Y-3.815
X7.4724Y-4.122
X7.5118Y-4.122
X7.5197Y-3.5433
X7.5197Y-3.6614
X7.5197Y-3.7795
T3
X4.0984Y-3.6496
X4.0984Y-4.3268
M30
