%TF.GenerationSoftware,KiCad,Pcbnew,8.0.9-8.0.9-0~ubuntu24.04.1*%
%TF.CreationDate,2025-08-15T15:16:14-07:00*%
%TF.ProjectId,transponder-12.0.1,7472616e-7370-46f6-9e64-65722d31322e,rev?*%
%TF.SameCoordinates,Original*%
%TF.FileFunction,Drillmap*%
%TF.FilePolarity,Positive*%
%FSLAX45Y45*%
G04 Gerber Fmt 4.5, Leading zero omitted, Abs format (unit mm)*
G04 Created by KiCad (PCBNEW 8.0.9-8.0.9-0~ubuntu24.04.1) date 2025-08-15 15:16:14*
%MOMM*%
%LPD*%
G01*
G04 APERTURE LIST*
%ADD10C,0.010000*%
%ADD11C,0.100000*%
%ADD12C,0.200000*%
G04 APERTURE END LIST*
D10*
X19150000Y-11390000D02*
X10110000Y-11390000D01*
D11*
X11251245Y-9170000D02*
G75*
G02*
X10928755Y-9170000I-161245J0D01*
G01*
X10928755Y-9170000D02*
G75*
G02*
X11251245Y-9170000I161245J0D01*
G01*
D10*
X10110000Y-10810000D02*
X10110000Y-11390000D01*
X10110000Y-8890000D02*
X10110000Y-9450000D01*
X19150000Y-8890000D02*
X19150000Y-11390000D01*
D11*
X19010312Y-9120000D02*
G75*
G02*
X18689688Y-9120000I-160312J0D01*
G01*
X18689688Y-9120000D02*
G75*
G02*
X19010312Y-9120000I160312J0D01*
G01*
X11251245Y-11100000D02*
G75*
G02*
X10928755Y-11100000I-161245J0D01*
G01*
X10928755Y-11100000D02*
G75*
G02*
X11251245Y-11100000I161245J0D01*
G01*
D10*
X10110000Y-8890000D02*
X19150000Y-8890000D01*
D11*
X15880312Y-10650000D02*
G75*
G02*
X15559688Y-10650000I-160312J0D01*
G01*
X15559688Y-10650000D02*
G75*
G02*
X15880312Y-10650000I160312J0D01*
G01*
D10*
X10110000Y-9450000D02*
X10900000Y-9450000D01*
X10900000Y-9450000D02*
X10900000Y-10810000D01*
X10900000Y-10810000D02*
X10110000Y-10810000D01*
D12*
D11*
X14395000Y-10565000D02*
X14415000Y-10585000D01*
X14415000Y-10565000D02*
X14395000Y-10585000D01*
X14395000Y-10775000D02*
X14415000Y-10795000D01*
X14415000Y-10775000D02*
X14395000Y-10795000D01*
X14412500Y-9365000D02*
X14432500Y-9385000D01*
X14432500Y-9365000D02*
X14412500Y-9385000D01*
X14412500Y-9575000D02*
X14432500Y-9595000D01*
X14432500Y-9575000D02*
X14412500Y-9595000D01*
X14605000Y-10565000D02*
X14625000Y-10585000D01*
X14625000Y-10565000D02*
X14605000Y-10585000D01*
X14605000Y-10775000D02*
X14625000Y-10795000D01*
X14625000Y-10775000D02*
X14605000Y-10795000D01*
X14622500Y-9365000D02*
X14642500Y-9385000D01*
X14642500Y-9365000D02*
X14622500Y-9385000D01*
X14622500Y-9575000D02*
X14642500Y-9595000D01*
X14642500Y-9575000D02*
X14622500Y-9595000D01*
X10415000Y-9000000D02*
G75*
G02*
X10385000Y-9000000I-15000J0D01*
G01*
X10385000Y-9000000D02*
G75*
G02*
X10415000Y-9000000I15000J0D01*
G01*
X10415000Y-11300000D02*
G75*
G02*
X10385000Y-11300000I-15000J0D01*
G01*
X10385000Y-11300000D02*
G75*
G02*
X10415000Y-11300000I15000J0D01*
G01*
X10915000Y-9000000D02*
G75*
G02*
X10885000Y-9000000I-15000J0D01*
G01*
X10885000Y-9000000D02*
G75*
G02*
X10915000Y-9000000I15000J0D01*
G01*
X10915000Y-11300000D02*
G75*
G02*
X10885000Y-11300000I-15000J0D01*
G01*
X10885000Y-11300000D02*
G75*
G02*
X10915000Y-11300000I15000J0D01*
G01*
X11265000Y-9990000D02*
G75*
G02*
X11235000Y-9990000I-15000J0D01*
G01*
X11235000Y-9990000D02*
G75*
G02*
X11265000Y-9990000I15000J0D01*
G01*
X11275000Y-10180000D02*
G75*
G02*
X11245000Y-10180000I-15000J0D01*
G01*
X11245000Y-10180000D02*
G75*
G02*
X11275000Y-10180000I15000J0D01*
G01*
X11275000Y-10270000D02*
G75*
G02*
X11245000Y-10270000I-15000J0D01*
G01*
X11245000Y-10270000D02*
G75*
G02*
X11275000Y-10270000I15000J0D01*
G01*
X11315000Y-10360000D02*
G75*
G02*
X11285000Y-10360000I-15000J0D01*
G01*
X11285000Y-10360000D02*
G75*
G02*
X11315000Y-10360000I15000J0D01*
G01*
X11345000Y-10220000D02*
G75*
G02*
X11315000Y-10220000I-15000J0D01*
G01*
X11315000Y-10220000D02*
G75*
G02*
X11345000Y-10220000I15000J0D01*
G01*
X11355000Y-10110000D02*
G75*
G02*
X11325000Y-10110000I-15000J0D01*
G01*
X11325000Y-10110000D02*
G75*
G02*
X11355000Y-10110000I15000J0D01*
G01*
X11415000Y-9000000D02*
G75*
G02*
X11385000Y-9000000I-15000J0D01*
G01*
X11385000Y-9000000D02*
G75*
G02*
X11415000Y-9000000I15000J0D01*
G01*
X11415000Y-9840000D02*
G75*
G02*
X11385000Y-9840000I-15000J0D01*
G01*
X11385000Y-9840000D02*
G75*
G02*
X11415000Y-9840000I15000J0D01*
G01*
X11415000Y-11300000D02*
G75*
G02*
X11385000Y-11300000I-15000J0D01*
G01*
X11385000Y-11300000D02*
G75*
G02*
X11415000Y-11300000I15000J0D01*
G01*
X11505000Y-10000000D02*
G75*
G02*
X11475000Y-10000000I-15000J0D01*
G01*
X11475000Y-10000000D02*
G75*
G02*
X11505000Y-10000000I15000J0D01*
G01*
X11575000Y-10160000D02*
G75*
G02*
X11545000Y-10160000I-15000J0D01*
G01*
X11545000Y-10160000D02*
G75*
G02*
X11575000Y-10160000I15000J0D01*
G01*
X11635000Y-10240000D02*
G75*
G02*
X11605000Y-10240000I-15000J0D01*
G01*
X11605000Y-10240000D02*
G75*
G02*
X11635000Y-10240000I15000J0D01*
G01*
X11635000Y-10330000D02*
G75*
G02*
X11605000Y-10330000I-15000J0D01*
G01*
X11605000Y-10330000D02*
G75*
G02*
X11635000Y-10330000I15000J0D01*
G01*
X11676030Y-10037243D02*
G75*
G02*
X11646030Y-10037243I-15000J0D01*
G01*
X11646030Y-10037243D02*
G75*
G02*
X11676030Y-10037243I15000J0D01*
G01*
X11715000Y-9840000D02*
G75*
G02*
X11685000Y-9840000I-15000J0D01*
G01*
X11685000Y-9840000D02*
G75*
G02*
X11715000Y-9840000I15000J0D01*
G01*
X11715000Y-10800000D02*
G75*
G02*
X11685000Y-10800000I-15000J0D01*
G01*
X11685000Y-10800000D02*
G75*
G02*
X11715000Y-10800000I15000J0D01*
G01*
X11765000Y-10160000D02*
G75*
G02*
X11735000Y-10160000I-15000J0D01*
G01*
X11735000Y-10160000D02*
G75*
G02*
X11765000Y-10160000I15000J0D01*
G01*
X11795000Y-9600000D02*
G75*
G02*
X11765000Y-9600000I-15000J0D01*
G01*
X11765000Y-9600000D02*
G75*
G02*
X11795000Y-9600000I15000J0D01*
G01*
X11835000Y-10240000D02*
G75*
G02*
X11805000Y-10240000I-15000J0D01*
G01*
X11805000Y-10240000D02*
G75*
G02*
X11835000Y-10240000I15000J0D01*
G01*
X11915000Y-11300000D02*
G75*
G02*
X11885000Y-11300000I-15000J0D01*
G01*
X11885000Y-11300000D02*
G75*
G02*
X11915000Y-11300000I15000J0D01*
G01*
X11985000Y-9880000D02*
G75*
G02*
X11955000Y-9880000I-15000J0D01*
G01*
X11955000Y-9880000D02*
G75*
G02*
X11985000Y-9880000I15000J0D01*
G01*
X12015000Y-9100000D02*
G75*
G02*
X11985000Y-9100000I-15000J0D01*
G01*
X11985000Y-9100000D02*
G75*
G02*
X12015000Y-9100000I15000J0D01*
G01*
X12165000Y-9640000D02*
G75*
G02*
X12135000Y-9640000I-15000J0D01*
G01*
X12135000Y-9640000D02*
G75*
G02*
X12165000Y-9640000I15000J0D01*
G01*
X12235000Y-9010000D02*
G75*
G02*
X12205000Y-9010000I-15000J0D01*
G01*
X12205000Y-9010000D02*
G75*
G02*
X12235000Y-9010000I15000J0D01*
G01*
X12245000Y-10740000D02*
G75*
G02*
X12215000Y-10740000I-15000J0D01*
G01*
X12215000Y-10740000D02*
G75*
G02*
X12245000Y-10740000I15000J0D01*
G01*
X12265000Y-10910000D02*
G75*
G02*
X12235000Y-10910000I-15000J0D01*
G01*
X12235000Y-10910000D02*
G75*
G02*
X12265000Y-10910000I15000J0D01*
G01*
X12265000Y-10100000D02*
G75*
G02*
X12235000Y-10100000I-15000J0D01*
G01*
X12235000Y-10100000D02*
G75*
G02*
X12265000Y-10100000I15000J0D01*
G01*
X12285000Y-10450000D02*
G75*
G02*
X12255000Y-10450000I-15000J0D01*
G01*
X12255000Y-10450000D02*
G75*
G02*
X12285000Y-10450000I15000J0D01*
G01*
X12335000Y-11020000D02*
G75*
G02*
X12305000Y-11020000I-15000J0D01*
G01*
X12305000Y-11020000D02*
G75*
G02*
X12335000Y-11020000I15000J0D01*
G01*
X12345000Y-9130000D02*
G75*
G02*
X12315000Y-9130000I-15000J0D01*
G01*
X12315000Y-9130000D02*
G75*
G02*
X12345000Y-9130000I15000J0D01*
G01*
X12345000Y-9230000D02*
G75*
G02*
X12315000Y-9230000I-15000J0D01*
G01*
X12315000Y-9230000D02*
G75*
G02*
X12345000Y-9230000I15000J0D01*
G01*
X12345000Y-9360000D02*
G75*
G02*
X12315000Y-9360000I-15000J0D01*
G01*
X12315000Y-9360000D02*
G75*
G02*
X12345000Y-9360000I15000J0D01*
G01*
X12345000Y-9790000D02*
G75*
G02*
X12315000Y-9790000I-15000J0D01*
G01*
X12315000Y-9790000D02*
G75*
G02*
X12345000Y-9790000I15000J0D01*
G01*
X12345000Y-10260000D02*
G75*
G02*
X12315000Y-10260000I-15000J0D01*
G01*
X12315000Y-10260000D02*
G75*
G02*
X12345000Y-10260000I15000J0D01*
G01*
X12347000Y-10800000D02*
G75*
G02*
X12317000Y-10800000I-15000J0D01*
G01*
X12317000Y-10800000D02*
G75*
G02*
X12347000Y-10800000I15000J0D01*
G01*
X12365000Y-10150000D02*
G75*
G02*
X12335000Y-10150000I-15000J0D01*
G01*
X12335000Y-10150000D02*
G75*
G02*
X12365000Y-10150000I15000J0D01*
G01*
X12395000Y-9950000D02*
G75*
G02*
X12365000Y-9950000I-15000J0D01*
G01*
X12365000Y-9950000D02*
G75*
G02*
X12395000Y-9950000I15000J0D01*
G01*
X12395000Y-10460000D02*
G75*
G02*
X12365000Y-10460000I-15000J0D01*
G01*
X12365000Y-10460000D02*
G75*
G02*
X12395000Y-10460000I15000J0D01*
G01*
X12425000Y-10220000D02*
G75*
G02*
X12395000Y-10220000I-15000J0D01*
G01*
X12395000Y-10220000D02*
G75*
G02*
X12425000Y-10220000I15000J0D01*
G01*
X12435000Y-9620000D02*
G75*
G02*
X12405000Y-9620000I-15000J0D01*
G01*
X12405000Y-9620000D02*
G75*
G02*
X12435000Y-9620000I15000J0D01*
G01*
X12475000Y-11030000D02*
G75*
G02*
X12445000Y-11030000I-15000J0D01*
G01*
X12445000Y-11030000D02*
G75*
G02*
X12475000Y-11030000I15000J0D01*
G01*
X12515000Y-9360000D02*
G75*
G02*
X12485000Y-9360000I-15000J0D01*
G01*
X12485000Y-9360000D02*
G75*
G02*
X12515000Y-9360000I15000J0D01*
G01*
X12515000Y-9560000D02*
G75*
G02*
X12485000Y-9560000I-15000J0D01*
G01*
X12485000Y-9560000D02*
G75*
G02*
X12515000Y-9560000I15000J0D01*
G01*
X12515000Y-9750000D02*
G75*
G02*
X12485000Y-9750000I-15000J0D01*
G01*
X12485000Y-9750000D02*
G75*
G02*
X12515000Y-9750000I15000J0D01*
G01*
X12525000Y-9950000D02*
G75*
G02*
X12495000Y-9950000I-15000J0D01*
G01*
X12495000Y-9950000D02*
G75*
G02*
X12525000Y-9950000I15000J0D01*
G01*
X12535000Y-10140000D02*
G75*
G02*
X12505000Y-10140000I-15000J0D01*
G01*
X12505000Y-10140000D02*
G75*
G02*
X12535000Y-10140000I15000J0D01*
G01*
X12645000Y-9875000D02*
G75*
G02*
X12615000Y-9875000I-15000J0D01*
G01*
X12615000Y-9875000D02*
G75*
G02*
X12645000Y-9875000I15000J0D01*
G01*
X12715000Y-10540000D02*
G75*
G02*
X12685000Y-10540000I-15000J0D01*
G01*
X12685000Y-10540000D02*
G75*
G02*
X12715000Y-10540000I15000J0D01*
G01*
X12725000Y-10150000D02*
G75*
G02*
X12695000Y-10150000I-15000J0D01*
G01*
X12695000Y-10150000D02*
G75*
G02*
X12725000Y-10150000I15000J0D01*
G01*
X12775000Y-9620000D02*
G75*
G02*
X12745000Y-9620000I-15000J0D01*
G01*
X12745000Y-9620000D02*
G75*
G02*
X12775000Y-9620000I15000J0D01*
G01*
X12805000Y-10390000D02*
G75*
G02*
X12775000Y-10390000I-15000J0D01*
G01*
X12775000Y-10390000D02*
G75*
G02*
X12805000Y-10390000I15000J0D01*
G01*
X12805000Y-10520000D02*
G75*
G02*
X12775000Y-10520000I-15000J0D01*
G01*
X12775000Y-10520000D02*
G75*
G02*
X12805000Y-10520000I15000J0D01*
G01*
X12825000Y-10120000D02*
G75*
G02*
X12795000Y-10120000I-15000J0D01*
G01*
X12795000Y-10120000D02*
G75*
G02*
X12825000Y-10120000I15000J0D01*
G01*
X12835000Y-11000000D02*
G75*
G02*
X12805000Y-11000000I-15000J0D01*
G01*
X12805000Y-11000000D02*
G75*
G02*
X12835000Y-11000000I15000J0D01*
G01*
X12879281Y-9677450D02*
G75*
G02*
X12849281Y-9677450I-15000J0D01*
G01*
X12849281Y-9677450D02*
G75*
G02*
X12879281Y-9677450I15000J0D01*
G01*
X12882500Y-9367500D02*
G75*
G02*
X12852500Y-9367500I-15000J0D01*
G01*
X12852500Y-9367500D02*
G75*
G02*
X12882500Y-9367500I15000J0D01*
G01*
X12925000Y-9460000D02*
G75*
G02*
X12895000Y-9460000I-15000J0D01*
G01*
X12895000Y-9460000D02*
G75*
G02*
X12925000Y-9460000I15000J0D01*
G01*
X12935000Y-10050000D02*
G75*
G02*
X12905000Y-10050000I-15000J0D01*
G01*
X12905000Y-10050000D02*
G75*
G02*
X12935000Y-10050000I15000J0D01*
G01*
X12958761Y-10186154D02*
G75*
G02*
X12928761Y-10186154I-15000J0D01*
G01*
X12928761Y-10186154D02*
G75*
G02*
X12958761Y-10186154I15000J0D01*
G01*
X13012914Y-10395022D02*
G75*
G02*
X12982914Y-10395022I-15000J0D01*
G01*
X12982914Y-10395022D02*
G75*
G02*
X13012914Y-10395022I15000J0D01*
G01*
X13045000Y-10550000D02*
G75*
G02*
X13015000Y-10550000I-15000J0D01*
G01*
X13015000Y-10550000D02*
G75*
G02*
X13045000Y-10550000I15000J0D01*
G01*
X13069818Y-9314333D02*
G75*
G02*
X13039818Y-9314333I-15000J0D01*
G01*
X13039818Y-9314333D02*
G75*
G02*
X13069818Y-9314333I15000J0D01*
G01*
X13085000Y-8988750D02*
G75*
G02*
X13055000Y-8988750I-15000J0D01*
G01*
X13055000Y-8988750D02*
G75*
G02*
X13085000Y-8988750I15000J0D01*
G01*
X13145000Y-9720000D02*
G75*
G02*
X13115000Y-9720000I-15000J0D01*
G01*
X13115000Y-9720000D02*
G75*
G02*
X13145000Y-9720000I15000J0D01*
G01*
X13195000Y-9860000D02*
G75*
G02*
X13165000Y-9860000I-15000J0D01*
G01*
X13165000Y-9860000D02*
G75*
G02*
X13195000Y-9860000I15000J0D01*
G01*
X13215000Y-10210000D02*
G75*
G02*
X13185000Y-10210000I-15000J0D01*
G01*
X13185000Y-10210000D02*
G75*
G02*
X13215000Y-10210000I15000J0D01*
G01*
X13235000Y-9920000D02*
G75*
G02*
X13205000Y-9920000I-15000J0D01*
G01*
X13205000Y-9920000D02*
G75*
G02*
X13235000Y-9920000I15000J0D01*
G01*
X13235000Y-10130000D02*
G75*
G02*
X13205000Y-10130000I-15000J0D01*
G01*
X13205000Y-10130000D02*
G75*
G02*
X13235000Y-10130000I15000J0D01*
G01*
X13235943Y-10280068D02*
G75*
G02*
X13205943Y-10280068I-15000J0D01*
G01*
X13205943Y-10280068D02*
G75*
G02*
X13235943Y-10280068I15000J0D01*
G01*
X13265358Y-9754983D02*
G75*
G02*
X13235358Y-9754983I-15000J0D01*
G01*
X13235358Y-9754983D02*
G75*
G02*
X13265358Y-9754983I15000J0D01*
G01*
X13285000Y-10820000D02*
G75*
G02*
X13255000Y-10820000I-15000J0D01*
G01*
X13255000Y-10820000D02*
G75*
G02*
X13285000Y-10820000I15000J0D01*
G01*
X13335000Y-9640000D02*
G75*
G02*
X13305000Y-9640000I-15000J0D01*
G01*
X13305000Y-9640000D02*
G75*
G02*
X13335000Y-9640000I15000J0D01*
G01*
X13339208Y-9430862D02*
G75*
G02*
X13309208Y-9430862I-15000J0D01*
G01*
X13309208Y-9430862D02*
G75*
G02*
X13339208Y-9430862I15000J0D01*
G01*
X13345000Y-10462572D02*
G75*
G02*
X13315000Y-10462572I-15000J0D01*
G01*
X13315000Y-10462572D02*
G75*
G02*
X13345000Y-10462572I15000J0D01*
G01*
X13363517Y-9771483D02*
G75*
G02*
X13333517Y-9771483I-15000J0D01*
G01*
X13333517Y-9771483D02*
G75*
G02*
X13363517Y-9771483I15000J0D01*
G01*
X13419950Y-9630000D02*
G75*
G02*
X13389950Y-9630000I-15000J0D01*
G01*
X13389950Y-9630000D02*
G75*
G02*
X13419950Y-9630000I15000J0D01*
G01*
X13425000Y-10030000D02*
G75*
G02*
X13395000Y-10030000I-15000J0D01*
G01*
X13395000Y-10030000D02*
G75*
G02*
X13425000Y-10030000I15000J0D01*
G01*
X13505000Y-9950000D02*
G75*
G02*
X13475000Y-9950000I-15000J0D01*
G01*
X13475000Y-9950000D02*
G75*
G02*
X13505000Y-9950000I15000J0D01*
G01*
X13505000Y-10120000D02*
G75*
G02*
X13475000Y-10120000I-15000J0D01*
G01*
X13475000Y-10120000D02*
G75*
G02*
X13505000Y-10120000I15000J0D01*
G01*
X13515000Y-9610000D02*
G75*
G02*
X13485000Y-9610000I-15000J0D01*
G01*
X13485000Y-9610000D02*
G75*
G02*
X13515000Y-9610000I15000J0D01*
G01*
X13585000Y-9400000D02*
G75*
G02*
X13555000Y-9400000I-15000J0D01*
G01*
X13555000Y-9400000D02*
G75*
G02*
X13585000Y-9400000I15000J0D01*
G01*
X13595000Y-9860000D02*
G75*
G02*
X13565000Y-9860000I-15000J0D01*
G01*
X13565000Y-9860000D02*
G75*
G02*
X13595000Y-9860000I15000J0D01*
G01*
X13595000Y-10040000D02*
G75*
G02*
X13565000Y-10040000I-15000J0D01*
G01*
X13565000Y-10040000D02*
G75*
G02*
X13595000Y-10040000I15000J0D01*
G01*
X13595000Y-10200000D02*
G75*
G02*
X13565000Y-10200000I-15000J0D01*
G01*
X13565000Y-10200000D02*
G75*
G02*
X13595000Y-10200000I15000J0D01*
G01*
X13685000Y-9960000D02*
G75*
G02*
X13655000Y-9960000I-15000J0D01*
G01*
X13655000Y-9960000D02*
G75*
G02*
X13685000Y-9960000I15000J0D01*
G01*
X13685000Y-10120000D02*
G75*
G02*
X13655000Y-10120000I-15000J0D01*
G01*
X13655000Y-10120000D02*
G75*
G02*
X13685000Y-10120000I15000J0D01*
G01*
X13695000Y-10770000D02*
G75*
G02*
X13665000Y-10770000I-15000J0D01*
G01*
X13665000Y-10770000D02*
G75*
G02*
X13695000Y-10770000I15000J0D01*
G01*
X13698144Y-10531923D02*
G75*
G02*
X13668144Y-10531923I-15000J0D01*
G01*
X13668144Y-10531923D02*
G75*
G02*
X13698144Y-10531923I15000J0D01*
G01*
X13715000Y-9100000D02*
G75*
G02*
X13685000Y-9100000I-15000J0D01*
G01*
X13685000Y-9100000D02*
G75*
G02*
X13715000Y-9100000I15000J0D01*
G01*
X13725000Y-10892550D02*
G75*
G02*
X13695000Y-10892550I-15000J0D01*
G01*
X13695000Y-10892550D02*
G75*
G02*
X13725000Y-10892550I15000J0D01*
G01*
X13765000Y-10040000D02*
G75*
G02*
X13735000Y-10040000I-15000J0D01*
G01*
X13735000Y-10040000D02*
G75*
G02*
X13765000Y-10040000I15000J0D01*
G01*
X13765000Y-11200000D02*
G75*
G02*
X13735000Y-11200000I-15000J0D01*
G01*
X13735000Y-11200000D02*
G75*
G02*
X13765000Y-11200000I15000J0D01*
G01*
X13767550Y-10460000D02*
G75*
G02*
X13737550Y-10460000I-15000J0D01*
G01*
X13737550Y-10460000D02*
G75*
G02*
X13767550Y-10460000I15000J0D01*
G01*
X13835643Y-10729691D02*
G75*
G02*
X13805643Y-10729691I-15000J0D01*
G01*
X13805643Y-10729691D02*
G75*
G02*
X13835643Y-10729691I15000J0D01*
G01*
X13895000Y-10785768D02*
G75*
G02*
X13865000Y-10785768I-15000J0D01*
G01*
X13865000Y-10785768D02*
G75*
G02*
X13895000Y-10785768I15000J0D01*
G01*
X13897498Y-10347748D02*
G75*
G02*
X13867498Y-10347748I-15000J0D01*
G01*
X13867498Y-10347748D02*
G75*
G02*
X13897498Y-10347748I15000J0D01*
G01*
X13935000Y-9560000D02*
G75*
G02*
X13905000Y-9560000I-15000J0D01*
G01*
X13905000Y-9560000D02*
G75*
G02*
X13935000Y-9560000I15000J0D01*
G01*
X13964149Y-10050000D02*
G75*
G02*
X13934149Y-10050000I-15000J0D01*
G01*
X13934149Y-10050000D02*
G75*
G02*
X13964149Y-10050000I15000J0D01*
G01*
X13964149Y-10260000D02*
G75*
G02*
X13934149Y-10260000I-15000J0D01*
G01*
X13934149Y-10260000D02*
G75*
G02*
X13964149Y-10260000I15000J0D01*
G01*
X13995000Y-10980000D02*
G75*
G02*
X13965000Y-10980000I-15000J0D01*
G01*
X13965000Y-10980000D02*
G75*
G02*
X13995000Y-10980000I15000J0D01*
G01*
X14005000Y-9440000D02*
G75*
G02*
X13975000Y-9440000I-15000J0D01*
G01*
X13975000Y-9440000D02*
G75*
G02*
X14005000Y-9440000I15000J0D01*
G01*
X14015000Y-11300000D02*
G75*
G02*
X13985000Y-11300000I-15000J0D01*
G01*
X13985000Y-11300000D02*
G75*
G02*
X14015000Y-11300000I15000J0D01*
G01*
X14031699Y-9736699D02*
G75*
G02*
X14001699Y-9736699I-15000J0D01*
G01*
X14001699Y-9736699D02*
G75*
G02*
X14031699Y-9736699I15000J0D01*
G01*
X14035000Y-9210000D02*
G75*
G02*
X14005000Y-9210000I-15000J0D01*
G01*
X14005000Y-9210000D02*
G75*
G02*
X14035000Y-9210000I15000J0D01*
G01*
X14035000Y-10660000D02*
G75*
G02*
X14005000Y-10660000I-15000J0D01*
G01*
X14005000Y-10660000D02*
G75*
G02*
X14035000Y-10660000I15000J0D01*
G01*
X14035000Y-10759950D02*
G75*
G02*
X14005000Y-10759950I-15000J0D01*
G01*
X14005000Y-10759950D02*
G75*
G02*
X14035000Y-10759950I15000J0D01*
G01*
X14055000Y-10540000D02*
G75*
G02*
X14025000Y-10540000I-15000J0D01*
G01*
X14025000Y-10540000D02*
G75*
G02*
X14055000Y-10540000I15000J0D01*
G01*
X14085000Y-10150000D02*
G75*
G02*
X14055000Y-10150000I-15000J0D01*
G01*
X14055000Y-10150000D02*
G75*
G02*
X14085000Y-10150000I15000J0D01*
G01*
X14094181Y-10313793D02*
G75*
G02*
X14064181Y-10313793I-15000J0D01*
G01*
X14064181Y-10313793D02*
G75*
G02*
X14094181Y-10313793I15000J0D01*
G01*
X14101344Y-9597550D02*
G75*
G02*
X14071344Y-9597550I-15000J0D01*
G01*
X14071344Y-9597550D02*
G75*
G02*
X14101344Y-9597550I15000J0D01*
G01*
X14125000Y-9462450D02*
G75*
G02*
X14095000Y-9462450I-15000J0D01*
G01*
X14095000Y-9462450D02*
G75*
G02*
X14125000Y-9462450I15000J0D01*
G01*
X14145000Y-10660000D02*
G75*
G02*
X14115000Y-10660000I-15000J0D01*
G01*
X14115000Y-10660000D02*
G75*
G02*
X14145000Y-10660000I15000J0D01*
G01*
X14175000Y-9210000D02*
G75*
G02*
X14145000Y-9210000I-15000J0D01*
G01*
X14145000Y-9210000D02*
G75*
G02*
X14175000Y-9210000I15000J0D01*
G01*
X14192600Y-9556870D02*
G75*
G02*
X14162600Y-9556870I-15000J0D01*
G01*
X14162600Y-9556870D02*
G75*
G02*
X14192600Y-9556870I15000J0D01*
G01*
X14252550Y-9700000D02*
G75*
G02*
X14222550Y-9700000I-15000J0D01*
G01*
X14222550Y-9700000D02*
G75*
G02*
X14252550Y-9700000I15000J0D01*
G01*
X14275000Y-10260000D02*
G75*
G02*
X14245000Y-10260000I-15000J0D01*
G01*
X14245000Y-10260000D02*
G75*
G02*
X14275000Y-10260000I15000J0D01*
G01*
X14315000Y-10370000D02*
G75*
G02*
X14285000Y-10370000I-15000J0D01*
G01*
X14285000Y-10370000D02*
G75*
G02*
X14315000Y-10370000I15000J0D01*
G01*
X14315000Y-11110000D02*
G75*
G02*
X14285000Y-11110000I-15000J0D01*
G01*
X14285000Y-11110000D02*
G75*
G02*
X14315000Y-11110000I15000J0D01*
G01*
X14325000Y-9910000D02*
G75*
G02*
X14295000Y-9910000I-15000J0D01*
G01*
X14295000Y-9910000D02*
G75*
G02*
X14325000Y-9910000I15000J0D01*
G01*
X14435000Y-10680000D02*
G75*
G02*
X14405000Y-10680000I-15000J0D01*
G01*
X14405000Y-10680000D02*
G75*
G02*
X14435000Y-10680000I15000J0D01*
G01*
X14455000Y-9480000D02*
G75*
G02*
X14425000Y-9480000I-15000J0D01*
G01*
X14425000Y-9480000D02*
G75*
G02*
X14455000Y-9480000I15000J0D01*
G01*
X14525000Y-10590000D02*
G75*
G02*
X14495000Y-10590000I-15000J0D01*
G01*
X14495000Y-10590000D02*
G75*
G02*
X14525000Y-10590000I15000J0D01*
G01*
X14525000Y-10680000D02*
G75*
G02*
X14495000Y-10680000I-15000J0D01*
G01*
X14495000Y-10680000D02*
G75*
G02*
X14525000Y-10680000I15000J0D01*
G01*
X14525000Y-10770000D02*
G75*
G02*
X14495000Y-10770000I-15000J0D01*
G01*
X14495000Y-10770000D02*
G75*
G02*
X14525000Y-10770000I15000J0D01*
G01*
X14535000Y-11260000D02*
G75*
G02*
X14505000Y-11260000I-15000J0D01*
G01*
X14505000Y-11260000D02*
G75*
G02*
X14535000Y-11260000I15000J0D01*
G01*
X14545000Y-9390000D02*
G75*
G02*
X14515000Y-9390000I-15000J0D01*
G01*
X14515000Y-9390000D02*
G75*
G02*
X14545000Y-9390000I15000J0D01*
G01*
X14545000Y-9480000D02*
G75*
G02*
X14515000Y-9480000I-15000J0D01*
G01*
X14515000Y-9480000D02*
G75*
G02*
X14545000Y-9480000I15000J0D01*
G01*
X14545000Y-9570000D02*
G75*
G02*
X14515000Y-9570000I-15000J0D01*
G01*
X14515000Y-9570000D02*
G75*
G02*
X14545000Y-9570000I15000J0D01*
G01*
X14545000Y-10090000D02*
G75*
G02*
X14515000Y-10090000I-15000J0D01*
G01*
X14515000Y-10090000D02*
G75*
G02*
X14545000Y-10090000I15000J0D01*
G01*
X14615000Y-10680000D02*
G75*
G02*
X14585000Y-10680000I-15000J0D01*
G01*
X14585000Y-10680000D02*
G75*
G02*
X14615000Y-10680000I15000J0D01*
G01*
X14635000Y-9480000D02*
G75*
G02*
X14605000Y-9480000I-15000J0D01*
G01*
X14605000Y-9480000D02*
G75*
G02*
X14635000Y-9480000I15000J0D01*
G01*
X14685000Y-11000000D02*
G75*
G02*
X14655000Y-11000000I-15000J0D01*
G01*
X14655000Y-11000000D02*
G75*
G02*
X14685000Y-11000000I15000J0D01*
G01*
X14705000Y-10350000D02*
G75*
G02*
X14675000Y-10350000I-15000J0D01*
G01*
X14675000Y-10350000D02*
G75*
G02*
X14705000Y-10350000I15000J0D01*
G01*
X14735000Y-10160000D02*
G75*
G02*
X14705000Y-10160000I-15000J0D01*
G01*
X14705000Y-10160000D02*
G75*
G02*
X14735000Y-10160000I15000J0D01*
G01*
X14755000Y-9120000D02*
G75*
G02*
X14725000Y-9120000I-15000J0D01*
G01*
X14725000Y-9120000D02*
G75*
G02*
X14755000Y-9120000I15000J0D01*
G01*
X14765000Y-10090000D02*
G75*
G02*
X14735000Y-10090000I-15000J0D01*
G01*
X14735000Y-10090000D02*
G75*
G02*
X14765000Y-10090000I15000J0D01*
G01*
X14785000Y-11230000D02*
G75*
G02*
X14755000Y-11230000I-15000J0D01*
G01*
X14755000Y-11230000D02*
G75*
G02*
X14785000Y-11230000I15000J0D01*
G01*
X14796100Y-10847927D02*
G75*
G02*
X14766100Y-10847927I-15000J0D01*
G01*
X14766100Y-10847927D02*
G75*
G02*
X14796100Y-10847927I15000J0D01*
G01*
X14812650Y-9610000D02*
G75*
G02*
X14782650Y-9610000I-15000J0D01*
G01*
X14782650Y-9610000D02*
G75*
G02*
X14812650Y-9610000I15000J0D01*
G01*
X14835000Y-9370000D02*
G75*
G02*
X14805000Y-9370000I-15000J0D01*
G01*
X14805000Y-9370000D02*
G75*
G02*
X14835000Y-9370000I15000J0D01*
G01*
X14845000Y-10420000D02*
G75*
G02*
X14815000Y-10420000I-15000J0D01*
G01*
X14815000Y-10420000D02*
G75*
G02*
X14845000Y-10420000I15000J0D01*
G01*
X14855000Y-9720000D02*
G75*
G02*
X14825000Y-9720000I-15000J0D01*
G01*
X14825000Y-9720000D02*
G75*
G02*
X14855000Y-9720000I15000J0D01*
G01*
X14865000Y-10600000D02*
G75*
G02*
X14835000Y-10600000I-15000J0D01*
G01*
X14835000Y-10600000D02*
G75*
G02*
X14865000Y-10600000I15000J0D01*
G01*
X14885000Y-10890000D02*
G75*
G02*
X14855000Y-10890000I-15000J0D01*
G01*
X14855000Y-10890000D02*
G75*
G02*
X14885000Y-10890000I15000J0D01*
G01*
X14905000Y-9290000D02*
G75*
G02*
X14875000Y-9290000I-15000J0D01*
G01*
X14875000Y-9290000D02*
G75*
G02*
X14905000Y-9290000I15000J0D01*
G01*
X14955000Y-9920000D02*
G75*
G02*
X14925000Y-9920000I-15000J0D01*
G01*
X14925000Y-9920000D02*
G75*
G02*
X14955000Y-9920000I15000J0D01*
G01*
X14985000Y-9720000D02*
G75*
G02*
X14955000Y-9720000I-15000J0D01*
G01*
X14955000Y-9720000D02*
G75*
G02*
X14985000Y-9720000I15000J0D01*
G01*
X15005000Y-10980000D02*
G75*
G02*
X14975000Y-10980000I-15000J0D01*
G01*
X14975000Y-10980000D02*
G75*
G02*
X15005000Y-10980000I15000J0D01*
G01*
X15025000Y-10600000D02*
G75*
G02*
X14995000Y-10600000I-15000J0D01*
G01*
X14995000Y-10600000D02*
G75*
G02*
X15025000Y-10600000I15000J0D01*
G01*
X15030000Y-9836107D02*
G75*
G02*
X15000000Y-9836107I-15000J0D01*
G01*
X15000000Y-9836107D02*
G75*
G02*
X15030000Y-9836107I15000J0D01*
G01*
X15035000Y-10870000D02*
G75*
G02*
X15005000Y-10870000I-15000J0D01*
G01*
X15005000Y-10870000D02*
G75*
G02*
X15035000Y-10870000I15000J0D01*
G01*
X15125000Y-9720000D02*
G75*
G02*
X15095000Y-9720000I-15000J0D01*
G01*
X15095000Y-9720000D02*
G75*
G02*
X15125000Y-9720000I15000J0D01*
G01*
X15185000Y-10660000D02*
G75*
G02*
X15155000Y-10660000I-15000J0D01*
G01*
X15155000Y-10660000D02*
G75*
G02*
X15185000Y-10660000I15000J0D01*
G01*
X15195000Y-9260000D02*
G75*
G02*
X15165000Y-9260000I-15000J0D01*
G01*
X15165000Y-9260000D02*
G75*
G02*
X15195000Y-9260000I15000J0D01*
G01*
X15215000Y-9500000D02*
G75*
G02*
X15185000Y-9500000I-15000J0D01*
G01*
X15185000Y-9500000D02*
G75*
G02*
X15215000Y-9500000I15000J0D01*
G01*
X15215000Y-9620000D02*
G75*
G02*
X15185000Y-9620000I-15000J0D01*
G01*
X15185000Y-9620000D02*
G75*
G02*
X15215000Y-9620000I15000J0D01*
G01*
X15215000Y-10840000D02*
G75*
G02*
X15185000Y-10840000I-15000J0D01*
G01*
X15185000Y-10840000D02*
G75*
G02*
X15215000Y-10840000I15000J0D01*
G01*
X15265000Y-10570000D02*
G75*
G02*
X15235000Y-10570000I-15000J0D01*
G01*
X15235000Y-10570000D02*
G75*
G02*
X15265000Y-10570000I15000J0D01*
G01*
X15275000Y-9860000D02*
G75*
G02*
X15245000Y-9860000I-15000J0D01*
G01*
X15245000Y-9860000D02*
G75*
G02*
X15275000Y-9860000I15000J0D01*
G01*
X15275000Y-10000000D02*
G75*
G02*
X15245000Y-10000000I-15000J0D01*
G01*
X15245000Y-10000000D02*
G75*
G02*
X15275000Y-10000000I15000J0D01*
G01*
X15275000Y-10180000D02*
G75*
G02*
X15245000Y-10180000I-15000J0D01*
G01*
X15245000Y-10180000D02*
G75*
G02*
X15275000Y-10180000I15000J0D01*
G01*
X15275000Y-10340000D02*
G75*
G02*
X15245000Y-10340000I-15000J0D01*
G01*
X15245000Y-10340000D02*
G75*
G02*
X15275000Y-10340000I15000J0D01*
G01*
X15275000Y-10460000D02*
G75*
G02*
X15245000Y-10460000I-15000J0D01*
G01*
X15245000Y-10460000D02*
G75*
G02*
X15275000Y-10460000I15000J0D01*
G01*
X15305000Y-10740000D02*
G75*
G02*
X15275000Y-10740000I-15000J0D01*
G01*
X15275000Y-10740000D02*
G75*
G02*
X15305000Y-10740000I15000J0D01*
G01*
X15325000Y-9030000D02*
G75*
G02*
X15295000Y-9030000I-15000J0D01*
G01*
X15295000Y-9030000D02*
G75*
G02*
X15325000Y-9030000I15000J0D01*
G01*
X15325000Y-9160000D02*
G75*
G02*
X15295000Y-9160000I-15000J0D01*
G01*
X15295000Y-9160000D02*
G75*
G02*
X15325000Y-9160000I15000J0D01*
G01*
X15345000Y-9730000D02*
G75*
G02*
X15315000Y-9730000I-15000J0D01*
G01*
X15315000Y-9730000D02*
G75*
G02*
X15345000Y-9730000I15000J0D01*
G01*
X15355000Y-9260000D02*
G75*
G02*
X15325000Y-9260000I-15000J0D01*
G01*
X15325000Y-9260000D02*
G75*
G02*
X15355000Y-9260000I15000J0D01*
G01*
X15405000Y-10640000D02*
G75*
G02*
X15375000Y-10640000I-15000J0D01*
G01*
X15375000Y-10640000D02*
G75*
G02*
X15405000Y-10640000I15000J0D01*
G01*
X15415000Y-9860000D02*
G75*
G02*
X15385000Y-9860000I-15000J0D01*
G01*
X15385000Y-9860000D02*
G75*
G02*
X15415000Y-9860000I15000J0D01*
G01*
X15415000Y-10000000D02*
G75*
G02*
X15385000Y-10000000I-15000J0D01*
G01*
X15385000Y-10000000D02*
G75*
G02*
X15415000Y-10000000I15000J0D01*
G01*
X15425000Y-10220000D02*
G75*
G02*
X15395000Y-10220000I-15000J0D01*
G01*
X15395000Y-10220000D02*
G75*
G02*
X15425000Y-10220000I15000J0D01*
G01*
X15425000Y-10340000D02*
G75*
G02*
X15395000Y-10340000I-15000J0D01*
G01*
X15395000Y-10340000D02*
G75*
G02*
X15425000Y-10340000I15000J0D01*
G01*
X15425000Y-10490000D02*
G75*
G02*
X15395000Y-10490000I-15000J0D01*
G01*
X15395000Y-10490000D02*
G75*
G02*
X15425000Y-10490000I15000J0D01*
G01*
X15475000Y-9500000D02*
G75*
G02*
X15445000Y-9500000I-15000J0D01*
G01*
X15445000Y-9500000D02*
G75*
G02*
X15475000Y-9500000I15000J0D01*
G01*
X15475000Y-9640000D02*
G75*
G02*
X15445000Y-9640000I-15000J0D01*
G01*
X15445000Y-9640000D02*
G75*
G02*
X15475000Y-9640000I15000J0D01*
G01*
X15515000Y-9260000D02*
G75*
G02*
X15485000Y-9260000I-15000J0D01*
G01*
X15485000Y-9260000D02*
G75*
G02*
X15515000Y-9260000I15000J0D01*
G01*
X15515000Y-10280000D02*
G75*
G02*
X15485000Y-10280000I-15000J0D01*
G01*
X15485000Y-10280000D02*
G75*
G02*
X15515000Y-10280000I15000J0D01*
G01*
X15595000Y-10160000D02*
G75*
G02*
X15565000Y-10160000I-15000J0D01*
G01*
X15565000Y-10160000D02*
G75*
G02*
X15595000Y-10160000I15000J0D01*
G01*
X15635000Y-9970000D02*
G75*
G02*
X15605000Y-9970000I-15000J0D01*
G01*
X15605000Y-9970000D02*
G75*
G02*
X15635000Y-9970000I15000J0D01*
G01*
X15645000Y-9010000D02*
G75*
G02*
X15615000Y-9010000I-15000J0D01*
G01*
X15615000Y-9010000D02*
G75*
G02*
X15645000Y-9010000I15000J0D01*
G01*
X15655000Y-9110000D02*
G75*
G02*
X15625000Y-9110000I-15000J0D01*
G01*
X15625000Y-9110000D02*
G75*
G02*
X15655000Y-9110000I15000J0D01*
G01*
X15665000Y-9260000D02*
G75*
G02*
X15635000Y-9260000I-15000J0D01*
G01*
X15635000Y-9260000D02*
G75*
G02*
X15665000Y-9260000I15000J0D01*
G01*
X15695000Y-9500000D02*
G75*
G02*
X15665000Y-9500000I-15000J0D01*
G01*
X15665000Y-9500000D02*
G75*
G02*
X15695000Y-9500000I15000J0D01*
G01*
X15705000Y-9060000D02*
G75*
G02*
X15675000Y-9060000I-15000J0D01*
G01*
X15675000Y-9060000D02*
G75*
G02*
X15705000Y-9060000I15000J0D01*
G01*
X15710000Y-9970000D02*
G75*
G02*
X15680000Y-9970000I-15000J0D01*
G01*
X15680000Y-9970000D02*
G75*
G02*
X15710000Y-9970000I15000J0D01*
G01*
X15715000Y-11300000D02*
G75*
G02*
X15685000Y-11300000I-15000J0D01*
G01*
X15685000Y-11300000D02*
G75*
G02*
X15715000Y-11300000I15000J0D01*
G01*
X15775000Y-10160000D02*
G75*
G02*
X15745000Y-10160000I-15000J0D01*
G01*
X15745000Y-10160000D02*
G75*
G02*
X15775000Y-10160000I15000J0D01*
G01*
X15785000Y-9970000D02*
G75*
G02*
X15755000Y-9970000I-15000J0D01*
G01*
X15755000Y-9970000D02*
G75*
G02*
X15785000Y-9970000I15000J0D01*
G01*
X15835000Y-9600000D02*
G75*
G02*
X15805000Y-9600000I-15000J0D01*
G01*
X15805000Y-9600000D02*
G75*
G02*
X15835000Y-9600000I15000J0D01*
G01*
X15855000Y-10070000D02*
G75*
G02*
X15825000Y-10070000I-15000J0D01*
G01*
X15825000Y-10070000D02*
G75*
G02*
X15855000Y-10070000I15000J0D01*
G01*
X15855000Y-10160000D02*
G75*
G02*
X15825000Y-10160000I-15000J0D01*
G01*
X15825000Y-10160000D02*
G75*
G02*
X15855000Y-10160000I15000J0D01*
G01*
X15875000Y-9500000D02*
G75*
G02*
X15845000Y-9500000I-15000J0D01*
G01*
X15845000Y-9500000D02*
G75*
G02*
X15875000Y-9500000I15000J0D01*
G01*
X15875000Y-9990000D02*
G75*
G02*
X15845000Y-9990000I-15000J0D01*
G01*
X15845000Y-9990000D02*
G75*
G02*
X15875000Y-9990000I15000J0D01*
G01*
X15885000Y-9770000D02*
G75*
G02*
X15855000Y-9770000I-15000J0D01*
G01*
X15855000Y-9770000D02*
G75*
G02*
X15885000Y-9770000I15000J0D01*
G01*
X15915000Y-10260000D02*
G75*
G02*
X15885000Y-10260000I-15000J0D01*
G01*
X15885000Y-10260000D02*
G75*
G02*
X15915000Y-10260000I15000J0D01*
G01*
X15925000Y-9200000D02*
G75*
G02*
X15895000Y-9200000I-15000J0D01*
G01*
X15895000Y-9200000D02*
G75*
G02*
X15925000Y-9200000I15000J0D01*
G01*
X15995000Y-10480000D02*
G75*
G02*
X15965000Y-10480000I-15000J0D01*
G01*
X15965000Y-10480000D02*
G75*
G02*
X15995000Y-10480000I15000J0D01*
G01*
X16015000Y-9260000D02*
G75*
G02*
X15985000Y-9260000I-15000J0D01*
G01*
X15985000Y-9260000D02*
G75*
G02*
X16015000Y-9260000I15000J0D01*
G01*
X16015000Y-9500000D02*
G75*
G02*
X15985000Y-9500000I-15000J0D01*
G01*
X15985000Y-9500000D02*
G75*
G02*
X16015000Y-9500000I15000J0D01*
G01*
X16015000Y-9770000D02*
G75*
G02*
X15985000Y-9770000I-15000J0D01*
G01*
X15985000Y-9770000D02*
G75*
G02*
X16015000Y-9770000I15000J0D01*
G01*
X16015000Y-9990000D02*
G75*
G02*
X15985000Y-9990000I-15000J0D01*
G01*
X15985000Y-9990000D02*
G75*
G02*
X16015000Y-9990000I15000J0D01*
G01*
X16115000Y-11300000D02*
G75*
G02*
X16085000Y-11300000I-15000J0D01*
G01*
X16085000Y-11300000D02*
G75*
G02*
X16115000Y-11300000I15000J0D01*
G01*
X16135000Y-10690000D02*
G75*
G02*
X16105000Y-10690000I-15000J0D01*
G01*
X16105000Y-10690000D02*
G75*
G02*
X16135000Y-10690000I15000J0D01*
G01*
X16145000Y-10900000D02*
G75*
G02*
X16115000Y-10900000I-15000J0D01*
G01*
X16115000Y-10900000D02*
G75*
G02*
X16145000Y-10900000I15000J0D01*
G01*
X16165000Y-9260000D02*
G75*
G02*
X16135000Y-9260000I-15000J0D01*
G01*
X16135000Y-9260000D02*
G75*
G02*
X16165000Y-9260000I15000J0D01*
G01*
X16165000Y-9500000D02*
G75*
G02*
X16135000Y-9500000I-15000J0D01*
G01*
X16135000Y-9500000D02*
G75*
G02*
X16165000Y-9500000I15000J0D01*
G01*
X16165000Y-10260000D02*
G75*
G02*
X16135000Y-10260000I-15000J0D01*
G01*
X16135000Y-10260000D02*
G75*
G02*
X16165000Y-10260000I15000J0D01*
G01*
X16175000Y-9770000D02*
G75*
G02*
X16145000Y-9770000I-15000J0D01*
G01*
X16145000Y-9770000D02*
G75*
G02*
X16175000Y-9770000I15000J0D01*
G01*
X16175000Y-9990000D02*
G75*
G02*
X16145000Y-9990000I-15000J0D01*
G01*
X16145000Y-9990000D02*
G75*
G02*
X16175000Y-9990000I15000J0D01*
G01*
X16205000Y-10470000D02*
G75*
G02*
X16175000Y-10470000I-15000J0D01*
G01*
X16175000Y-10470000D02*
G75*
G02*
X16205000Y-10470000I15000J0D01*
G01*
X16315000Y-9260000D02*
G75*
G02*
X16285000Y-9260000I-15000J0D01*
G01*
X16285000Y-9260000D02*
G75*
G02*
X16315000Y-9260000I15000J0D01*
G01*
X16315000Y-9500000D02*
G75*
G02*
X16285000Y-9500000I-15000J0D01*
G01*
X16285000Y-9500000D02*
G75*
G02*
X16315000Y-9500000I15000J0D01*
G01*
X16325000Y-10260000D02*
G75*
G02*
X16295000Y-10260000I-15000J0D01*
G01*
X16295000Y-10260000D02*
G75*
G02*
X16325000Y-10260000I15000J0D01*
G01*
X16355000Y-9770000D02*
G75*
G02*
X16325000Y-9770000I-15000J0D01*
G01*
X16325000Y-9770000D02*
G75*
G02*
X16355000Y-9770000I15000J0D01*
G01*
X16415000Y-9157500D02*
G75*
G02*
X16385000Y-9157500I-15000J0D01*
G01*
X16385000Y-9157500D02*
G75*
G02*
X16415000Y-9157500I15000J0D01*
G01*
X16455000Y-9830000D02*
G75*
G02*
X16425000Y-9830000I-15000J0D01*
G01*
X16425000Y-9830000D02*
G75*
G02*
X16455000Y-9830000I15000J0D01*
G01*
X16465000Y-9260000D02*
G75*
G02*
X16435000Y-9260000I-15000J0D01*
G01*
X16435000Y-9260000D02*
G75*
G02*
X16465000Y-9260000I15000J0D01*
G01*
X16465000Y-10260000D02*
G75*
G02*
X16435000Y-10260000I-15000J0D01*
G01*
X16435000Y-10260000D02*
G75*
G02*
X16465000Y-10260000I15000J0D01*
G01*
X16475000Y-9500000D02*
G75*
G02*
X16445000Y-9500000I-15000J0D01*
G01*
X16445000Y-9500000D02*
G75*
G02*
X16475000Y-9500000I15000J0D01*
G01*
X16515000Y-10900000D02*
G75*
G02*
X16485000Y-10900000I-15000J0D01*
G01*
X16485000Y-10900000D02*
G75*
G02*
X16515000Y-10900000I15000J0D01*
G01*
X16575000Y-9970000D02*
G75*
G02*
X16545000Y-9970000I-15000J0D01*
G01*
X16545000Y-9970000D02*
G75*
G02*
X16575000Y-9970000I15000J0D01*
G01*
X16585000Y-9750000D02*
G75*
G02*
X16555000Y-9750000I-15000J0D01*
G01*
X16555000Y-9750000D02*
G75*
G02*
X16585000Y-9750000I15000J0D01*
G01*
X16625000Y-9260000D02*
G75*
G02*
X16595000Y-9260000I-15000J0D01*
G01*
X16595000Y-9260000D02*
G75*
G02*
X16625000Y-9260000I15000J0D01*
G01*
X16775000Y-9260000D02*
G75*
G02*
X16745000Y-9260000I-15000J0D01*
G01*
X16745000Y-9260000D02*
G75*
G02*
X16775000Y-9260000I15000J0D01*
G01*
X16775000Y-9510000D02*
G75*
G02*
X16745000Y-9510000I-15000J0D01*
G01*
X16745000Y-9510000D02*
G75*
G02*
X16775000Y-9510000I15000J0D01*
G01*
X16815000Y-10080000D02*
G75*
G02*
X16785000Y-10080000I-15000J0D01*
G01*
X16785000Y-10080000D02*
G75*
G02*
X16815000Y-10080000I15000J0D01*
G01*
X16825000Y-9810000D02*
G75*
G02*
X16795000Y-9810000I-15000J0D01*
G01*
X16795000Y-9810000D02*
G75*
G02*
X16825000Y-9810000I15000J0D01*
G01*
X16955000Y-9810000D02*
G75*
G02*
X16925000Y-9810000I-15000J0D01*
G01*
X16925000Y-9810000D02*
G75*
G02*
X16955000Y-9810000I15000J0D01*
G01*
X16955000Y-10080000D02*
G75*
G02*
X16925000Y-10080000I-15000J0D01*
G01*
X16925000Y-10080000D02*
G75*
G02*
X16955000Y-10080000I15000J0D01*
G01*
X17025000Y-9260000D02*
G75*
G02*
X16995000Y-9260000I-15000J0D01*
G01*
X16995000Y-9260000D02*
G75*
G02*
X17025000Y-9260000I15000J0D01*
G01*
X17155000Y-9260000D02*
G75*
G02*
X17125000Y-9260000I-15000J0D01*
G01*
X17125000Y-9260000D02*
G75*
G02*
X17155000Y-9260000I15000J0D01*
G01*
X17155000Y-11070000D02*
G75*
G02*
X17125000Y-11070000I-15000J0D01*
G01*
X17125000Y-11070000D02*
G75*
G02*
X17155000Y-11070000I15000J0D01*
G01*
X17155000Y-11160000D02*
G75*
G02*
X17125000Y-11160000I-15000J0D01*
G01*
X17125000Y-11160000D02*
G75*
G02*
X17155000Y-11160000I15000J0D01*
G01*
X17185000Y-9720000D02*
G75*
G02*
X17155000Y-9720000I-15000J0D01*
G01*
X17155000Y-9720000D02*
G75*
G02*
X17185000Y-9720000I15000J0D01*
G01*
X17185000Y-9930000D02*
G75*
G02*
X17155000Y-9930000I-15000J0D01*
G01*
X17155000Y-9930000D02*
G75*
G02*
X17185000Y-9930000I15000J0D01*
G01*
X17225000Y-11010000D02*
G75*
G02*
X17195000Y-11010000I-15000J0D01*
G01*
X17195000Y-11010000D02*
G75*
G02*
X17225000Y-11010000I15000J0D01*
G01*
X17225000Y-11230000D02*
G75*
G02*
X17195000Y-11230000I-15000J0D01*
G01*
X17195000Y-11230000D02*
G75*
G02*
X17225000Y-11230000I15000J0D01*
G01*
X17235000Y-9480000D02*
G75*
G02*
X17205000Y-9480000I-15000J0D01*
G01*
X17205000Y-9480000D02*
G75*
G02*
X17235000Y-9480000I15000J0D01*
G01*
X17245000Y-9010000D02*
G75*
G02*
X17215000Y-9010000I-15000J0D01*
G01*
X17215000Y-9010000D02*
G75*
G02*
X17245000Y-9010000I15000J0D01*
G01*
X17255000Y-9100000D02*
G75*
G02*
X17225000Y-9100000I-15000J0D01*
G01*
X17225000Y-9100000D02*
G75*
G02*
X17255000Y-9100000I15000J0D01*
G01*
X17255000Y-9200000D02*
G75*
G02*
X17225000Y-9200000I-15000J0D01*
G01*
X17225000Y-9200000D02*
G75*
G02*
X17255000Y-9200000I15000J0D01*
G01*
X17265000Y-10020000D02*
G75*
G02*
X17235000Y-10020000I-15000J0D01*
G01*
X17235000Y-10020000D02*
G75*
G02*
X17265000Y-10020000I15000J0D01*
G01*
X17305000Y-9050000D02*
G75*
G02*
X17275000Y-9050000I-15000J0D01*
G01*
X17275000Y-9050000D02*
G75*
G02*
X17305000Y-9050000I15000J0D01*
G01*
X17305000Y-9150000D02*
G75*
G02*
X17275000Y-9150000I-15000J0D01*
G01*
X17275000Y-9150000D02*
G75*
G02*
X17305000Y-9150000I15000J0D01*
G01*
X17305000Y-9250000D02*
G75*
G02*
X17275000Y-9250000I-15000J0D01*
G01*
X17275000Y-9250000D02*
G75*
G02*
X17305000Y-9250000I15000J0D01*
G01*
X17305000Y-9480000D02*
G75*
G02*
X17275000Y-9480000I-15000J0D01*
G01*
X17275000Y-9480000D02*
G75*
G02*
X17305000Y-9480000I15000J0D01*
G01*
X17315000Y-10210000D02*
G75*
G02*
X17285000Y-10210000I-15000J0D01*
G01*
X17285000Y-10210000D02*
G75*
G02*
X17315000Y-10210000I15000J0D01*
G01*
X17345000Y-11230000D02*
G75*
G02*
X17315000Y-11230000I-15000J0D01*
G01*
X17315000Y-11230000D02*
G75*
G02*
X17345000Y-11230000I15000J0D01*
G01*
X17355000Y-9010000D02*
G75*
G02*
X17325000Y-9010000I-15000J0D01*
G01*
X17325000Y-9010000D02*
G75*
G02*
X17355000Y-9010000I15000J0D01*
G01*
X17355000Y-9100000D02*
G75*
G02*
X17325000Y-9100000I-15000J0D01*
G01*
X17325000Y-9100000D02*
G75*
G02*
X17355000Y-9100000I15000J0D01*
G01*
X17355000Y-9200000D02*
G75*
G02*
X17325000Y-9200000I-15000J0D01*
G01*
X17325000Y-9200000D02*
G75*
G02*
X17355000Y-9200000I15000J0D01*
G01*
X17355000Y-9730000D02*
G75*
G02*
X17325000Y-9730000I-15000J0D01*
G01*
X17325000Y-9730000D02*
G75*
G02*
X17355000Y-9730000I15000J0D01*
G01*
X17355000Y-11010000D02*
G75*
G02*
X17325000Y-11010000I-15000J0D01*
G01*
X17325000Y-11010000D02*
G75*
G02*
X17355000Y-11010000I15000J0D01*
G01*
X17375000Y-9480000D02*
G75*
G02*
X17345000Y-9480000I-15000J0D01*
G01*
X17345000Y-9480000D02*
G75*
G02*
X17375000Y-9480000I15000J0D01*
G01*
X17385000Y-10260000D02*
G75*
G02*
X17355000Y-10260000I-15000J0D01*
G01*
X17355000Y-10260000D02*
G75*
G02*
X17385000Y-10260000I15000J0D01*
G01*
X17465000Y-11230000D02*
G75*
G02*
X17435000Y-11230000I-15000J0D01*
G01*
X17435000Y-11230000D02*
G75*
G02*
X17465000Y-11230000I15000J0D01*
G01*
X17475000Y-11010000D02*
G75*
G02*
X17445000Y-11010000I-15000J0D01*
G01*
X17445000Y-11010000D02*
G75*
G02*
X17475000Y-11010000I15000J0D01*
G01*
X17495000Y-9910000D02*
G75*
G02*
X17465000Y-9910000I-15000J0D01*
G01*
X17465000Y-9910000D02*
G75*
G02*
X17495000Y-9910000I15000J0D01*
G01*
X17515000Y-9220000D02*
G75*
G02*
X17485000Y-9220000I-15000J0D01*
G01*
X17485000Y-9220000D02*
G75*
G02*
X17515000Y-9220000I15000J0D01*
G01*
X17515000Y-10050000D02*
G75*
G02*
X17485000Y-10050000I-15000J0D01*
G01*
X17485000Y-10050000D02*
G75*
G02*
X17515000Y-10050000I15000J0D01*
G01*
X17525000Y-10410000D02*
G75*
G02*
X17495000Y-10410000I-15000J0D01*
G01*
X17495000Y-10410000D02*
G75*
G02*
X17525000Y-10410000I15000J0D01*
G01*
X17545000Y-9580000D02*
G75*
G02*
X17515000Y-9580000I-15000J0D01*
G01*
X17515000Y-9580000D02*
G75*
G02*
X17545000Y-9580000I15000J0D01*
G01*
X17595000Y-11010000D02*
G75*
G02*
X17565000Y-11010000I-15000J0D01*
G01*
X17565000Y-11010000D02*
G75*
G02*
X17595000Y-11010000I15000J0D01*
G01*
X17595000Y-11230000D02*
G75*
G02*
X17565000Y-11230000I-15000J0D01*
G01*
X17565000Y-11230000D02*
G75*
G02*
X17595000Y-11230000I15000J0D01*
G01*
X17605000Y-10150000D02*
G75*
G02*
X17575000Y-10150000I-15000J0D01*
G01*
X17575000Y-10150000D02*
G75*
G02*
X17605000Y-10150000I15000J0D01*
G01*
X17645000Y-10490000D02*
G75*
G02*
X17615000Y-10490000I-15000J0D01*
G01*
X17615000Y-10490000D02*
G75*
G02*
X17645000Y-10490000I15000J0D01*
G01*
X17685000Y-9220000D02*
G75*
G02*
X17655000Y-9220000I-15000J0D01*
G01*
X17655000Y-9220000D02*
G75*
G02*
X17685000Y-9220000I15000J0D01*
G01*
X17685000Y-10230000D02*
G75*
G02*
X17655000Y-10230000I-15000J0D01*
G01*
X17655000Y-10230000D02*
G75*
G02*
X17685000Y-10230000I15000J0D01*
G01*
X17695000Y-10080000D02*
G75*
G02*
X17665000Y-10080000I-15000J0D01*
G01*
X17665000Y-10080000D02*
G75*
G02*
X17695000Y-10080000I15000J0D01*
G01*
X17715000Y-9000000D02*
G75*
G02*
X17685000Y-9000000I-15000J0D01*
G01*
X17685000Y-9000000D02*
G75*
G02*
X17715000Y-9000000I15000J0D01*
G01*
X17715000Y-11010000D02*
G75*
G02*
X17685000Y-11010000I-15000J0D01*
G01*
X17685000Y-11010000D02*
G75*
G02*
X17715000Y-11010000I15000J0D01*
G01*
X17715000Y-11230000D02*
G75*
G02*
X17685000Y-11230000I-15000J0D01*
G01*
X17685000Y-11230000D02*
G75*
G02*
X17715000Y-11230000I15000J0D01*
G01*
X17745000Y-9480000D02*
G75*
G02*
X17715000Y-9480000I-15000J0D01*
G01*
X17715000Y-9480000D02*
G75*
G02*
X17745000Y-9480000I15000J0D01*
G01*
X17755000Y-10490000D02*
G75*
G02*
X17725000Y-10490000I-15000J0D01*
G01*
X17725000Y-10490000D02*
G75*
G02*
X17755000Y-10490000I15000J0D01*
G01*
X17775000Y-10160000D02*
G75*
G02*
X17745000Y-10160000I-15000J0D01*
G01*
X17745000Y-10160000D02*
G75*
G02*
X17775000Y-10160000I15000J0D01*
G01*
X17825000Y-10280000D02*
G75*
G02*
X17795000Y-10280000I-15000J0D01*
G01*
X17795000Y-10280000D02*
G75*
G02*
X17825000Y-10280000I15000J0D01*
G01*
X17825000Y-11010000D02*
G75*
G02*
X17795000Y-11010000I-15000J0D01*
G01*
X17795000Y-11010000D02*
G75*
G02*
X17825000Y-11010000I15000J0D01*
G01*
X17825000Y-11230000D02*
G75*
G02*
X17795000Y-11230000I-15000J0D01*
G01*
X17795000Y-11230000D02*
G75*
G02*
X17825000Y-11230000I15000J0D01*
G01*
X17845000Y-9220000D02*
G75*
G02*
X17815000Y-9220000I-15000J0D01*
G01*
X17815000Y-9220000D02*
G75*
G02*
X17845000Y-9220000I15000J0D01*
G01*
X17845000Y-10060000D02*
G75*
G02*
X17815000Y-10060000I-15000J0D01*
G01*
X17815000Y-10060000D02*
G75*
G02*
X17845000Y-10060000I15000J0D01*
G01*
X17855000Y-9480000D02*
G75*
G02*
X17825000Y-9480000I-15000J0D01*
G01*
X17825000Y-9480000D02*
G75*
G02*
X17855000Y-9480000I15000J0D01*
G01*
X17895000Y-9830000D02*
G75*
G02*
X17865000Y-9830000I-15000J0D01*
G01*
X17865000Y-9830000D02*
G75*
G02*
X17895000Y-9830000I15000J0D01*
G01*
X17919622Y-10206302D02*
G75*
G02*
X17889622Y-10206302I-15000J0D01*
G01*
X17889622Y-10206302D02*
G75*
G02*
X17919622Y-10206302I15000J0D01*
G01*
X17945000Y-10490000D02*
G75*
G02*
X17915000Y-10490000I-15000J0D01*
G01*
X17915000Y-10490000D02*
G75*
G02*
X17945000Y-10490000I15000J0D01*
G01*
X17945000Y-11010000D02*
G75*
G02*
X17915000Y-11010000I-15000J0D01*
G01*
X17915000Y-11010000D02*
G75*
G02*
X17945000Y-11010000I15000J0D01*
G01*
X17945000Y-11230000D02*
G75*
G02*
X17915000Y-11230000I-15000J0D01*
G01*
X17915000Y-11230000D02*
G75*
G02*
X17945000Y-11230000I15000J0D01*
G01*
X17965000Y-9480000D02*
G75*
G02*
X17935000Y-9480000I-15000J0D01*
G01*
X17935000Y-9480000D02*
G75*
G02*
X17965000Y-9480000I15000J0D01*
G01*
X17975000Y-10290000D02*
G75*
G02*
X17945000Y-10290000I-15000J0D01*
G01*
X17945000Y-10290000D02*
G75*
G02*
X17975000Y-10290000I15000J0D01*
G01*
X17985000Y-9820000D02*
G75*
G02*
X17955000Y-9820000I-15000J0D01*
G01*
X17955000Y-9820000D02*
G75*
G02*
X17985000Y-9820000I15000J0D01*
G01*
X17985000Y-9900000D02*
G75*
G02*
X17955000Y-9900000I-15000J0D01*
G01*
X17955000Y-9900000D02*
G75*
G02*
X17985000Y-9900000I15000J0D01*
G01*
X17985000Y-9990000D02*
G75*
G02*
X17955000Y-9990000I-15000J0D01*
G01*
X17955000Y-9990000D02*
G75*
G02*
X17985000Y-9990000I15000J0D01*
G01*
X17995000Y-9220000D02*
G75*
G02*
X17965000Y-9220000I-15000J0D01*
G01*
X17965000Y-9220000D02*
G75*
G02*
X17995000Y-9220000I15000J0D01*
G01*
X18015000Y-9660000D02*
G75*
G02*
X17985000Y-9660000I-15000J0D01*
G01*
X17985000Y-9660000D02*
G75*
G02*
X18015000Y-9660000I15000J0D01*
G01*
X18075000Y-9480000D02*
G75*
G02*
X18045000Y-9480000I-15000J0D01*
G01*
X18045000Y-9480000D02*
G75*
G02*
X18075000Y-9480000I15000J0D01*
G01*
X18105000Y-10520000D02*
G75*
G02*
X18075000Y-10520000I-15000J0D01*
G01*
X18075000Y-10520000D02*
G75*
G02*
X18105000Y-10520000I15000J0D01*
G01*
X18105000Y-11230000D02*
G75*
G02*
X18075000Y-11230000I-15000J0D01*
G01*
X18075000Y-11230000D02*
G75*
G02*
X18105000Y-11230000I15000J0D01*
G01*
X18105000Y-11340000D02*
G75*
G02*
X18075000Y-11340000I-15000J0D01*
G01*
X18075000Y-11340000D02*
G75*
G02*
X18105000Y-11340000I15000J0D01*
G01*
X18115000Y-10120000D02*
G75*
G02*
X18085000Y-10120000I-15000J0D01*
G01*
X18085000Y-10120000D02*
G75*
G02*
X18115000Y-10120000I15000J0D01*
G01*
X18115000Y-10650000D02*
G75*
G02*
X18085000Y-10650000I-15000J0D01*
G01*
X18085000Y-10650000D02*
G75*
G02*
X18115000Y-10650000I15000J0D01*
G01*
X18115000Y-10760000D02*
G75*
G02*
X18085000Y-10760000I-15000J0D01*
G01*
X18085000Y-10760000D02*
G75*
G02*
X18115000Y-10760000I15000J0D01*
G01*
X18115000Y-10870000D02*
G75*
G02*
X18085000Y-10870000I-15000J0D01*
G01*
X18085000Y-10870000D02*
G75*
G02*
X18115000Y-10870000I15000J0D01*
G01*
X18115000Y-10980000D02*
G75*
G02*
X18085000Y-10980000I-15000J0D01*
G01*
X18085000Y-10980000D02*
G75*
G02*
X18115000Y-10980000I15000J0D01*
G01*
X18185000Y-10470000D02*
G75*
G02*
X18155000Y-10470000I-15000J0D01*
G01*
X18155000Y-10470000D02*
G75*
G02*
X18185000Y-10470000I15000J0D01*
G01*
X18205000Y-10350000D02*
G75*
G02*
X18175000Y-10350000I-15000J0D01*
G01*
X18175000Y-10350000D02*
G75*
G02*
X18205000Y-10350000I15000J0D01*
G01*
X18225000Y-9990000D02*
G75*
G02*
X18195000Y-9990000I-15000J0D01*
G01*
X18195000Y-9990000D02*
G75*
G02*
X18225000Y-9990000I15000J0D01*
G01*
X18225000Y-10240000D02*
G75*
G02*
X18195000Y-10240000I-15000J0D01*
G01*
X18195000Y-10240000D02*
G75*
G02*
X18225000Y-10240000I15000J0D01*
G01*
X18235000Y-9690000D02*
G75*
G02*
X18205000Y-9690000I-15000J0D01*
G01*
X18205000Y-9690000D02*
G75*
G02*
X18235000Y-9690000I15000J0D01*
G01*
X18235000Y-9790000D02*
G75*
G02*
X18205000Y-9790000I-15000J0D01*
G01*
X18205000Y-9790000D02*
G75*
G02*
X18235000Y-9790000I15000J0D01*
G01*
X18235000Y-9900000D02*
G75*
G02*
X18205000Y-9900000I-15000J0D01*
G01*
X18205000Y-9900000D02*
G75*
G02*
X18235000Y-9900000I15000J0D01*
G01*
X18295000Y-9210000D02*
G75*
G02*
X18265000Y-9210000I-15000J0D01*
G01*
X18265000Y-9210000D02*
G75*
G02*
X18295000Y-9210000I15000J0D01*
G01*
X18295000Y-9290000D02*
G75*
G02*
X18265000Y-9290000I-15000J0D01*
G01*
X18265000Y-9290000D02*
G75*
G02*
X18295000Y-9290000I15000J0D01*
G01*
X18305000Y-10230000D02*
G75*
G02*
X18275000Y-10230000I-15000J0D01*
G01*
X18275000Y-10230000D02*
G75*
G02*
X18305000Y-10230000I15000J0D01*
G01*
X18315000Y-10000000D02*
G75*
G02*
X18285000Y-10000000I-15000J0D01*
G01*
X18285000Y-10000000D02*
G75*
G02*
X18315000Y-10000000I15000J0D01*
G01*
X18315000Y-10470000D02*
G75*
G02*
X18285000Y-10470000I-15000J0D01*
G01*
X18285000Y-10470000D02*
G75*
G02*
X18315000Y-10470000I15000J0D01*
G01*
X18385000Y-9690000D02*
G75*
G02*
X18355000Y-9690000I-15000J0D01*
G01*
X18355000Y-9690000D02*
G75*
G02*
X18385000Y-9690000I15000J0D01*
G01*
X18435000Y-9300000D02*
G75*
G02*
X18405000Y-9300000I-15000J0D01*
G01*
X18405000Y-9300000D02*
G75*
G02*
X18435000Y-9300000I15000J0D01*
G01*
X18435000Y-10230000D02*
G75*
G02*
X18405000Y-10230000I-15000J0D01*
G01*
X18405000Y-10230000D02*
G75*
G02*
X18435000Y-10230000I15000J0D01*
G01*
X18435000Y-10470000D02*
G75*
G02*
X18405000Y-10470000I-15000J0D01*
G01*
X18405000Y-10470000D02*
G75*
G02*
X18435000Y-10470000I15000J0D01*
G01*
X18445000Y-10000000D02*
G75*
G02*
X18415000Y-10000000I-15000J0D01*
G01*
X18415000Y-10000000D02*
G75*
G02*
X18445000Y-10000000I15000J0D01*
G01*
X18525000Y-9690000D02*
G75*
G02*
X18495000Y-9690000I-15000J0D01*
G01*
X18495000Y-9690000D02*
G75*
G02*
X18525000Y-9690000I15000J0D01*
G01*
X18555000Y-9430000D02*
G75*
G02*
X18525000Y-9430000I-15000J0D01*
G01*
X18525000Y-9430000D02*
G75*
G02*
X18555000Y-9430000I15000J0D01*
G01*
X18555000Y-9560000D02*
G75*
G02*
X18525000Y-9560000I-15000J0D01*
G01*
X18525000Y-9560000D02*
G75*
G02*
X18555000Y-9560000I15000J0D01*
G01*
X18555000Y-10470000D02*
G75*
G02*
X18525000Y-10470000I-15000J0D01*
G01*
X18525000Y-10470000D02*
G75*
G02*
X18555000Y-10470000I15000J0D01*
G01*
X18575000Y-10000000D02*
G75*
G02*
X18545000Y-10000000I-15000J0D01*
G01*
X18545000Y-10000000D02*
G75*
G02*
X18575000Y-10000000I15000J0D01*
G01*
X18575000Y-10230000D02*
G75*
G02*
X18545000Y-10230000I-15000J0D01*
G01*
X18545000Y-10230000D02*
G75*
G02*
X18575000Y-10230000I15000J0D01*
G01*
X18665000Y-9690000D02*
G75*
G02*
X18635000Y-9690000I-15000J0D01*
G01*
X18635000Y-9690000D02*
G75*
G02*
X18665000Y-9690000I15000J0D01*
G01*
X18665000Y-10470000D02*
G75*
G02*
X18635000Y-10470000I-15000J0D01*
G01*
X18635000Y-10470000D02*
G75*
G02*
X18665000Y-10470000I15000J0D01*
G01*
X18705000Y-9430000D02*
G75*
G02*
X18675000Y-9430000I-15000J0D01*
G01*
X18675000Y-9430000D02*
G75*
G02*
X18705000Y-9430000I15000J0D01*
G01*
X18775000Y-10470000D02*
G75*
G02*
X18745000Y-10470000I-15000J0D01*
G01*
X18745000Y-10470000D02*
G75*
G02*
X18775000Y-10470000I15000J0D01*
G01*
X18815000Y-9690000D02*
G75*
G02*
X18785000Y-9690000I-15000J0D01*
G01*
X18785000Y-9690000D02*
G75*
G02*
X18815000Y-9690000I15000J0D01*
G01*
X18885000Y-10470000D02*
G75*
G02*
X18855000Y-10470000I-15000J0D01*
G01*
X18855000Y-10470000D02*
G75*
G02*
X18885000Y-10470000I15000J0D01*
G01*
X18985000Y-9690000D02*
G75*
G02*
X18955000Y-9690000I-15000J0D01*
G01*
X18955000Y-9690000D02*
G75*
G02*
X18985000Y-9690000I15000J0D01*
G01*
X18995000Y-10470000D02*
G75*
G02*
X18965000Y-10470000I-15000J0D01*
G01*
X18965000Y-10470000D02*
G75*
G02*
X18995000Y-10470000I15000J0D01*
G01*
X19095000Y-10470000D02*
G75*
G02*
X19065000Y-10470000I-15000J0D01*
G01*
X19065000Y-10470000D02*
G75*
G02*
X19095000Y-10470000I15000J0D01*
G01*
X19115000Y-9000000D02*
G75*
G02*
X19085000Y-9000000I-15000J0D01*
G01*
X19085000Y-9000000D02*
G75*
G02*
X19115000Y-9000000I15000J0D01*
G01*
X19115000Y-9300000D02*
G75*
G02*
X19085000Y-9300000I-15000J0D01*
G01*
X19085000Y-9300000D02*
G75*
G02*
X19115000Y-9300000I15000J0D01*
G01*
X19115000Y-9600000D02*
G75*
G02*
X19085000Y-9600000I-15000J0D01*
G01*
X19085000Y-9600000D02*
G75*
G02*
X19115000Y-9600000I15000J0D01*
G01*
X10410000Y-9220000D02*
X10410000Y-9320000D01*
X10360000Y-9270000D02*
X10460000Y-9270000D01*
X10410000Y-10940000D02*
X10410000Y-11040000D01*
X10360000Y-10990000D02*
X10460000Y-10990000D01*
D12*
X10370277Y-11701984D02*
X10370277Y-11501984D01*
X10370277Y-11501984D02*
X10417896Y-11501984D01*
X10417896Y-11501984D02*
X10446467Y-11511508D01*
X10446467Y-11511508D02*
X10465515Y-11530555D01*
X10465515Y-11530555D02*
X10475039Y-11549603D01*
X10475039Y-11549603D02*
X10484563Y-11587698D01*
X10484563Y-11587698D02*
X10484563Y-11616269D01*
X10484563Y-11616269D02*
X10475039Y-11654365D01*
X10475039Y-11654365D02*
X10465515Y-11673412D01*
X10465515Y-11673412D02*
X10446467Y-11692460D01*
X10446467Y-11692460D02*
X10417896Y-11701984D01*
X10417896Y-11701984D02*
X10370277Y-11701984D01*
X10570277Y-11701984D02*
X10570277Y-11568650D01*
X10570277Y-11606746D02*
X10579801Y-11587698D01*
X10579801Y-11587698D02*
X10589324Y-11578174D01*
X10589324Y-11578174D02*
X10608372Y-11568650D01*
X10608372Y-11568650D02*
X10627420Y-11568650D01*
X10694086Y-11701984D02*
X10694086Y-11568650D01*
X10694086Y-11501984D02*
X10684563Y-11511508D01*
X10684563Y-11511508D02*
X10694086Y-11521031D01*
X10694086Y-11521031D02*
X10703610Y-11511508D01*
X10703610Y-11511508D02*
X10694086Y-11501984D01*
X10694086Y-11501984D02*
X10694086Y-11521031D01*
X10817896Y-11701984D02*
X10798848Y-11692460D01*
X10798848Y-11692460D02*
X10789324Y-11673412D01*
X10789324Y-11673412D02*
X10789324Y-11501984D01*
X10922658Y-11701984D02*
X10903610Y-11692460D01*
X10903610Y-11692460D02*
X10894086Y-11673412D01*
X10894086Y-11673412D02*
X10894086Y-11501984D01*
X11151229Y-11701984D02*
X11151229Y-11501984D01*
X11151229Y-11501984D02*
X11217896Y-11644841D01*
X11217896Y-11644841D02*
X11284562Y-11501984D01*
X11284562Y-11501984D02*
X11284562Y-11701984D01*
X11465515Y-11701984D02*
X11465515Y-11597222D01*
X11465515Y-11597222D02*
X11455991Y-11578174D01*
X11455991Y-11578174D02*
X11436943Y-11568650D01*
X11436943Y-11568650D02*
X11398848Y-11568650D01*
X11398848Y-11568650D02*
X11379801Y-11578174D01*
X11465515Y-11692460D02*
X11446467Y-11701984D01*
X11446467Y-11701984D02*
X11398848Y-11701984D01*
X11398848Y-11701984D02*
X11379801Y-11692460D01*
X11379801Y-11692460D02*
X11370277Y-11673412D01*
X11370277Y-11673412D02*
X11370277Y-11654365D01*
X11370277Y-11654365D02*
X11379801Y-11635317D01*
X11379801Y-11635317D02*
X11398848Y-11625793D01*
X11398848Y-11625793D02*
X11446467Y-11625793D01*
X11446467Y-11625793D02*
X11465515Y-11616269D01*
X11560753Y-11568650D02*
X11560753Y-11768650D01*
X11560753Y-11578174D02*
X11579801Y-11568650D01*
X11579801Y-11568650D02*
X11617896Y-11568650D01*
X11617896Y-11568650D02*
X11636943Y-11578174D01*
X11636943Y-11578174D02*
X11646467Y-11587698D01*
X11646467Y-11587698D02*
X11655991Y-11606746D01*
X11655991Y-11606746D02*
X11655991Y-11663888D01*
X11655991Y-11663888D02*
X11646467Y-11682936D01*
X11646467Y-11682936D02*
X11636943Y-11692460D01*
X11636943Y-11692460D02*
X11617896Y-11701984D01*
X11617896Y-11701984D02*
X11579801Y-11701984D01*
X11579801Y-11701984D02*
X11560753Y-11692460D01*
X11741705Y-11682936D02*
X11751229Y-11692460D01*
X11751229Y-11692460D02*
X11741705Y-11701984D01*
X11741705Y-11701984D02*
X11732182Y-11692460D01*
X11732182Y-11692460D02*
X11741705Y-11682936D01*
X11741705Y-11682936D02*
X11741705Y-11701984D01*
X11741705Y-11578174D02*
X11751229Y-11587698D01*
X11751229Y-11587698D02*
X11741705Y-11597222D01*
X11741705Y-11597222D02*
X11732182Y-11587698D01*
X11732182Y-11587698D02*
X11741705Y-11578174D01*
X11741705Y-11578174D02*
X11741705Y-11597222D01*
D11*
X10089500Y-12020500D02*
X10109500Y-12040500D01*
X10109500Y-12020500D02*
X10089500Y-12040500D01*
D12*
X10408372Y-11921984D02*
X10427420Y-11921984D01*
X10427420Y-11921984D02*
X10446467Y-11931508D01*
X10446467Y-11931508D02*
X10455991Y-11941031D01*
X10455991Y-11941031D02*
X10465515Y-11960079D01*
X10465515Y-11960079D02*
X10475039Y-11998174D01*
X10475039Y-11998174D02*
X10475039Y-12045793D01*
X10475039Y-12045793D02*
X10465515Y-12083888D01*
X10465515Y-12083888D02*
X10455991Y-12102936D01*
X10455991Y-12102936D02*
X10446467Y-12112460D01*
X10446467Y-12112460D02*
X10427420Y-12121984D01*
X10427420Y-12121984D02*
X10408372Y-12121984D01*
X10408372Y-12121984D02*
X10389324Y-12112460D01*
X10389324Y-12112460D02*
X10379801Y-12102936D01*
X10379801Y-12102936D02*
X10370277Y-12083888D01*
X10370277Y-12083888D02*
X10360753Y-12045793D01*
X10360753Y-12045793D02*
X10360753Y-11998174D01*
X10360753Y-11998174D02*
X10370277Y-11960079D01*
X10370277Y-11960079D02*
X10379801Y-11941031D01*
X10379801Y-11941031D02*
X10389324Y-11931508D01*
X10389324Y-11931508D02*
X10408372Y-11921984D01*
X10560753Y-12102936D02*
X10570277Y-12112460D01*
X10570277Y-12112460D02*
X10560753Y-12121984D01*
X10560753Y-12121984D02*
X10551229Y-12112460D01*
X10551229Y-12112460D02*
X10560753Y-12102936D01*
X10560753Y-12102936D02*
X10560753Y-12121984D01*
X10646467Y-11941031D02*
X10655991Y-11931508D01*
X10655991Y-11931508D02*
X10675039Y-11921984D01*
X10675039Y-11921984D02*
X10722658Y-11921984D01*
X10722658Y-11921984D02*
X10741705Y-11931508D01*
X10741705Y-11931508D02*
X10751229Y-11941031D01*
X10751229Y-11941031D02*
X10760753Y-11960079D01*
X10760753Y-11960079D02*
X10760753Y-11979127D01*
X10760753Y-11979127D02*
X10751229Y-12007698D01*
X10751229Y-12007698D02*
X10636944Y-12121984D01*
X10636944Y-12121984D02*
X10760753Y-12121984D01*
X10884563Y-11921984D02*
X10903610Y-11921984D01*
X10903610Y-11921984D02*
X10922658Y-11931508D01*
X10922658Y-11931508D02*
X10932182Y-11941031D01*
X10932182Y-11941031D02*
X10941705Y-11960079D01*
X10941705Y-11960079D02*
X10951229Y-11998174D01*
X10951229Y-11998174D02*
X10951229Y-12045793D01*
X10951229Y-12045793D02*
X10941705Y-12083888D01*
X10941705Y-12083888D02*
X10932182Y-12102936D01*
X10932182Y-12102936D02*
X10922658Y-12112460D01*
X10922658Y-12112460D02*
X10903610Y-12121984D01*
X10903610Y-12121984D02*
X10884563Y-12121984D01*
X10884563Y-12121984D02*
X10865515Y-12112460D01*
X10865515Y-12112460D02*
X10855991Y-12102936D01*
X10855991Y-12102936D02*
X10846467Y-12083888D01*
X10846467Y-12083888D02*
X10836944Y-12045793D01*
X10836944Y-12045793D02*
X10836944Y-11998174D01*
X10836944Y-11998174D02*
X10846467Y-11960079D01*
X10846467Y-11960079D02*
X10855991Y-11941031D01*
X10855991Y-11941031D02*
X10865515Y-11931508D01*
X10865515Y-11931508D02*
X10884563Y-11921984D01*
X11075039Y-11921984D02*
X11094086Y-11921984D01*
X11094086Y-11921984D02*
X11113134Y-11931508D01*
X11113134Y-11931508D02*
X11122658Y-11941031D01*
X11122658Y-11941031D02*
X11132182Y-11960079D01*
X11132182Y-11960079D02*
X11141705Y-11998174D01*
X11141705Y-11998174D02*
X11141705Y-12045793D01*
X11141705Y-12045793D02*
X11132182Y-12083888D01*
X11132182Y-12083888D02*
X11122658Y-12102936D01*
X11122658Y-12102936D02*
X11113134Y-12112460D01*
X11113134Y-12112460D02*
X11094086Y-12121984D01*
X11094086Y-12121984D02*
X11075039Y-12121984D01*
X11075039Y-12121984D02*
X11055991Y-12112460D01*
X11055991Y-12112460D02*
X11046467Y-12102936D01*
X11046467Y-12102936D02*
X11036944Y-12083888D01*
X11036944Y-12083888D02*
X11027420Y-12045793D01*
X11027420Y-12045793D02*
X11027420Y-11998174D01*
X11027420Y-11998174D02*
X11036944Y-11960079D01*
X11036944Y-11960079D02*
X11046467Y-11941031D01*
X11046467Y-11941031D02*
X11055991Y-11931508D01*
X11055991Y-11931508D02*
X11075039Y-11921984D01*
X11227420Y-12121984D02*
X11227420Y-11988650D01*
X11227420Y-12007698D02*
X11236943Y-11998174D01*
X11236943Y-11998174D02*
X11255991Y-11988650D01*
X11255991Y-11988650D02*
X11284563Y-11988650D01*
X11284563Y-11988650D02*
X11303610Y-11998174D01*
X11303610Y-11998174D02*
X11313134Y-12017222D01*
X11313134Y-12017222D02*
X11313134Y-12121984D01*
X11313134Y-12017222D02*
X11322658Y-11998174D01*
X11322658Y-11998174D02*
X11341705Y-11988650D01*
X11341705Y-11988650D02*
X11370277Y-11988650D01*
X11370277Y-11988650D02*
X11389324Y-11998174D01*
X11389324Y-11998174D02*
X11398848Y-12017222D01*
X11398848Y-12017222D02*
X11398848Y-12121984D01*
X11494086Y-12121984D02*
X11494086Y-11988650D01*
X11494086Y-12007698D02*
X11503610Y-11998174D01*
X11503610Y-11998174D02*
X11522658Y-11988650D01*
X11522658Y-11988650D02*
X11551229Y-11988650D01*
X11551229Y-11988650D02*
X11570277Y-11998174D01*
X11570277Y-11998174D02*
X11579801Y-12017222D01*
X11579801Y-12017222D02*
X11579801Y-12121984D01*
X11579801Y-12017222D02*
X11589324Y-11998174D01*
X11589324Y-11998174D02*
X11608372Y-11988650D01*
X11608372Y-11988650D02*
X11636943Y-11988650D01*
X11636943Y-11988650D02*
X11655991Y-11998174D01*
X11655991Y-11998174D02*
X11665515Y-12017222D01*
X11665515Y-12017222D02*
X11665515Y-12121984D01*
X12055991Y-11912460D02*
X11884563Y-12169603D01*
X12313134Y-11921984D02*
X12332182Y-11921984D01*
X12332182Y-11921984D02*
X12351229Y-11931508D01*
X12351229Y-11931508D02*
X12360753Y-11941031D01*
X12360753Y-11941031D02*
X12370277Y-11960079D01*
X12370277Y-11960079D02*
X12379801Y-11998174D01*
X12379801Y-11998174D02*
X12379801Y-12045793D01*
X12379801Y-12045793D02*
X12370277Y-12083888D01*
X12370277Y-12083888D02*
X12360753Y-12102936D01*
X12360753Y-12102936D02*
X12351229Y-12112460D01*
X12351229Y-12112460D02*
X12332182Y-12121984D01*
X12332182Y-12121984D02*
X12313134Y-12121984D01*
X12313134Y-12121984D02*
X12294086Y-12112460D01*
X12294086Y-12112460D02*
X12284563Y-12102936D01*
X12284563Y-12102936D02*
X12275039Y-12083888D01*
X12275039Y-12083888D02*
X12265515Y-12045793D01*
X12265515Y-12045793D02*
X12265515Y-11998174D01*
X12265515Y-11998174D02*
X12275039Y-11960079D01*
X12275039Y-11960079D02*
X12284563Y-11941031D01*
X12284563Y-11941031D02*
X12294086Y-11931508D01*
X12294086Y-11931508D02*
X12313134Y-11921984D01*
X12465515Y-12102936D02*
X12475039Y-12112460D01*
X12475039Y-12112460D02*
X12465515Y-12121984D01*
X12465515Y-12121984D02*
X12455991Y-12112460D01*
X12455991Y-12112460D02*
X12465515Y-12102936D01*
X12465515Y-12102936D02*
X12465515Y-12121984D01*
X12598848Y-11921984D02*
X12617896Y-11921984D01*
X12617896Y-11921984D02*
X12636944Y-11931508D01*
X12636944Y-11931508D02*
X12646467Y-11941031D01*
X12646467Y-11941031D02*
X12655991Y-11960079D01*
X12655991Y-11960079D02*
X12665515Y-11998174D01*
X12665515Y-11998174D02*
X12665515Y-12045793D01*
X12665515Y-12045793D02*
X12655991Y-12083888D01*
X12655991Y-12083888D02*
X12646467Y-12102936D01*
X12646467Y-12102936D02*
X12636944Y-12112460D01*
X12636944Y-12112460D02*
X12617896Y-12121984D01*
X12617896Y-12121984D02*
X12598848Y-12121984D01*
X12598848Y-12121984D02*
X12579801Y-12112460D01*
X12579801Y-12112460D02*
X12570277Y-12102936D01*
X12570277Y-12102936D02*
X12560753Y-12083888D01*
X12560753Y-12083888D02*
X12551229Y-12045793D01*
X12551229Y-12045793D02*
X12551229Y-11998174D01*
X12551229Y-11998174D02*
X12560753Y-11960079D01*
X12560753Y-11960079D02*
X12570277Y-11941031D01*
X12570277Y-11941031D02*
X12579801Y-11931508D01*
X12579801Y-11931508D02*
X12598848Y-11921984D01*
X12789325Y-11921984D02*
X12808372Y-11921984D01*
X12808372Y-11921984D02*
X12827420Y-11931508D01*
X12827420Y-11931508D02*
X12836944Y-11941031D01*
X12836944Y-11941031D02*
X12846467Y-11960079D01*
X12846467Y-11960079D02*
X12855991Y-11998174D01*
X12855991Y-11998174D02*
X12855991Y-12045793D01*
X12855991Y-12045793D02*
X12846467Y-12083888D01*
X12846467Y-12083888D02*
X12836944Y-12102936D01*
X12836944Y-12102936D02*
X12827420Y-12112460D01*
X12827420Y-12112460D02*
X12808372Y-12121984D01*
X12808372Y-12121984D02*
X12789325Y-12121984D01*
X12789325Y-12121984D02*
X12770277Y-12112460D01*
X12770277Y-12112460D02*
X12760753Y-12102936D01*
X12760753Y-12102936D02*
X12751229Y-12083888D01*
X12751229Y-12083888D02*
X12741706Y-12045793D01*
X12741706Y-12045793D02*
X12741706Y-11998174D01*
X12741706Y-11998174D02*
X12751229Y-11960079D01*
X12751229Y-11960079D02*
X12760753Y-11941031D01*
X12760753Y-11941031D02*
X12770277Y-11931508D01*
X12770277Y-11931508D02*
X12789325Y-11921984D01*
X12922658Y-11921984D02*
X13055991Y-11921984D01*
X13055991Y-11921984D02*
X12970277Y-12121984D01*
X13141706Y-12121984D02*
X13179801Y-12121984D01*
X13179801Y-12121984D02*
X13198848Y-12112460D01*
X13198848Y-12112460D02*
X13208372Y-12102936D01*
X13208372Y-12102936D02*
X13227420Y-12074365D01*
X13227420Y-12074365D02*
X13236944Y-12036269D01*
X13236944Y-12036269D02*
X13236944Y-11960079D01*
X13236944Y-11960079D02*
X13227420Y-11941031D01*
X13227420Y-11941031D02*
X13217896Y-11931508D01*
X13217896Y-11931508D02*
X13198848Y-11921984D01*
X13198848Y-11921984D02*
X13160753Y-11921984D01*
X13160753Y-11921984D02*
X13141706Y-11931508D01*
X13141706Y-11931508D02*
X13132182Y-11941031D01*
X13132182Y-11941031D02*
X13122658Y-11960079D01*
X13122658Y-11960079D02*
X13122658Y-12007698D01*
X13122658Y-12007698D02*
X13132182Y-12026746D01*
X13132182Y-12026746D02*
X13141706Y-12036269D01*
X13141706Y-12036269D02*
X13160753Y-12045793D01*
X13160753Y-12045793D02*
X13198848Y-12045793D01*
X13198848Y-12045793D02*
X13217896Y-12036269D01*
X13217896Y-12036269D02*
X13227420Y-12026746D01*
X13227420Y-12026746D02*
X13236944Y-12007698D01*
X13313134Y-11921984D02*
X13313134Y-11960079D01*
X13389325Y-11921984D02*
X13389325Y-11960079D01*
X13684563Y-12198174D02*
X13675039Y-12188650D01*
X13675039Y-12188650D02*
X13655991Y-12160079D01*
X13655991Y-12160079D02*
X13646468Y-12141031D01*
X13646468Y-12141031D02*
X13636944Y-12112460D01*
X13636944Y-12112460D02*
X13627420Y-12064841D01*
X13627420Y-12064841D02*
X13627420Y-12026746D01*
X13627420Y-12026746D02*
X13636944Y-11979127D01*
X13636944Y-11979127D02*
X13646468Y-11950555D01*
X13646468Y-11950555D02*
X13655991Y-11931508D01*
X13655991Y-11931508D02*
X13675039Y-11902936D01*
X13675039Y-11902936D02*
X13684563Y-11893412D01*
X13789325Y-12007698D02*
X13770277Y-11998174D01*
X13770277Y-11998174D02*
X13760753Y-11988650D01*
X13760753Y-11988650D02*
X13751229Y-11969603D01*
X13751229Y-11969603D02*
X13751229Y-11960079D01*
X13751229Y-11960079D02*
X13760753Y-11941031D01*
X13760753Y-11941031D02*
X13770277Y-11931508D01*
X13770277Y-11931508D02*
X13789325Y-11921984D01*
X13789325Y-11921984D02*
X13827420Y-11921984D01*
X13827420Y-11921984D02*
X13846468Y-11931508D01*
X13846468Y-11931508D02*
X13855991Y-11941031D01*
X13855991Y-11941031D02*
X13865515Y-11960079D01*
X13865515Y-11960079D02*
X13865515Y-11969603D01*
X13865515Y-11969603D02*
X13855991Y-11988650D01*
X13855991Y-11988650D02*
X13846468Y-11998174D01*
X13846468Y-11998174D02*
X13827420Y-12007698D01*
X13827420Y-12007698D02*
X13789325Y-12007698D01*
X13789325Y-12007698D02*
X13770277Y-12017222D01*
X13770277Y-12017222D02*
X13760753Y-12026746D01*
X13760753Y-12026746D02*
X13751229Y-12045793D01*
X13751229Y-12045793D02*
X13751229Y-12083888D01*
X13751229Y-12083888D02*
X13760753Y-12102936D01*
X13760753Y-12102936D02*
X13770277Y-12112460D01*
X13770277Y-12112460D02*
X13789325Y-12121984D01*
X13789325Y-12121984D02*
X13827420Y-12121984D01*
X13827420Y-12121984D02*
X13846468Y-12112460D01*
X13846468Y-12112460D02*
X13855991Y-12102936D01*
X13855991Y-12102936D02*
X13865515Y-12083888D01*
X13865515Y-12083888D02*
X13865515Y-12045793D01*
X13865515Y-12045793D02*
X13855991Y-12026746D01*
X13855991Y-12026746D02*
X13846468Y-12017222D01*
X13846468Y-12017222D02*
X13827420Y-12007698D01*
X14103610Y-12121984D02*
X14103610Y-11921984D01*
X14189325Y-12121984D02*
X14189325Y-12017222D01*
X14189325Y-12017222D02*
X14179801Y-11998174D01*
X14179801Y-11998174D02*
X14160753Y-11988650D01*
X14160753Y-11988650D02*
X14132182Y-11988650D01*
X14132182Y-11988650D02*
X14113134Y-11998174D01*
X14113134Y-11998174D02*
X14103610Y-12007698D01*
X14313134Y-12121984D02*
X14294087Y-12112460D01*
X14294087Y-12112460D02*
X14284563Y-12102936D01*
X14284563Y-12102936D02*
X14275039Y-12083888D01*
X14275039Y-12083888D02*
X14275039Y-12026746D01*
X14275039Y-12026746D02*
X14284563Y-12007698D01*
X14284563Y-12007698D02*
X14294087Y-11998174D01*
X14294087Y-11998174D02*
X14313134Y-11988650D01*
X14313134Y-11988650D02*
X14341706Y-11988650D01*
X14341706Y-11988650D02*
X14360753Y-11998174D01*
X14360753Y-11998174D02*
X14370277Y-12007698D01*
X14370277Y-12007698D02*
X14379801Y-12026746D01*
X14379801Y-12026746D02*
X14379801Y-12083888D01*
X14379801Y-12083888D02*
X14370277Y-12102936D01*
X14370277Y-12102936D02*
X14360753Y-12112460D01*
X14360753Y-12112460D02*
X14341706Y-12121984D01*
X14341706Y-12121984D02*
X14313134Y-12121984D01*
X14494087Y-12121984D02*
X14475039Y-12112460D01*
X14475039Y-12112460D02*
X14465515Y-12093412D01*
X14465515Y-12093412D02*
X14465515Y-11921984D01*
X14646468Y-12112460D02*
X14627420Y-12121984D01*
X14627420Y-12121984D02*
X14589325Y-12121984D01*
X14589325Y-12121984D02*
X14570277Y-12112460D01*
X14570277Y-12112460D02*
X14560753Y-12093412D01*
X14560753Y-12093412D02*
X14560753Y-12017222D01*
X14560753Y-12017222D02*
X14570277Y-11998174D01*
X14570277Y-11998174D02*
X14589325Y-11988650D01*
X14589325Y-11988650D02*
X14627420Y-11988650D01*
X14627420Y-11988650D02*
X14646468Y-11998174D01*
X14646468Y-11998174D02*
X14655991Y-12017222D01*
X14655991Y-12017222D02*
X14655991Y-12036269D01*
X14655991Y-12036269D02*
X14560753Y-12055317D01*
X14732182Y-12112460D02*
X14751230Y-12121984D01*
X14751230Y-12121984D02*
X14789325Y-12121984D01*
X14789325Y-12121984D02*
X14808372Y-12112460D01*
X14808372Y-12112460D02*
X14817896Y-12093412D01*
X14817896Y-12093412D02*
X14817896Y-12083888D01*
X14817896Y-12083888D02*
X14808372Y-12064841D01*
X14808372Y-12064841D02*
X14789325Y-12055317D01*
X14789325Y-12055317D02*
X14760753Y-12055317D01*
X14760753Y-12055317D02*
X14741706Y-12045793D01*
X14741706Y-12045793D02*
X14732182Y-12026746D01*
X14732182Y-12026746D02*
X14732182Y-12017222D01*
X14732182Y-12017222D02*
X14741706Y-11998174D01*
X14741706Y-11998174D02*
X14760753Y-11988650D01*
X14760753Y-11988650D02*
X14789325Y-11988650D01*
X14789325Y-11988650D02*
X14808372Y-11998174D01*
X14884563Y-12198174D02*
X14894087Y-12188650D01*
X14894087Y-12188650D02*
X14913134Y-12160079D01*
X14913134Y-12160079D02*
X14922658Y-12141031D01*
X14922658Y-12141031D02*
X14932182Y-12112460D01*
X14932182Y-12112460D02*
X14941706Y-12064841D01*
X14941706Y-12064841D02*
X14941706Y-12026746D01*
X14941706Y-12026746D02*
X14932182Y-11979127D01*
X14932182Y-11979127D02*
X14922658Y-11950555D01*
X14922658Y-11950555D02*
X14913134Y-11931508D01*
X14913134Y-11931508D02*
X14894087Y-11902936D01*
X14894087Y-11902936D02*
X14884563Y-11893412D01*
D11*
X10109500Y-12294500D02*
G75*
G02*
X10079500Y-12294500I-15000J0D01*
G01*
X10079500Y-12294500D02*
G75*
G02*
X10109500Y-12294500I15000J0D01*
G01*
D12*
X10408372Y-12185984D02*
X10427420Y-12185984D01*
X10427420Y-12185984D02*
X10446467Y-12195508D01*
X10446467Y-12195508D02*
X10455991Y-12205031D01*
X10455991Y-12205031D02*
X10465515Y-12224079D01*
X10465515Y-12224079D02*
X10475039Y-12262174D01*
X10475039Y-12262174D02*
X10475039Y-12309793D01*
X10475039Y-12309793D02*
X10465515Y-12347888D01*
X10465515Y-12347888D02*
X10455991Y-12366936D01*
X10455991Y-12366936D02*
X10446467Y-12376460D01*
X10446467Y-12376460D02*
X10427420Y-12385984D01*
X10427420Y-12385984D02*
X10408372Y-12385984D01*
X10408372Y-12385984D02*
X10389324Y-12376460D01*
X10389324Y-12376460D02*
X10379801Y-12366936D01*
X10379801Y-12366936D02*
X10370277Y-12347888D01*
X10370277Y-12347888D02*
X10360753Y-12309793D01*
X10360753Y-12309793D02*
X10360753Y-12262174D01*
X10360753Y-12262174D02*
X10370277Y-12224079D01*
X10370277Y-12224079D02*
X10379801Y-12205031D01*
X10379801Y-12205031D02*
X10389324Y-12195508D01*
X10389324Y-12195508D02*
X10408372Y-12185984D01*
X10560753Y-12366936D02*
X10570277Y-12376460D01*
X10570277Y-12376460D02*
X10560753Y-12385984D01*
X10560753Y-12385984D02*
X10551229Y-12376460D01*
X10551229Y-12376460D02*
X10560753Y-12366936D01*
X10560753Y-12366936D02*
X10560753Y-12385984D01*
X10636944Y-12185984D02*
X10760753Y-12185984D01*
X10760753Y-12185984D02*
X10694086Y-12262174D01*
X10694086Y-12262174D02*
X10722658Y-12262174D01*
X10722658Y-12262174D02*
X10741705Y-12271698D01*
X10741705Y-12271698D02*
X10751229Y-12281222D01*
X10751229Y-12281222D02*
X10760753Y-12300269D01*
X10760753Y-12300269D02*
X10760753Y-12347888D01*
X10760753Y-12347888D02*
X10751229Y-12366936D01*
X10751229Y-12366936D02*
X10741705Y-12376460D01*
X10741705Y-12376460D02*
X10722658Y-12385984D01*
X10722658Y-12385984D02*
X10665515Y-12385984D01*
X10665515Y-12385984D02*
X10646467Y-12376460D01*
X10646467Y-12376460D02*
X10636944Y-12366936D01*
X10884563Y-12185984D02*
X10903610Y-12185984D01*
X10903610Y-12185984D02*
X10922658Y-12195508D01*
X10922658Y-12195508D02*
X10932182Y-12205031D01*
X10932182Y-12205031D02*
X10941705Y-12224079D01*
X10941705Y-12224079D02*
X10951229Y-12262174D01*
X10951229Y-12262174D02*
X10951229Y-12309793D01*
X10951229Y-12309793D02*
X10941705Y-12347888D01*
X10941705Y-12347888D02*
X10932182Y-12366936D01*
X10932182Y-12366936D02*
X10922658Y-12376460D01*
X10922658Y-12376460D02*
X10903610Y-12385984D01*
X10903610Y-12385984D02*
X10884563Y-12385984D01*
X10884563Y-12385984D02*
X10865515Y-12376460D01*
X10865515Y-12376460D02*
X10855991Y-12366936D01*
X10855991Y-12366936D02*
X10846467Y-12347888D01*
X10846467Y-12347888D02*
X10836944Y-12309793D01*
X10836944Y-12309793D02*
X10836944Y-12262174D01*
X10836944Y-12262174D02*
X10846467Y-12224079D01*
X10846467Y-12224079D02*
X10855991Y-12205031D01*
X10855991Y-12205031D02*
X10865515Y-12195508D01*
X10865515Y-12195508D02*
X10884563Y-12185984D01*
X11075039Y-12185984D02*
X11094086Y-12185984D01*
X11094086Y-12185984D02*
X11113134Y-12195508D01*
X11113134Y-12195508D02*
X11122658Y-12205031D01*
X11122658Y-12205031D02*
X11132182Y-12224079D01*
X11132182Y-12224079D02*
X11141705Y-12262174D01*
X11141705Y-12262174D02*
X11141705Y-12309793D01*
X11141705Y-12309793D02*
X11132182Y-12347888D01*
X11132182Y-12347888D02*
X11122658Y-12366936D01*
X11122658Y-12366936D02*
X11113134Y-12376460D01*
X11113134Y-12376460D02*
X11094086Y-12385984D01*
X11094086Y-12385984D02*
X11075039Y-12385984D01*
X11075039Y-12385984D02*
X11055991Y-12376460D01*
X11055991Y-12376460D02*
X11046467Y-12366936D01*
X11046467Y-12366936D02*
X11036944Y-12347888D01*
X11036944Y-12347888D02*
X11027420Y-12309793D01*
X11027420Y-12309793D02*
X11027420Y-12262174D01*
X11027420Y-12262174D02*
X11036944Y-12224079D01*
X11036944Y-12224079D02*
X11046467Y-12205031D01*
X11046467Y-12205031D02*
X11055991Y-12195508D01*
X11055991Y-12195508D02*
X11075039Y-12185984D01*
X11227420Y-12385984D02*
X11227420Y-12252650D01*
X11227420Y-12271698D02*
X11236943Y-12262174D01*
X11236943Y-12262174D02*
X11255991Y-12252650D01*
X11255991Y-12252650D02*
X11284563Y-12252650D01*
X11284563Y-12252650D02*
X11303610Y-12262174D01*
X11303610Y-12262174D02*
X11313134Y-12281222D01*
X11313134Y-12281222D02*
X11313134Y-12385984D01*
X11313134Y-12281222D02*
X11322658Y-12262174D01*
X11322658Y-12262174D02*
X11341705Y-12252650D01*
X11341705Y-12252650D02*
X11370277Y-12252650D01*
X11370277Y-12252650D02*
X11389324Y-12262174D01*
X11389324Y-12262174D02*
X11398848Y-12281222D01*
X11398848Y-12281222D02*
X11398848Y-12385984D01*
X11494086Y-12385984D02*
X11494086Y-12252650D01*
X11494086Y-12271698D02*
X11503610Y-12262174D01*
X11503610Y-12262174D02*
X11522658Y-12252650D01*
X11522658Y-12252650D02*
X11551229Y-12252650D01*
X11551229Y-12252650D02*
X11570277Y-12262174D01*
X11570277Y-12262174D02*
X11579801Y-12281222D01*
X11579801Y-12281222D02*
X11579801Y-12385984D01*
X11579801Y-12281222D02*
X11589324Y-12262174D01*
X11589324Y-12262174D02*
X11608372Y-12252650D01*
X11608372Y-12252650D02*
X11636943Y-12252650D01*
X11636943Y-12252650D02*
X11655991Y-12262174D01*
X11655991Y-12262174D02*
X11665515Y-12281222D01*
X11665515Y-12281222D02*
X11665515Y-12385984D01*
X12055991Y-12176460D02*
X11884563Y-12433603D01*
X12313134Y-12185984D02*
X12332182Y-12185984D01*
X12332182Y-12185984D02*
X12351229Y-12195508D01*
X12351229Y-12195508D02*
X12360753Y-12205031D01*
X12360753Y-12205031D02*
X12370277Y-12224079D01*
X12370277Y-12224079D02*
X12379801Y-12262174D01*
X12379801Y-12262174D02*
X12379801Y-12309793D01*
X12379801Y-12309793D02*
X12370277Y-12347888D01*
X12370277Y-12347888D02*
X12360753Y-12366936D01*
X12360753Y-12366936D02*
X12351229Y-12376460D01*
X12351229Y-12376460D02*
X12332182Y-12385984D01*
X12332182Y-12385984D02*
X12313134Y-12385984D01*
X12313134Y-12385984D02*
X12294086Y-12376460D01*
X12294086Y-12376460D02*
X12284563Y-12366936D01*
X12284563Y-12366936D02*
X12275039Y-12347888D01*
X12275039Y-12347888D02*
X12265515Y-12309793D01*
X12265515Y-12309793D02*
X12265515Y-12262174D01*
X12265515Y-12262174D02*
X12275039Y-12224079D01*
X12275039Y-12224079D02*
X12284563Y-12205031D01*
X12284563Y-12205031D02*
X12294086Y-12195508D01*
X12294086Y-12195508D02*
X12313134Y-12185984D01*
X12465515Y-12366936D02*
X12475039Y-12376460D01*
X12475039Y-12376460D02*
X12465515Y-12385984D01*
X12465515Y-12385984D02*
X12455991Y-12376460D01*
X12455991Y-12376460D02*
X12465515Y-12366936D01*
X12465515Y-12366936D02*
X12465515Y-12385984D01*
X12598848Y-12185984D02*
X12617896Y-12185984D01*
X12617896Y-12185984D02*
X12636944Y-12195508D01*
X12636944Y-12195508D02*
X12646467Y-12205031D01*
X12646467Y-12205031D02*
X12655991Y-12224079D01*
X12655991Y-12224079D02*
X12665515Y-12262174D01*
X12665515Y-12262174D02*
X12665515Y-12309793D01*
X12665515Y-12309793D02*
X12655991Y-12347888D01*
X12655991Y-12347888D02*
X12646467Y-12366936D01*
X12646467Y-12366936D02*
X12636944Y-12376460D01*
X12636944Y-12376460D02*
X12617896Y-12385984D01*
X12617896Y-12385984D02*
X12598848Y-12385984D01*
X12598848Y-12385984D02*
X12579801Y-12376460D01*
X12579801Y-12376460D02*
X12570277Y-12366936D01*
X12570277Y-12366936D02*
X12560753Y-12347888D01*
X12560753Y-12347888D02*
X12551229Y-12309793D01*
X12551229Y-12309793D02*
X12551229Y-12262174D01*
X12551229Y-12262174D02*
X12560753Y-12224079D01*
X12560753Y-12224079D02*
X12570277Y-12205031D01*
X12570277Y-12205031D02*
X12579801Y-12195508D01*
X12579801Y-12195508D02*
X12598848Y-12185984D01*
X12855991Y-12385984D02*
X12741706Y-12385984D01*
X12798848Y-12385984D02*
X12798848Y-12185984D01*
X12798848Y-12185984D02*
X12779801Y-12214555D01*
X12779801Y-12214555D02*
X12760753Y-12233603D01*
X12760753Y-12233603D02*
X12741706Y-12243127D01*
X13046467Y-12385984D02*
X12932182Y-12385984D01*
X12989325Y-12385984D02*
X12989325Y-12185984D01*
X12989325Y-12185984D02*
X12970277Y-12214555D01*
X12970277Y-12214555D02*
X12951229Y-12233603D01*
X12951229Y-12233603D02*
X12932182Y-12243127D01*
X13160753Y-12271698D02*
X13141706Y-12262174D01*
X13141706Y-12262174D02*
X13132182Y-12252650D01*
X13132182Y-12252650D02*
X13122658Y-12233603D01*
X13122658Y-12233603D02*
X13122658Y-12224079D01*
X13122658Y-12224079D02*
X13132182Y-12205031D01*
X13132182Y-12205031D02*
X13141706Y-12195508D01*
X13141706Y-12195508D02*
X13160753Y-12185984D01*
X13160753Y-12185984D02*
X13198848Y-12185984D01*
X13198848Y-12185984D02*
X13217896Y-12195508D01*
X13217896Y-12195508D02*
X13227420Y-12205031D01*
X13227420Y-12205031D02*
X13236944Y-12224079D01*
X13236944Y-12224079D02*
X13236944Y-12233603D01*
X13236944Y-12233603D02*
X13227420Y-12252650D01*
X13227420Y-12252650D02*
X13217896Y-12262174D01*
X13217896Y-12262174D02*
X13198848Y-12271698D01*
X13198848Y-12271698D02*
X13160753Y-12271698D01*
X13160753Y-12271698D02*
X13141706Y-12281222D01*
X13141706Y-12281222D02*
X13132182Y-12290746D01*
X13132182Y-12290746D02*
X13122658Y-12309793D01*
X13122658Y-12309793D02*
X13122658Y-12347888D01*
X13122658Y-12347888D02*
X13132182Y-12366936D01*
X13132182Y-12366936D02*
X13141706Y-12376460D01*
X13141706Y-12376460D02*
X13160753Y-12385984D01*
X13160753Y-12385984D02*
X13198848Y-12385984D01*
X13198848Y-12385984D02*
X13217896Y-12376460D01*
X13217896Y-12376460D02*
X13227420Y-12366936D01*
X13227420Y-12366936D02*
X13236944Y-12347888D01*
X13236944Y-12347888D02*
X13236944Y-12309793D01*
X13236944Y-12309793D02*
X13227420Y-12290746D01*
X13227420Y-12290746D02*
X13217896Y-12281222D01*
X13217896Y-12281222D02*
X13198848Y-12271698D01*
X13313134Y-12185984D02*
X13313134Y-12224079D01*
X13389325Y-12185984D02*
X13389325Y-12224079D01*
X13684563Y-12462174D02*
X13675039Y-12452650D01*
X13675039Y-12452650D02*
X13655991Y-12424079D01*
X13655991Y-12424079D02*
X13646468Y-12405031D01*
X13646468Y-12405031D02*
X13636944Y-12376460D01*
X13636944Y-12376460D02*
X13627420Y-12328841D01*
X13627420Y-12328841D02*
X13627420Y-12290746D01*
X13627420Y-12290746D02*
X13636944Y-12243127D01*
X13636944Y-12243127D02*
X13646468Y-12214555D01*
X13646468Y-12214555D02*
X13655991Y-12195508D01*
X13655991Y-12195508D02*
X13675039Y-12166936D01*
X13675039Y-12166936D02*
X13684563Y-12157412D01*
X13741706Y-12185984D02*
X13865515Y-12185984D01*
X13865515Y-12185984D02*
X13798848Y-12262174D01*
X13798848Y-12262174D02*
X13827420Y-12262174D01*
X13827420Y-12262174D02*
X13846468Y-12271698D01*
X13846468Y-12271698D02*
X13855991Y-12281222D01*
X13855991Y-12281222D02*
X13865515Y-12300269D01*
X13865515Y-12300269D02*
X13865515Y-12347888D01*
X13865515Y-12347888D02*
X13855991Y-12366936D01*
X13855991Y-12366936D02*
X13846468Y-12376460D01*
X13846468Y-12376460D02*
X13827420Y-12385984D01*
X13827420Y-12385984D02*
X13770277Y-12385984D01*
X13770277Y-12385984D02*
X13751229Y-12376460D01*
X13751229Y-12376460D02*
X13741706Y-12366936D01*
X14036944Y-12252650D02*
X14036944Y-12385984D01*
X13989325Y-12176460D02*
X13941706Y-12319317D01*
X13941706Y-12319317D02*
X14065515Y-12319317D01*
X14132182Y-12205031D02*
X14141706Y-12195508D01*
X14141706Y-12195508D02*
X14160753Y-12185984D01*
X14160753Y-12185984D02*
X14208372Y-12185984D01*
X14208372Y-12185984D02*
X14227420Y-12195508D01*
X14227420Y-12195508D02*
X14236944Y-12205031D01*
X14236944Y-12205031D02*
X14246468Y-12224079D01*
X14246468Y-12224079D02*
X14246468Y-12243127D01*
X14246468Y-12243127D02*
X14236944Y-12271698D01*
X14236944Y-12271698D02*
X14122658Y-12385984D01*
X14122658Y-12385984D02*
X14246468Y-12385984D01*
X14484563Y-12385984D02*
X14484563Y-12185984D01*
X14570277Y-12385984D02*
X14570277Y-12281222D01*
X14570277Y-12281222D02*
X14560753Y-12262174D01*
X14560753Y-12262174D02*
X14541706Y-12252650D01*
X14541706Y-12252650D02*
X14513134Y-12252650D01*
X14513134Y-12252650D02*
X14494087Y-12262174D01*
X14494087Y-12262174D02*
X14484563Y-12271698D01*
X14694087Y-12385984D02*
X14675039Y-12376460D01*
X14675039Y-12376460D02*
X14665515Y-12366936D01*
X14665515Y-12366936D02*
X14655991Y-12347888D01*
X14655991Y-12347888D02*
X14655991Y-12290746D01*
X14655991Y-12290746D02*
X14665515Y-12271698D01*
X14665515Y-12271698D02*
X14675039Y-12262174D01*
X14675039Y-12262174D02*
X14694087Y-12252650D01*
X14694087Y-12252650D02*
X14722658Y-12252650D01*
X14722658Y-12252650D02*
X14741706Y-12262174D01*
X14741706Y-12262174D02*
X14751230Y-12271698D01*
X14751230Y-12271698D02*
X14760753Y-12290746D01*
X14760753Y-12290746D02*
X14760753Y-12347888D01*
X14760753Y-12347888D02*
X14751230Y-12366936D01*
X14751230Y-12366936D02*
X14741706Y-12376460D01*
X14741706Y-12376460D02*
X14722658Y-12385984D01*
X14722658Y-12385984D02*
X14694087Y-12385984D01*
X14875039Y-12385984D02*
X14855991Y-12376460D01*
X14855991Y-12376460D02*
X14846468Y-12357412D01*
X14846468Y-12357412D02*
X14846468Y-12185984D01*
X15027420Y-12376460D02*
X15008372Y-12385984D01*
X15008372Y-12385984D02*
X14970277Y-12385984D01*
X14970277Y-12385984D02*
X14951230Y-12376460D01*
X14951230Y-12376460D02*
X14941706Y-12357412D01*
X14941706Y-12357412D02*
X14941706Y-12281222D01*
X14941706Y-12281222D02*
X14951230Y-12262174D01*
X14951230Y-12262174D02*
X14970277Y-12252650D01*
X14970277Y-12252650D02*
X15008372Y-12252650D01*
X15008372Y-12252650D02*
X15027420Y-12262174D01*
X15027420Y-12262174D02*
X15036944Y-12281222D01*
X15036944Y-12281222D02*
X15036944Y-12300269D01*
X15036944Y-12300269D02*
X14941706Y-12319317D01*
X15113134Y-12376460D02*
X15132182Y-12385984D01*
X15132182Y-12385984D02*
X15170277Y-12385984D01*
X15170277Y-12385984D02*
X15189325Y-12376460D01*
X15189325Y-12376460D02*
X15198849Y-12357412D01*
X15198849Y-12357412D02*
X15198849Y-12347888D01*
X15198849Y-12347888D02*
X15189325Y-12328841D01*
X15189325Y-12328841D02*
X15170277Y-12319317D01*
X15170277Y-12319317D02*
X15141706Y-12319317D01*
X15141706Y-12319317D02*
X15122658Y-12309793D01*
X15122658Y-12309793D02*
X15113134Y-12290746D01*
X15113134Y-12290746D02*
X15113134Y-12281222D01*
X15113134Y-12281222D02*
X15122658Y-12262174D01*
X15122658Y-12262174D02*
X15141706Y-12252650D01*
X15141706Y-12252650D02*
X15170277Y-12252650D01*
X15170277Y-12252650D02*
X15189325Y-12262174D01*
X15265515Y-12462174D02*
X15275039Y-12452650D01*
X15275039Y-12452650D02*
X15294087Y-12424079D01*
X15294087Y-12424079D02*
X15303611Y-12405031D01*
X15303611Y-12405031D02*
X15313134Y-12376460D01*
X15313134Y-12376460D02*
X15322658Y-12328841D01*
X15322658Y-12328841D02*
X15322658Y-12290746D01*
X15322658Y-12290746D02*
X15313134Y-12243127D01*
X15313134Y-12243127D02*
X15303611Y-12214555D01*
X15303611Y-12214555D02*
X15294087Y-12195508D01*
X15294087Y-12195508D02*
X15275039Y-12166936D01*
X15275039Y-12166936D02*
X15265515Y-12157412D01*
D11*
X10059500Y-12508500D02*
X10059500Y-12608500D01*
X10009500Y-12558500D02*
X10109500Y-12558500D01*
D12*
X10475039Y-12649984D02*
X10360753Y-12649984D01*
X10417896Y-12649984D02*
X10417896Y-12449984D01*
X10417896Y-12449984D02*
X10398848Y-12478555D01*
X10398848Y-12478555D02*
X10379801Y-12497603D01*
X10379801Y-12497603D02*
X10360753Y-12507127D01*
X10560753Y-12630936D02*
X10570277Y-12640460D01*
X10570277Y-12640460D02*
X10560753Y-12649984D01*
X10560753Y-12649984D02*
X10551229Y-12640460D01*
X10551229Y-12640460D02*
X10560753Y-12630936D01*
X10560753Y-12630936D02*
X10560753Y-12649984D01*
X10694086Y-12449984D02*
X10713134Y-12449984D01*
X10713134Y-12449984D02*
X10732182Y-12459508D01*
X10732182Y-12459508D02*
X10741705Y-12469031D01*
X10741705Y-12469031D02*
X10751229Y-12488079D01*
X10751229Y-12488079D02*
X10760753Y-12526174D01*
X10760753Y-12526174D02*
X10760753Y-12573793D01*
X10760753Y-12573793D02*
X10751229Y-12611888D01*
X10751229Y-12611888D02*
X10741705Y-12630936D01*
X10741705Y-12630936D02*
X10732182Y-12640460D01*
X10732182Y-12640460D02*
X10713134Y-12649984D01*
X10713134Y-12649984D02*
X10694086Y-12649984D01*
X10694086Y-12649984D02*
X10675039Y-12640460D01*
X10675039Y-12640460D02*
X10665515Y-12630936D01*
X10665515Y-12630936D02*
X10655991Y-12611888D01*
X10655991Y-12611888D02*
X10646467Y-12573793D01*
X10646467Y-12573793D02*
X10646467Y-12526174D01*
X10646467Y-12526174D02*
X10655991Y-12488079D01*
X10655991Y-12488079D02*
X10665515Y-12469031D01*
X10665515Y-12469031D02*
X10675039Y-12459508D01*
X10675039Y-12459508D02*
X10694086Y-12449984D01*
X10884563Y-12449984D02*
X10903610Y-12449984D01*
X10903610Y-12449984D02*
X10922658Y-12459508D01*
X10922658Y-12459508D02*
X10932182Y-12469031D01*
X10932182Y-12469031D02*
X10941705Y-12488079D01*
X10941705Y-12488079D02*
X10951229Y-12526174D01*
X10951229Y-12526174D02*
X10951229Y-12573793D01*
X10951229Y-12573793D02*
X10941705Y-12611888D01*
X10941705Y-12611888D02*
X10932182Y-12630936D01*
X10932182Y-12630936D02*
X10922658Y-12640460D01*
X10922658Y-12640460D02*
X10903610Y-12649984D01*
X10903610Y-12649984D02*
X10884563Y-12649984D01*
X10884563Y-12649984D02*
X10865515Y-12640460D01*
X10865515Y-12640460D02*
X10855991Y-12630936D01*
X10855991Y-12630936D02*
X10846467Y-12611888D01*
X10846467Y-12611888D02*
X10836944Y-12573793D01*
X10836944Y-12573793D02*
X10836944Y-12526174D01*
X10836944Y-12526174D02*
X10846467Y-12488079D01*
X10846467Y-12488079D02*
X10855991Y-12469031D01*
X10855991Y-12469031D02*
X10865515Y-12459508D01*
X10865515Y-12459508D02*
X10884563Y-12449984D01*
X11075039Y-12449984D02*
X11094086Y-12449984D01*
X11094086Y-12449984D02*
X11113134Y-12459508D01*
X11113134Y-12459508D02*
X11122658Y-12469031D01*
X11122658Y-12469031D02*
X11132182Y-12488079D01*
X11132182Y-12488079D02*
X11141705Y-12526174D01*
X11141705Y-12526174D02*
X11141705Y-12573793D01*
X11141705Y-12573793D02*
X11132182Y-12611888D01*
X11132182Y-12611888D02*
X11122658Y-12630936D01*
X11122658Y-12630936D02*
X11113134Y-12640460D01*
X11113134Y-12640460D02*
X11094086Y-12649984D01*
X11094086Y-12649984D02*
X11075039Y-12649984D01*
X11075039Y-12649984D02*
X11055991Y-12640460D01*
X11055991Y-12640460D02*
X11046467Y-12630936D01*
X11046467Y-12630936D02*
X11036944Y-12611888D01*
X11036944Y-12611888D02*
X11027420Y-12573793D01*
X11027420Y-12573793D02*
X11027420Y-12526174D01*
X11027420Y-12526174D02*
X11036944Y-12488079D01*
X11036944Y-12488079D02*
X11046467Y-12469031D01*
X11046467Y-12469031D02*
X11055991Y-12459508D01*
X11055991Y-12459508D02*
X11075039Y-12449984D01*
X11227420Y-12649984D02*
X11227420Y-12516650D01*
X11227420Y-12535698D02*
X11236943Y-12526174D01*
X11236943Y-12526174D02*
X11255991Y-12516650D01*
X11255991Y-12516650D02*
X11284563Y-12516650D01*
X11284563Y-12516650D02*
X11303610Y-12526174D01*
X11303610Y-12526174D02*
X11313134Y-12545222D01*
X11313134Y-12545222D02*
X11313134Y-12649984D01*
X11313134Y-12545222D02*
X11322658Y-12526174D01*
X11322658Y-12526174D02*
X11341705Y-12516650D01*
X11341705Y-12516650D02*
X11370277Y-12516650D01*
X11370277Y-12516650D02*
X11389324Y-12526174D01*
X11389324Y-12526174D02*
X11398848Y-12545222D01*
X11398848Y-12545222D02*
X11398848Y-12649984D01*
X11494086Y-12649984D02*
X11494086Y-12516650D01*
X11494086Y-12535698D02*
X11503610Y-12526174D01*
X11503610Y-12526174D02*
X11522658Y-12516650D01*
X11522658Y-12516650D02*
X11551229Y-12516650D01*
X11551229Y-12516650D02*
X11570277Y-12526174D01*
X11570277Y-12526174D02*
X11579801Y-12545222D01*
X11579801Y-12545222D02*
X11579801Y-12649984D01*
X11579801Y-12545222D02*
X11589324Y-12526174D01*
X11589324Y-12526174D02*
X11608372Y-12516650D01*
X11608372Y-12516650D02*
X11636943Y-12516650D01*
X11636943Y-12516650D02*
X11655991Y-12526174D01*
X11655991Y-12526174D02*
X11665515Y-12545222D01*
X11665515Y-12545222D02*
X11665515Y-12649984D01*
X12055991Y-12440460D02*
X11884563Y-12697603D01*
X12313134Y-12449984D02*
X12332182Y-12449984D01*
X12332182Y-12449984D02*
X12351229Y-12459508D01*
X12351229Y-12459508D02*
X12360753Y-12469031D01*
X12360753Y-12469031D02*
X12370277Y-12488079D01*
X12370277Y-12488079D02*
X12379801Y-12526174D01*
X12379801Y-12526174D02*
X12379801Y-12573793D01*
X12379801Y-12573793D02*
X12370277Y-12611888D01*
X12370277Y-12611888D02*
X12360753Y-12630936D01*
X12360753Y-12630936D02*
X12351229Y-12640460D01*
X12351229Y-12640460D02*
X12332182Y-12649984D01*
X12332182Y-12649984D02*
X12313134Y-12649984D01*
X12313134Y-12649984D02*
X12294086Y-12640460D01*
X12294086Y-12640460D02*
X12284563Y-12630936D01*
X12284563Y-12630936D02*
X12275039Y-12611888D01*
X12275039Y-12611888D02*
X12265515Y-12573793D01*
X12265515Y-12573793D02*
X12265515Y-12526174D01*
X12265515Y-12526174D02*
X12275039Y-12488079D01*
X12275039Y-12488079D02*
X12284563Y-12469031D01*
X12284563Y-12469031D02*
X12294086Y-12459508D01*
X12294086Y-12459508D02*
X12313134Y-12449984D01*
X12465515Y-12630936D02*
X12475039Y-12640460D01*
X12475039Y-12640460D02*
X12465515Y-12649984D01*
X12465515Y-12649984D02*
X12455991Y-12640460D01*
X12455991Y-12640460D02*
X12465515Y-12630936D01*
X12465515Y-12630936D02*
X12465515Y-12649984D01*
X12598848Y-12449984D02*
X12617896Y-12449984D01*
X12617896Y-12449984D02*
X12636944Y-12459508D01*
X12636944Y-12459508D02*
X12646467Y-12469031D01*
X12646467Y-12469031D02*
X12655991Y-12488079D01*
X12655991Y-12488079D02*
X12665515Y-12526174D01*
X12665515Y-12526174D02*
X12665515Y-12573793D01*
X12665515Y-12573793D02*
X12655991Y-12611888D01*
X12655991Y-12611888D02*
X12646467Y-12630936D01*
X12646467Y-12630936D02*
X12636944Y-12640460D01*
X12636944Y-12640460D02*
X12617896Y-12649984D01*
X12617896Y-12649984D02*
X12598848Y-12649984D01*
X12598848Y-12649984D02*
X12579801Y-12640460D01*
X12579801Y-12640460D02*
X12570277Y-12630936D01*
X12570277Y-12630936D02*
X12560753Y-12611888D01*
X12560753Y-12611888D02*
X12551229Y-12573793D01*
X12551229Y-12573793D02*
X12551229Y-12526174D01*
X12551229Y-12526174D02*
X12560753Y-12488079D01*
X12560753Y-12488079D02*
X12570277Y-12469031D01*
X12570277Y-12469031D02*
X12579801Y-12459508D01*
X12579801Y-12459508D02*
X12598848Y-12449984D01*
X12732182Y-12449984D02*
X12855991Y-12449984D01*
X12855991Y-12449984D02*
X12789325Y-12526174D01*
X12789325Y-12526174D02*
X12817896Y-12526174D01*
X12817896Y-12526174D02*
X12836944Y-12535698D01*
X12836944Y-12535698D02*
X12846467Y-12545222D01*
X12846467Y-12545222D02*
X12855991Y-12564269D01*
X12855991Y-12564269D02*
X12855991Y-12611888D01*
X12855991Y-12611888D02*
X12846467Y-12630936D01*
X12846467Y-12630936D02*
X12836944Y-12640460D01*
X12836944Y-12640460D02*
X12817896Y-12649984D01*
X12817896Y-12649984D02*
X12760753Y-12649984D01*
X12760753Y-12649984D02*
X12741706Y-12640460D01*
X12741706Y-12640460D02*
X12732182Y-12630936D01*
X12951229Y-12649984D02*
X12989325Y-12649984D01*
X12989325Y-12649984D02*
X13008372Y-12640460D01*
X13008372Y-12640460D02*
X13017896Y-12630936D01*
X13017896Y-12630936D02*
X13036944Y-12602365D01*
X13036944Y-12602365D02*
X13046467Y-12564269D01*
X13046467Y-12564269D02*
X13046467Y-12488079D01*
X13046467Y-12488079D02*
X13036944Y-12469031D01*
X13036944Y-12469031D02*
X13027420Y-12459508D01*
X13027420Y-12459508D02*
X13008372Y-12449984D01*
X13008372Y-12449984D02*
X12970277Y-12449984D01*
X12970277Y-12449984D02*
X12951229Y-12459508D01*
X12951229Y-12459508D02*
X12941706Y-12469031D01*
X12941706Y-12469031D02*
X12932182Y-12488079D01*
X12932182Y-12488079D02*
X12932182Y-12535698D01*
X12932182Y-12535698D02*
X12941706Y-12554746D01*
X12941706Y-12554746D02*
X12951229Y-12564269D01*
X12951229Y-12564269D02*
X12970277Y-12573793D01*
X12970277Y-12573793D02*
X13008372Y-12573793D01*
X13008372Y-12573793D02*
X13027420Y-12564269D01*
X13027420Y-12564269D02*
X13036944Y-12554746D01*
X13036944Y-12554746D02*
X13046467Y-12535698D01*
X13217896Y-12516650D02*
X13217896Y-12649984D01*
X13170277Y-12440460D02*
X13122658Y-12583317D01*
X13122658Y-12583317D02*
X13246467Y-12583317D01*
X13313134Y-12449984D02*
X13313134Y-12488079D01*
X13389325Y-12449984D02*
X13389325Y-12488079D01*
X13684563Y-12726174D02*
X13675039Y-12716650D01*
X13675039Y-12716650D02*
X13655991Y-12688079D01*
X13655991Y-12688079D02*
X13646468Y-12669031D01*
X13646468Y-12669031D02*
X13636944Y-12640460D01*
X13636944Y-12640460D02*
X13627420Y-12592841D01*
X13627420Y-12592841D02*
X13627420Y-12554746D01*
X13627420Y-12554746D02*
X13636944Y-12507127D01*
X13636944Y-12507127D02*
X13646468Y-12478555D01*
X13646468Y-12478555D02*
X13655991Y-12459508D01*
X13655991Y-12459508D02*
X13675039Y-12430936D01*
X13675039Y-12430936D02*
X13684563Y-12421412D01*
X13751229Y-12469031D02*
X13760753Y-12459508D01*
X13760753Y-12459508D02*
X13779801Y-12449984D01*
X13779801Y-12449984D02*
X13827420Y-12449984D01*
X13827420Y-12449984D02*
X13846468Y-12459508D01*
X13846468Y-12459508D02*
X13855991Y-12469031D01*
X13855991Y-12469031D02*
X13865515Y-12488079D01*
X13865515Y-12488079D02*
X13865515Y-12507127D01*
X13865515Y-12507127D02*
X13855991Y-12535698D01*
X13855991Y-12535698D02*
X13741706Y-12649984D01*
X13741706Y-12649984D02*
X13865515Y-12649984D01*
X14103610Y-12649984D02*
X14103610Y-12449984D01*
X14189325Y-12649984D02*
X14189325Y-12545222D01*
X14189325Y-12545222D02*
X14179801Y-12526174D01*
X14179801Y-12526174D02*
X14160753Y-12516650D01*
X14160753Y-12516650D02*
X14132182Y-12516650D01*
X14132182Y-12516650D02*
X14113134Y-12526174D01*
X14113134Y-12526174D02*
X14103610Y-12535698D01*
X14313134Y-12649984D02*
X14294087Y-12640460D01*
X14294087Y-12640460D02*
X14284563Y-12630936D01*
X14284563Y-12630936D02*
X14275039Y-12611888D01*
X14275039Y-12611888D02*
X14275039Y-12554746D01*
X14275039Y-12554746D02*
X14284563Y-12535698D01*
X14284563Y-12535698D02*
X14294087Y-12526174D01*
X14294087Y-12526174D02*
X14313134Y-12516650D01*
X14313134Y-12516650D02*
X14341706Y-12516650D01*
X14341706Y-12516650D02*
X14360753Y-12526174D01*
X14360753Y-12526174D02*
X14370277Y-12535698D01*
X14370277Y-12535698D02*
X14379801Y-12554746D01*
X14379801Y-12554746D02*
X14379801Y-12611888D01*
X14379801Y-12611888D02*
X14370277Y-12630936D01*
X14370277Y-12630936D02*
X14360753Y-12640460D01*
X14360753Y-12640460D02*
X14341706Y-12649984D01*
X14341706Y-12649984D02*
X14313134Y-12649984D01*
X14494087Y-12649984D02*
X14475039Y-12640460D01*
X14475039Y-12640460D02*
X14465515Y-12621412D01*
X14465515Y-12621412D02*
X14465515Y-12449984D01*
X14646468Y-12640460D02*
X14627420Y-12649984D01*
X14627420Y-12649984D02*
X14589325Y-12649984D01*
X14589325Y-12649984D02*
X14570277Y-12640460D01*
X14570277Y-12640460D02*
X14560753Y-12621412D01*
X14560753Y-12621412D02*
X14560753Y-12545222D01*
X14560753Y-12545222D02*
X14570277Y-12526174D01*
X14570277Y-12526174D02*
X14589325Y-12516650D01*
X14589325Y-12516650D02*
X14627420Y-12516650D01*
X14627420Y-12516650D02*
X14646468Y-12526174D01*
X14646468Y-12526174D02*
X14655991Y-12545222D01*
X14655991Y-12545222D02*
X14655991Y-12564269D01*
X14655991Y-12564269D02*
X14560753Y-12583317D01*
X14732182Y-12640460D02*
X14751230Y-12649984D01*
X14751230Y-12649984D02*
X14789325Y-12649984D01*
X14789325Y-12649984D02*
X14808372Y-12640460D01*
X14808372Y-12640460D02*
X14817896Y-12621412D01*
X14817896Y-12621412D02*
X14817896Y-12611888D01*
X14817896Y-12611888D02*
X14808372Y-12592841D01*
X14808372Y-12592841D02*
X14789325Y-12583317D01*
X14789325Y-12583317D02*
X14760753Y-12583317D01*
X14760753Y-12583317D02*
X14741706Y-12573793D01*
X14741706Y-12573793D02*
X14732182Y-12554746D01*
X14732182Y-12554746D02*
X14732182Y-12545222D01*
X14732182Y-12545222D02*
X14741706Y-12526174D01*
X14741706Y-12526174D02*
X14760753Y-12516650D01*
X14760753Y-12516650D02*
X14789325Y-12516650D01*
X14789325Y-12516650D02*
X14808372Y-12526174D01*
X14884563Y-12726174D02*
X14894087Y-12716650D01*
X14894087Y-12716650D02*
X14913134Y-12688079D01*
X14913134Y-12688079D02*
X14922658Y-12669031D01*
X14922658Y-12669031D02*
X14932182Y-12640460D01*
X14932182Y-12640460D02*
X14941706Y-12592841D01*
X14941706Y-12592841D02*
X14941706Y-12554746D01*
X14941706Y-12554746D02*
X14932182Y-12507127D01*
X14932182Y-12507127D02*
X14922658Y-12478555D01*
X14922658Y-12478555D02*
X14913134Y-12459508D01*
X14913134Y-12459508D02*
X14894087Y-12430936D01*
X14894087Y-12430936D02*
X14884563Y-12421412D01*
M02*
