%TF.GenerationSoftware,KiCad,Pcbnew,8.0.9-8.0.9-0~ubuntu24.04.1*%
%TF.CreationDate,2025-08-15T15:16:04-07:00*%
%TF.ProjectId,transponder-12.0.1,7472616e-7370-46f6-9e64-65722d31322e,rev?*%
%TF.SameCoordinates,Original*%
%TF.FileFunction,Legend,Top*%
%TF.FilePolarity,Positive*%
%FSLAX46Y46*%
G04 Gerber Fmt 4.6, Leading zero omitted, Abs format (unit mm)*
G04 Created by KiCad (PCBNEW 8.0.9-8.0.9-0~ubuntu24.04.1) date 2025-08-15 15:16:04*
%MOMM*%
%LPD*%
G01*
G04 APERTURE LIST*
%ADD10C,0.300000*%
%ADD11C,0.100000*%
%ADD12C,0.127000*%
%ADD13C,0.120000*%
%ADD14C,0.190500*%
%ADD15C,0.250000*%
%ADD16C,0.200000*%
%ADD17C,0.152400*%
%ADD18C,0.273607*%
G04 APERTURE END LIST*
D10*
X135600000Y-104900000D02*
G75*
G02*
X135200000Y-104900000I-200000J0D01*
G01*
X135200000Y-104900000D02*
G75*
G02*
X135600000Y-104900000I200000J0D01*
G01*
D11*
X182551503Y-106789439D02*
X182351503Y-106503725D01*
X182208646Y-106789439D02*
X182208646Y-106189439D01*
X182208646Y-106189439D02*
X182437217Y-106189439D01*
X182437217Y-106189439D02*
X182494360Y-106218010D01*
X182494360Y-106218010D02*
X182522931Y-106246582D01*
X182522931Y-106246582D02*
X182551503Y-106303725D01*
X182551503Y-106303725D02*
X182551503Y-106389439D01*
X182551503Y-106389439D02*
X182522931Y-106446582D01*
X182522931Y-106446582D02*
X182494360Y-106475153D01*
X182494360Y-106475153D02*
X182437217Y-106503725D01*
X182437217Y-106503725D02*
X182208646Y-106503725D01*
X183037217Y-106760868D02*
X182980074Y-106789439D01*
X182980074Y-106789439D02*
X182865789Y-106789439D01*
X182865789Y-106789439D02*
X182808646Y-106760868D01*
X182808646Y-106760868D02*
X182780074Y-106703725D01*
X182780074Y-106703725D02*
X182780074Y-106475153D01*
X182780074Y-106475153D02*
X182808646Y-106418010D01*
X182808646Y-106418010D02*
X182865789Y-106389439D01*
X182865789Y-106389439D02*
X182980074Y-106389439D01*
X182980074Y-106389439D02*
X183037217Y-106418010D01*
X183037217Y-106418010D02*
X183065789Y-106475153D01*
X183065789Y-106475153D02*
X183065789Y-106532296D01*
X183065789Y-106532296D02*
X182780074Y-106589439D01*
X183265789Y-106389439D02*
X183408646Y-106789439D01*
X183408646Y-106789439D02*
X183551503Y-106389439D01*
X184551503Y-106789439D02*
X184208646Y-106789439D01*
X184380075Y-106789439D02*
X184380075Y-106189439D01*
X184380075Y-106189439D02*
X184322932Y-106275153D01*
X184322932Y-106275153D02*
X184265789Y-106332296D01*
X184265789Y-106332296D02*
X184208646Y-106360868D01*
X184780075Y-106246582D02*
X184808647Y-106218010D01*
X184808647Y-106218010D02*
X184865790Y-106189439D01*
X184865790Y-106189439D02*
X185008647Y-106189439D01*
X185008647Y-106189439D02*
X185065790Y-106218010D01*
X185065790Y-106218010D02*
X185094361Y-106246582D01*
X185094361Y-106246582D02*
X185122932Y-106303725D01*
X185122932Y-106303725D02*
X185122932Y-106360868D01*
X185122932Y-106360868D02*
X185094361Y-106446582D01*
X185094361Y-106446582D02*
X184751504Y-106789439D01*
X184751504Y-106789439D02*
X185122932Y-106789439D01*
X185380076Y-106732296D02*
X185408647Y-106760868D01*
X185408647Y-106760868D02*
X185380076Y-106789439D01*
X185380076Y-106789439D02*
X185351504Y-106760868D01*
X185351504Y-106760868D02*
X185380076Y-106732296D01*
X185380076Y-106732296D02*
X185380076Y-106789439D01*
X185780075Y-106189439D02*
X185837218Y-106189439D01*
X185837218Y-106189439D02*
X185894361Y-106218010D01*
X185894361Y-106218010D02*
X185922933Y-106246582D01*
X185922933Y-106246582D02*
X185951504Y-106303725D01*
X185951504Y-106303725D02*
X185980075Y-106418010D01*
X185980075Y-106418010D02*
X185980075Y-106560868D01*
X185980075Y-106560868D02*
X185951504Y-106675153D01*
X185951504Y-106675153D02*
X185922933Y-106732296D01*
X185922933Y-106732296D02*
X185894361Y-106760868D01*
X185894361Y-106760868D02*
X185837218Y-106789439D01*
X185837218Y-106789439D02*
X185780075Y-106789439D01*
X185780075Y-106789439D02*
X185722933Y-106760868D01*
X185722933Y-106760868D02*
X185694361Y-106732296D01*
X185694361Y-106732296D02*
X185665790Y-106675153D01*
X185665790Y-106675153D02*
X185637218Y-106560868D01*
X185637218Y-106560868D02*
X185637218Y-106418010D01*
X185637218Y-106418010D02*
X185665790Y-106303725D01*
X185665790Y-106303725D02*
X185694361Y-106246582D01*
X185694361Y-106246582D02*
X185722933Y-106218010D01*
X185722933Y-106218010D02*
X185780075Y-106189439D01*
X186237219Y-106732296D02*
X186265790Y-106760868D01*
X186265790Y-106760868D02*
X186237219Y-106789439D01*
X186237219Y-106789439D02*
X186208647Y-106760868D01*
X186208647Y-106760868D02*
X186237219Y-106732296D01*
X186237219Y-106732296D02*
X186237219Y-106789439D01*
X186837218Y-106789439D02*
X186494361Y-106789439D01*
X186665790Y-106789439D02*
X186665790Y-106189439D01*
X186665790Y-106189439D02*
X186608647Y-106275153D01*
X186608647Y-106275153D02*
X186551504Y-106332296D01*
X186551504Y-106332296D02*
X186494361Y-106360868D01*
X182380074Y-107983976D02*
X182351503Y-107955405D01*
X182351503Y-107955405D02*
X182294360Y-107869691D01*
X182294360Y-107869691D02*
X182265789Y-107812548D01*
X182265789Y-107812548D02*
X182237217Y-107726834D01*
X182237217Y-107726834D02*
X182208646Y-107583976D01*
X182208646Y-107583976D02*
X182208646Y-107469691D01*
X182208646Y-107469691D02*
X182237217Y-107326834D01*
X182237217Y-107326834D02*
X182265789Y-107241119D01*
X182265789Y-107241119D02*
X182294360Y-107183976D01*
X182294360Y-107183976D02*
X182351503Y-107098262D01*
X182351503Y-107098262D02*
X182380074Y-107069691D01*
X182865789Y-107726834D02*
X182808646Y-107755405D01*
X182808646Y-107755405D02*
X182694360Y-107755405D01*
X182694360Y-107755405D02*
X182637217Y-107726834D01*
X182637217Y-107726834D02*
X182608646Y-107698262D01*
X182608646Y-107698262D02*
X182580074Y-107641119D01*
X182580074Y-107641119D02*
X182580074Y-107469691D01*
X182580074Y-107469691D02*
X182608646Y-107412548D01*
X182608646Y-107412548D02*
X182637217Y-107383976D01*
X182637217Y-107383976D02*
X182694360Y-107355405D01*
X182694360Y-107355405D02*
X182808646Y-107355405D01*
X182808646Y-107355405D02*
X182865789Y-107383976D01*
X183065789Y-107983976D02*
X183094360Y-107955405D01*
X183094360Y-107955405D02*
X183151503Y-107869691D01*
X183151503Y-107869691D02*
X183180075Y-107812548D01*
X183180075Y-107812548D02*
X183208646Y-107726834D01*
X183208646Y-107726834D02*
X183237217Y-107583976D01*
X183237217Y-107583976D02*
X183237217Y-107469691D01*
X183237217Y-107469691D02*
X183208646Y-107326834D01*
X183208646Y-107326834D02*
X183180075Y-107241119D01*
X183180075Y-107241119D02*
X183151503Y-107183976D01*
X183151503Y-107183976D02*
X183094360Y-107098262D01*
X183094360Y-107098262D02*
X183065789Y-107069691D01*
X183494360Y-107212548D02*
X183522932Y-107183976D01*
X183522932Y-107183976D02*
X183580075Y-107155405D01*
X183580075Y-107155405D02*
X183722932Y-107155405D01*
X183722932Y-107155405D02*
X183780075Y-107183976D01*
X183780075Y-107183976D02*
X183808646Y-107212548D01*
X183808646Y-107212548D02*
X183837217Y-107269691D01*
X183837217Y-107269691D02*
X183837217Y-107326834D01*
X183837217Y-107326834D02*
X183808646Y-107412548D01*
X183808646Y-107412548D02*
X183465789Y-107755405D01*
X183465789Y-107755405D02*
X183837217Y-107755405D01*
X184208646Y-107155405D02*
X184265789Y-107155405D01*
X184265789Y-107155405D02*
X184322932Y-107183976D01*
X184322932Y-107183976D02*
X184351504Y-107212548D01*
X184351504Y-107212548D02*
X184380075Y-107269691D01*
X184380075Y-107269691D02*
X184408646Y-107383976D01*
X184408646Y-107383976D02*
X184408646Y-107526834D01*
X184408646Y-107526834D02*
X184380075Y-107641119D01*
X184380075Y-107641119D02*
X184351504Y-107698262D01*
X184351504Y-107698262D02*
X184322932Y-107726834D01*
X184322932Y-107726834D02*
X184265789Y-107755405D01*
X184265789Y-107755405D02*
X184208646Y-107755405D01*
X184208646Y-107755405D02*
X184151504Y-107726834D01*
X184151504Y-107726834D02*
X184122932Y-107698262D01*
X184122932Y-107698262D02*
X184094361Y-107641119D01*
X184094361Y-107641119D02*
X184065789Y-107526834D01*
X184065789Y-107526834D02*
X184065789Y-107383976D01*
X184065789Y-107383976D02*
X184094361Y-107269691D01*
X184094361Y-107269691D02*
X184122932Y-107212548D01*
X184122932Y-107212548D02*
X184151504Y-107183976D01*
X184151504Y-107183976D02*
X184208646Y-107155405D01*
X184980075Y-107755405D02*
X184637218Y-107755405D01*
X184808647Y-107755405D02*
X184808647Y-107155405D01*
X184808647Y-107155405D02*
X184751504Y-107241119D01*
X184751504Y-107241119D02*
X184694361Y-107298262D01*
X184694361Y-107298262D02*
X184637218Y-107326834D01*
X185494362Y-107155405D02*
X185380076Y-107155405D01*
X185380076Y-107155405D02*
X185322933Y-107183976D01*
X185322933Y-107183976D02*
X185294362Y-107212548D01*
X185294362Y-107212548D02*
X185237219Y-107298262D01*
X185237219Y-107298262D02*
X185208647Y-107412548D01*
X185208647Y-107412548D02*
X185208647Y-107641119D01*
X185208647Y-107641119D02*
X185237219Y-107698262D01*
X185237219Y-107698262D02*
X185265790Y-107726834D01*
X185265790Y-107726834D02*
X185322933Y-107755405D01*
X185322933Y-107755405D02*
X185437219Y-107755405D01*
X185437219Y-107755405D02*
X185494362Y-107726834D01*
X185494362Y-107726834D02*
X185522933Y-107698262D01*
X185522933Y-107698262D02*
X185551504Y-107641119D01*
X185551504Y-107641119D02*
X185551504Y-107498262D01*
X185551504Y-107498262D02*
X185522933Y-107441119D01*
X185522933Y-107441119D02*
X185494362Y-107412548D01*
X185494362Y-107412548D02*
X185437219Y-107383976D01*
X185437219Y-107383976D02*
X185322933Y-107383976D01*
X185322933Y-107383976D02*
X185265790Y-107412548D01*
X185265790Y-107412548D02*
X185237219Y-107441119D01*
X185237219Y-107441119D02*
X185208647Y-107498262D01*
X185808648Y-107526834D02*
X186265791Y-107526834D01*
X186522933Y-107212548D02*
X186551505Y-107183976D01*
X186551505Y-107183976D02*
X186608648Y-107155405D01*
X186608648Y-107155405D02*
X186751505Y-107155405D01*
X186751505Y-107155405D02*
X186808648Y-107183976D01*
X186808648Y-107183976D02*
X186837219Y-107212548D01*
X186837219Y-107212548D02*
X186865790Y-107269691D01*
X186865790Y-107269691D02*
X186865790Y-107326834D01*
X186865790Y-107326834D02*
X186837219Y-107412548D01*
X186837219Y-107412548D02*
X186494362Y-107755405D01*
X186494362Y-107755405D02*
X186865790Y-107755405D01*
X187237219Y-107155405D02*
X187294362Y-107155405D01*
X187294362Y-107155405D02*
X187351505Y-107183976D01*
X187351505Y-107183976D02*
X187380077Y-107212548D01*
X187380077Y-107212548D02*
X187408648Y-107269691D01*
X187408648Y-107269691D02*
X187437219Y-107383976D01*
X187437219Y-107383976D02*
X187437219Y-107526834D01*
X187437219Y-107526834D02*
X187408648Y-107641119D01*
X187408648Y-107641119D02*
X187380077Y-107698262D01*
X187380077Y-107698262D02*
X187351505Y-107726834D01*
X187351505Y-107726834D02*
X187294362Y-107755405D01*
X187294362Y-107755405D02*
X187237219Y-107755405D01*
X187237219Y-107755405D02*
X187180077Y-107726834D01*
X187180077Y-107726834D02*
X187151505Y-107698262D01*
X187151505Y-107698262D02*
X187122934Y-107641119D01*
X187122934Y-107641119D02*
X187094362Y-107526834D01*
X187094362Y-107526834D02*
X187094362Y-107383976D01*
X187094362Y-107383976D02*
X187122934Y-107269691D01*
X187122934Y-107269691D02*
X187151505Y-107212548D01*
X187151505Y-107212548D02*
X187180077Y-107183976D01*
X187180077Y-107183976D02*
X187237219Y-107155405D01*
X187665791Y-107212548D02*
X187694363Y-107183976D01*
X187694363Y-107183976D02*
X187751506Y-107155405D01*
X187751506Y-107155405D02*
X187894363Y-107155405D01*
X187894363Y-107155405D02*
X187951506Y-107183976D01*
X187951506Y-107183976D02*
X187980077Y-107212548D01*
X187980077Y-107212548D02*
X188008648Y-107269691D01*
X188008648Y-107269691D02*
X188008648Y-107326834D01*
X188008648Y-107326834D02*
X187980077Y-107412548D01*
X187980077Y-107412548D02*
X187637220Y-107755405D01*
X187637220Y-107755405D02*
X188008648Y-107755405D01*
X188551506Y-107155405D02*
X188265792Y-107155405D01*
X188265792Y-107155405D02*
X188237220Y-107441119D01*
X188237220Y-107441119D02*
X188265792Y-107412548D01*
X188265792Y-107412548D02*
X188322935Y-107383976D01*
X188322935Y-107383976D02*
X188465792Y-107383976D01*
X188465792Y-107383976D02*
X188522935Y-107412548D01*
X188522935Y-107412548D02*
X188551506Y-107441119D01*
X188551506Y-107441119D02*
X188580077Y-107498262D01*
X188580077Y-107498262D02*
X188580077Y-107641119D01*
X188580077Y-107641119D02*
X188551506Y-107698262D01*
X188551506Y-107698262D02*
X188522935Y-107726834D01*
X188522935Y-107726834D02*
X188465792Y-107755405D01*
X188465792Y-107755405D02*
X188322935Y-107755405D01*
X188322935Y-107755405D02*
X188265792Y-107726834D01*
X188265792Y-107726834D02*
X188237220Y-107698262D01*
X182208646Y-108721371D02*
X182208646Y-108121371D01*
X182208646Y-108121371D02*
X182408646Y-108549942D01*
X182408646Y-108549942D02*
X182608646Y-108121371D01*
X182608646Y-108121371D02*
X182608646Y-108721371D01*
X183151503Y-108721371D02*
X183151503Y-108407085D01*
X183151503Y-108407085D02*
X183122931Y-108349942D01*
X183122931Y-108349942D02*
X183065788Y-108321371D01*
X183065788Y-108321371D02*
X182951503Y-108321371D01*
X182951503Y-108321371D02*
X182894360Y-108349942D01*
X183151503Y-108692800D02*
X183094360Y-108721371D01*
X183094360Y-108721371D02*
X182951503Y-108721371D01*
X182951503Y-108721371D02*
X182894360Y-108692800D01*
X182894360Y-108692800D02*
X182865788Y-108635657D01*
X182865788Y-108635657D02*
X182865788Y-108578514D01*
X182865788Y-108578514D02*
X182894360Y-108521371D01*
X182894360Y-108521371D02*
X182951503Y-108492800D01*
X182951503Y-108492800D02*
X183094360Y-108492800D01*
X183094360Y-108492800D02*
X183151503Y-108464228D01*
X183380074Y-108321371D02*
X183522931Y-108721371D01*
X183522931Y-108721371D02*
X183665788Y-108321371D01*
X184122931Y-108692800D02*
X184065788Y-108721371D01*
X184065788Y-108721371D02*
X183951503Y-108721371D01*
X183951503Y-108721371D02*
X183894360Y-108692800D01*
X183894360Y-108692800D02*
X183865788Y-108635657D01*
X183865788Y-108635657D02*
X183865788Y-108407085D01*
X183865788Y-108407085D02*
X183894360Y-108349942D01*
X183894360Y-108349942D02*
X183951503Y-108321371D01*
X183951503Y-108321371D02*
X184065788Y-108321371D01*
X184065788Y-108321371D02*
X184122931Y-108349942D01*
X184122931Y-108349942D02*
X184151503Y-108407085D01*
X184151503Y-108407085D02*
X184151503Y-108464228D01*
X184151503Y-108464228D02*
X183865788Y-108521371D01*
X184408646Y-108721371D02*
X184408646Y-108321371D01*
X184408646Y-108435657D02*
X184437217Y-108378514D01*
X184437217Y-108378514D02*
X184465789Y-108349942D01*
X184465789Y-108349942D02*
X184522931Y-108321371D01*
X184522931Y-108321371D02*
X184580074Y-108321371D01*
X184780075Y-108721371D02*
X184780075Y-108321371D01*
X184780075Y-108121371D02*
X184751503Y-108149942D01*
X184751503Y-108149942D02*
X184780075Y-108178514D01*
X184780075Y-108178514D02*
X184808646Y-108149942D01*
X184808646Y-108149942D02*
X184780075Y-108121371D01*
X184780075Y-108121371D02*
X184780075Y-108178514D01*
X185322932Y-108692800D02*
X185265789Y-108721371D01*
X185265789Y-108721371D02*
X185151503Y-108721371D01*
X185151503Y-108721371D02*
X185094360Y-108692800D01*
X185094360Y-108692800D02*
X185065789Y-108664228D01*
X185065789Y-108664228D02*
X185037217Y-108607085D01*
X185037217Y-108607085D02*
X185037217Y-108435657D01*
X185037217Y-108435657D02*
X185065789Y-108378514D01*
X185065789Y-108378514D02*
X185094360Y-108349942D01*
X185094360Y-108349942D02*
X185151503Y-108321371D01*
X185151503Y-108321371D02*
X185265789Y-108321371D01*
X185265789Y-108321371D02*
X185322932Y-108349942D01*
X185580075Y-108721371D02*
X185580075Y-108121371D01*
X185637218Y-108492800D02*
X185808646Y-108721371D01*
X185808646Y-108321371D02*
X185580075Y-108549942D01*
X186808646Y-108721371D02*
X186522932Y-108721371D01*
X186522932Y-108721371D02*
X186522932Y-108121371D01*
X187265789Y-108721371D02*
X187265789Y-108407085D01*
X187265789Y-108407085D02*
X187237217Y-108349942D01*
X187237217Y-108349942D02*
X187180074Y-108321371D01*
X187180074Y-108321371D02*
X187065789Y-108321371D01*
X187065789Y-108321371D02*
X187008646Y-108349942D01*
X187265789Y-108692800D02*
X187208646Y-108721371D01*
X187208646Y-108721371D02*
X187065789Y-108721371D01*
X187065789Y-108721371D02*
X187008646Y-108692800D01*
X187008646Y-108692800D02*
X186980074Y-108635657D01*
X186980074Y-108635657D02*
X186980074Y-108578514D01*
X186980074Y-108578514D02*
X187008646Y-108521371D01*
X187008646Y-108521371D02*
X187065789Y-108492800D01*
X187065789Y-108492800D02*
X187208646Y-108492800D01*
X187208646Y-108492800D02*
X187265789Y-108464228D01*
X187551503Y-108721371D02*
X187551503Y-108121371D01*
X187551503Y-108349942D02*
X187608646Y-108321371D01*
X187608646Y-108321371D02*
X187722931Y-108321371D01*
X187722931Y-108321371D02*
X187780074Y-108349942D01*
X187780074Y-108349942D02*
X187808646Y-108378514D01*
X187808646Y-108378514D02*
X187837217Y-108435657D01*
X187837217Y-108435657D02*
X187837217Y-108607085D01*
X187837217Y-108607085D02*
X187808646Y-108664228D01*
X187808646Y-108664228D02*
X187780074Y-108692800D01*
X187780074Y-108692800D02*
X187722931Y-108721371D01*
X187722931Y-108721371D02*
X187608646Y-108721371D01*
X187608646Y-108721371D02*
X187551503Y-108692800D01*
X188065788Y-108692800D02*
X188122931Y-108721371D01*
X188122931Y-108721371D02*
X188237217Y-108721371D01*
X188237217Y-108721371D02*
X188294360Y-108692800D01*
X188294360Y-108692800D02*
X188322931Y-108635657D01*
X188322931Y-108635657D02*
X188322931Y-108607085D01*
X188322931Y-108607085D02*
X188294360Y-108549942D01*
X188294360Y-108549942D02*
X188237217Y-108521371D01*
X188237217Y-108521371D02*
X188151503Y-108521371D01*
X188151503Y-108521371D02*
X188094360Y-108492800D01*
X188094360Y-108492800D02*
X188065788Y-108435657D01*
X188065788Y-108435657D02*
X188065788Y-108407085D01*
X188065788Y-108407085D02*
X188094360Y-108349942D01*
X188094360Y-108349942D02*
X188151503Y-108321371D01*
X188151503Y-108321371D02*
X188237217Y-108321371D01*
X188237217Y-108321371D02*
X188294360Y-108349942D01*
X189322931Y-108721371D02*
X189037217Y-108721371D01*
X189037217Y-108721371D02*
X189037217Y-108121371D01*
X189808645Y-108721371D02*
X189522931Y-108721371D01*
X189522931Y-108721371D02*
X189522931Y-108121371D01*
X190351502Y-108664228D02*
X190322930Y-108692800D01*
X190322930Y-108692800D02*
X190237216Y-108721371D01*
X190237216Y-108721371D02*
X190180073Y-108721371D01*
X190180073Y-108721371D02*
X190094359Y-108692800D01*
X190094359Y-108692800D02*
X190037216Y-108635657D01*
X190037216Y-108635657D02*
X190008645Y-108578514D01*
X190008645Y-108578514D02*
X189980073Y-108464228D01*
X189980073Y-108464228D02*
X189980073Y-108378514D01*
X189980073Y-108378514D02*
X190008645Y-108264228D01*
X190008645Y-108264228D02*
X190037216Y-108207085D01*
X190037216Y-108207085D02*
X190094359Y-108149942D01*
X190094359Y-108149942D02*
X190180073Y-108121371D01*
X190180073Y-108121371D02*
X190237216Y-108121371D01*
X190237216Y-108121371D02*
X190322930Y-108149942D01*
X190322930Y-108149942D02*
X190351502Y-108178514D01*
D12*
%TO.C,D1*%
X113687500Y-93337500D02*
X113687500Y-97662500D01*
X113687500Y-97662500D02*
X114120000Y-97662500D01*
X114120000Y-93337500D02*
X113687500Y-93337500D01*
X117312500Y-93337500D02*
X116880000Y-93337500D01*
X117312500Y-97662500D02*
X116880000Y-97662500D01*
X117312500Y-97662500D02*
X117312500Y-93337500D01*
D13*
%TO.C,C35*%
X136040000Y-93309420D02*
X136040000Y-93590580D01*
X137060000Y-93309420D02*
X137060000Y-93590580D01*
%TO.C,U3*%
D14*
X155745250Y-101300000D02*
G75*
G02*
X155554750Y-101300000I-95250J0D01*
G01*
X155554750Y-101300000D02*
G75*
G02*
X155745250Y-101300000I95250J0D01*
G01*
D13*
%TO.C,C15*%
X183840000Y-94684420D02*
X183840000Y-94965580D01*
X184860000Y-94684420D02*
X184860000Y-94965580D01*
D15*
%TO.C,IC1*%
X158150000Y-91875000D02*
G75*
G02*
X157900000Y-91875000I-125000J0D01*
G01*
X157900000Y-91875000D02*
G75*
G02*
X158150000Y-91875000I125000J0D01*
G01*
D13*
%TO.C,C19*%
X167190000Y-90915580D02*
X167190000Y-90634420D01*
X168210000Y-90915580D02*
X168210000Y-90634420D01*
%TO.C,C21*%
X152484420Y-93290000D02*
X152765580Y-93290000D01*
X152484420Y-94310000D02*
X152765580Y-94310000D01*
%TO.C,C27*%
X124859420Y-89090000D02*
X125140580Y-89090000D01*
X124859420Y-90110000D02*
X125140580Y-90110000D01*
%TO.C,C16*%
X180590000Y-96384420D02*
X180590000Y-96665580D01*
X181610000Y-96384420D02*
X181610000Y-96665580D01*
D12*
%TO.C,U8*%
X179840000Y-100000000D02*
X179840000Y-100270000D01*
X179840000Y-100000000D02*
X180110000Y-100000000D01*
X179840000Y-102400000D02*
X179840000Y-102130000D01*
X179840000Y-102400000D02*
X180110000Y-102400000D01*
X182240000Y-100000000D02*
X181970000Y-100000000D01*
X182240000Y-100000000D02*
X182240000Y-100270000D01*
X182240000Y-102400000D02*
X181970000Y-102400000D01*
X182240000Y-102400000D02*
X182240000Y-102130000D01*
D16*
X183010000Y-101700000D02*
G75*
G02*
X182810000Y-101700000I-100000J0D01*
G01*
X182810000Y-101700000D02*
G75*
G02*
X183010000Y-101700000I100000J0D01*
G01*
D13*
%TO.C,C20*%
X151215580Y-89790000D02*
X150934420Y-89790000D01*
X151215580Y-90810000D02*
X150934420Y-90810000D01*
%TO.C,L4*%
X175890000Y-94925279D02*
X175890000Y-94599721D01*
X176910000Y-94925279D02*
X176910000Y-94599721D01*
%TO.C,C9*%
X143640000Y-90234420D02*
X143640000Y-90515580D01*
X144660000Y-90234420D02*
X144660000Y-90515580D01*
%TO.C,R5*%
X160377500Y-91037258D02*
X160377500Y-90562742D01*
X161422500Y-91037258D02*
X161422500Y-90562742D01*
%TO.C,C23*%
X158790000Y-90659420D02*
X158790000Y-90940580D01*
X159810000Y-90659420D02*
X159810000Y-90940580D01*
%TO.C,C14*%
X180690000Y-92834420D02*
X180690000Y-93115580D01*
X181710000Y-92834420D02*
X181710000Y-93115580D01*
%TO.C,C3*%
X156940580Y-96210000D02*
X156659420Y-96210000D01*
X156940580Y-95190000D02*
X156659420Y-95190000D01*
%TO.C,C18*%
X163184420Y-93290000D02*
X163465580Y-93290000D01*
X163184420Y-94310000D02*
X163465580Y-94310000D01*
%TO.C,C17*%
X165690000Y-94665580D02*
X165690000Y-94384420D01*
X166710000Y-94665580D02*
X166710000Y-94384420D01*
%TO.C,R17*%
X128377500Y-107212258D02*
X128377500Y-106737742D01*
X129422500Y-107212258D02*
X129422500Y-106737742D01*
%TO.C,Y2*%
X142100000Y-110150000D02*
X142100000Y-113450000D01*
X142100000Y-113450000D02*
X146100000Y-113450000D01*
%TO.C,U9*%
X128900000Y-105110000D02*
X130300000Y-105110000D01*
X130300000Y-102790000D02*
X128400000Y-102790000D01*
%TO.C,L9*%
X149790000Y-93175279D02*
X149790000Y-92849721D01*
X150810000Y-93175279D02*
X150810000Y-92849721D01*
%TO.C,L12*%
X127097936Y-90540000D02*
X128302064Y-90540000D01*
X127097936Y-93260000D02*
X128302064Y-93260000D01*
%TO.C,L11*%
X160149721Y-93290000D02*
X160475279Y-93290000D01*
X160149721Y-94310000D02*
X160475279Y-94310000D01*
%TO.C,Q7*%
X149900000Y-97740000D02*
X148225000Y-97740000D01*
X149900000Y-97740000D02*
X150550000Y-97740000D01*
X149900000Y-100860000D02*
X149250000Y-100860000D01*
X149900000Y-100860000D02*
X150550000Y-100860000D01*
%TO.C,C25*%
X119640580Y-95490000D02*
X119359420Y-95490000D01*
X119640580Y-96510000D02*
X119359420Y-96510000D01*
%TO.C,L7*%
X168324721Y-93290000D02*
X168650279Y-93290000D01*
X168324721Y-94310000D02*
X168650279Y-94310000D01*
%TO.C,C7*%
X149165580Y-101290000D02*
X148884420Y-101290000D01*
X149165580Y-102310000D02*
X148884420Y-102310000D01*
%TO.C,R2*%
X165627500Y-90512742D02*
X165627500Y-90987258D01*
X166672500Y-90512742D02*
X166672500Y-90987258D01*
%TO.C,L1*%
X156637221Y-96790000D02*
X156962779Y-96790000D01*
X156637221Y-97810000D02*
X156962779Y-97810000D01*
%TO.C,R18*%
X148877500Y-111262742D02*
X148877500Y-111737258D01*
X149922500Y-111262742D02*
X149922500Y-111737258D01*
%TO.C,Q2*%
X152640000Y-111037500D02*
X152640000Y-110387500D01*
X152640000Y-111037500D02*
X152640000Y-112712500D01*
X155760000Y-111037500D02*
X155760000Y-110387500D01*
X155760000Y-111037500D02*
X155760000Y-111687500D01*
%TO.C,C30*%
X156490000Y-111015580D02*
X156490000Y-110734420D01*
X157510000Y-111015580D02*
X157510000Y-110734420D01*
%TO.C,L8*%
X168740000Y-90912779D02*
X168740000Y-90587221D01*
X169760000Y-90912779D02*
X169760000Y-90587221D01*
D12*
%TO.C,U4*%
X164250000Y-102775000D02*
X172150000Y-102775000D01*
X164250000Y-113025000D02*
X172150000Y-113025000D01*
D16*
X162100000Y-102700000D02*
G75*
G02*
X161900000Y-102700000I-100000J0D01*
G01*
X161900000Y-102700000D02*
G75*
G02*
X162100000Y-102700000I100000J0D01*
G01*
D13*
%TO.C,C39*%
X178915580Y-96890000D02*
X178634420Y-96890000D01*
X178915580Y-97910000D02*
X178634420Y-97910000D01*
D17*
%TO.C,CR1*%
X114516089Y-99942600D02*
X115047699Y-99942600D01*
X115047699Y-99942600D02*
X115047699Y-100214860D01*
X115047699Y-103785140D02*
X115047699Y-104057400D01*
X115047699Y-104057400D02*
X114516089Y-104057400D01*
X113317399Y-100400001D02*
G75*
G02*
X113063399Y-100400001I-127000J0D01*
G01*
X113063399Y-100400001D02*
G75*
G02*
X113317399Y-100400001I127000J0D01*
G01*
D13*
%TO.C,Y1*%
X142200000Y-98350000D02*
X142200000Y-101650000D01*
X142200000Y-101650000D02*
X146200000Y-101650000D01*
%TO.C,C37*%
X162240580Y-100490000D02*
X161959420Y-100490000D01*
X162240580Y-101510000D02*
X161959420Y-101510000D01*
%TO.C,C31*%
X158290000Y-111040580D02*
X158290000Y-110759420D01*
X159310000Y-111040580D02*
X159310000Y-110759420D01*
%TO.C,C5*%
X150312164Y-94740000D02*
X150527836Y-94740000D01*
X150312164Y-95460000D02*
X150527836Y-95460000D01*
%TO.C,R11*%
X129977500Y-106737742D02*
X129977500Y-107212258D01*
X131022500Y-106737742D02*
X131022500Y-107212258D01*
%TO.C,R1*%
X146777500Y-98862742D02*
X146777500Y-99337258D01*
X147822500Y-98862742D02*
X147822500Y-99337258D01*
%TO.C,U11*%
D11*
X172200000Y-102000000D02*
X165200000Y-102000000D01*
X165200000Y-97000000D01*
X172200000Y-97000000D01*
X172200000Y-102000000D01*
D18*
X171636803Y-102700000D02*
G75*
G02*
X171363197Y-102700000I-136803J0D01*
G01*
X171363197Y-102700000D02*
G75*
G02*
X171636803Y-102700000I136803J0D01*
G01*
D13*
%TO.C,R6*%
X161877500Y-91037258D02*
X161877500Y-90562742D01*
X162922500Y-91037258D02*
X162922500Y-90562742D01*
%TO.C,C36*%
X150492164Y-107540000D02*
X150707836Y-107540000D01*
X150492164Y-108260000D02*
X150707836Y-108260000D01*
%TO.C,D4*%
X158610000Y-101650000D02*
X155950000Y-101650000D01*
X158610000Y-103350000D02*
X155950000Y-103350000D01*
X158610000Y-103350000D02*
X158610000Y-101650000D01*
%TO.C,C10*%
X142140000Y-90234420D02*
X142140000Y-90515580D01*
X143160000Y-90234420D02*
X143160000Y-90515580D01*
%TO.C,R12*%
X131762742Y-92777500D02*
X132237258Y-92777500D01*
X131762742Y-93822500D02*
X132237258Y-93822500D01*
%TO.C,C34*%
X137765580Y-105615000D02*
X137484420Y-105615000D01*
X137765580Y-106635000D02*
X137484420Y-106635000D01*
%TO.C,C6*%
X150512164Y-106540000D02*
X150727836Y-106540000D01*
X150512164Y-107260000D02*
X150727836Y-107260000D01*
%TO.C,U5*%
X132147893Y-100386136D02*
X132483768Y-100050260D01*
X132483768Y-100722012D02*
X132147893Y-100386136D01*
X135503114Y-103741358D02*
X135838990Y-104077233D01*
X135838990Y-96695039D02*
X135503114Y-97030914D01*
X136174866Y-97030914D02*
X135838990Y-96695039D01*
X139194212Y-100050260D02*
X139530087Y-100386136D01*
X139530087Y-100386136D02*
X139194212Y-100722012D01*
%TO.C,C22*%
X157190000Y-92959420D02*
X157190000Y-93240580D01*
X158210000Y-92959420D02*
X158210000Y-93240580D01*
%TO.C,R14*%
X125312742Y-102277500D02*
X125787258Y-102277500D01*
X125312742Y-103322500D02*
X125787258Y-103322500D01*
%TO.C,R15*%
X125312742Y-103577500D02*
X125787258Y-103577500D01*
X125312742Y-104622500D02*
X125787258Y-104622500D01*
%TO.C,C32*%
X175290000Y-112165580D02*
X175290000Y-111884420D01*
X176310000Y-112165580D02*
X176310000Y-111884420D01*
%TO.C,C4*%
X150292164Y-95740000D02*
X150507836Y-95740000D01*
X150292164Y-96460000D02*
X150507836Y-96460000D01*
%TO.C,C29*%
X122838748Y-93965000D02*
X123361252Y-93965000D01*
X122838748Y-95435000D02*
X123361252Y-95435000D01*
%TO.C,C28*%
X126961252Y-93965000D02*
X126438748Y-93965000D01*
X126961252Y-95435000D02*
X126438748Y-95435000D01*
%TO.C,L5*%
X178699721Y-93215000D02*
X179025279Y-93215000D01*
X178699721Y-94235000D02*
X179025279Y-94235000D01*
%TO.C,U10*%
X128900000Y-102310000D02*
X130800000Y-102310000D01*
X130300000Y-99990000D02*
X128900000Y-99990000D01*
%TO.C,U1*%
X143165000Y-92690000D02*
X143165000Y-93415000D01*
X143165000Y-96910000D02*
X143165000Y-96185000D01*
X143890000Y-92690000D02*
X143165000Y-92690000D01*
X143890000Y-96910000D02*
X143165000Y-96910000D01*
X146660000Y-92690000D02*
X147385000Y-92690000D01*
X146660000Y-96910000D02*
X147385000Y-96910000D01*
X147385000Y-92690000D02*
X147385000Y-93415000D01*
%TO.C,R16*%
X125312742Y-104902500D02*
X125787258Y-104902500D01*
X125312742Y-105947500D02*
X125787258Y-105947500D01*
%TO.C,D3*%
X124460000Y-106350000D02*
X121800000Y-106350000D01*
X124460000Y-108050000D02*
X121800000Y-108050000D01*
X124460000Y-108050000D02*
X124460000Y-106350000D01*
%TO.C,C1*%
X173639970Y-97838781D02*
X173838781Y-97639970D01*
X174361219Y-98560030D02*
X174560030Y-98361219D01*
%TO.C,L6*%
X182290000Y-94637221D02*
X182290000Y-94962779D01*
X183310000Y-94637221D02*
X183310000Y-94962779D01*
%TO.C,C2*%
X159559420Y-98290000D02*
X159840580Y-98290000D01*
X159559420Y-99310000D02*
X159840580Y-99310000D01*
%TO.C,C11*%
X144759420Y-102190000D02*
X145040580Y-102190000D01*
X144759420Y-103210000D02*
X145040580Y-103210000D01*
%TO.C,U6*%
X123300000Y-90240000D02*
X122500000Y-90240000D01*
X123300000Y-90240000D02*
X124100000Y-90240000D01*
X123300000Y-93360000D02*
X122500000Y-93360000D01*
X123300000Y-93360000D02*
X124100000Y-93360000D01*
X122000000Y-90290000D02*
X121760000Y-89960000D01*
X122240000Y-89960000D01*
X122000000Y-90290000D01*
G36*
X122000000Y-90290000D02*
G01*
X121760000Y-89960000D01*
X122240000Y-89960000D01*
X122000000Y-90290000D01*
G37*
%TO.C,R13*%
X131762742Y-94677500D02*
X132237258Y-94677500D01*
X131762742Y-95722500D02*
X132237258Y-95722500D01*
%TO.C,R9*%
X150827500Y-111237742D02*
X150827500Y-111712258D01*
X151872500Y-111237742D02*
X151872500Y-111712258D01*
%TO.C,R3*%
X164077500Y-90987258D02*
X164077500Y-90512742D01*
X165122500Y-90987258D02*
X165122500Y-90512742D01*
%TO.C,C8*%
X145140000Y-90259420D02*
X145140000Y-90540580D01*
X146160000Y-90259420D02*
X146160000Y-90540580D01*
D17*
%TO.C,AE1*%
X184026250Y-112531900D02*
X188973750Y-112531900D01*
X188973750Y-110068100D02*
X184026250Y-110068100D01*
D16*
%TO.C,J3*%
X187127500Y-101200000D02*
G75*
G02*
X186927500Y-101200000I-100000J0D01*
G01*
X186927500Y-101200000D02*
G75*
G02*
X187127500Y-101200000I100000J0D01*
G01*
D13*
%TO.C,U7*%
X130990000Y-111237500D02*
X130990000Y-110437500D01*
X130990000Y-111237500D02*
X130990000Y-113037500D01*
X134110000Y-111237500D02*
X134110000Y-110437500D01*
X134110000Y-111237500D02*
X134110000Y-112037500D01*
%TO.C,C33*%
X179890000Y-112165580D02*
X179890000Y-111884420D01*
X180910000Y-112165580D02*
X180910000Y-111884420D01*
%TO.C,U2*%
X142990000Y-104690000D02*
X142990000Y-105415000D01*
X142990000Y-108910000D02*
X142990000Y-108185000D01*
X143715000Y-104690000D02*
X142990000Y-104690000D01*
X143715000Y-108910000D02*
X142990000Y-108910000D01*
X146485000Y-104690000D02*
X147210000Y-104690000D01*
X146485000Y-108910000D02*
X147210000Y-108910000D01*
X147210000Y-104690000D02*
X147210000Y-105415000D01*
%TO.C,L15*%
X163590000Y-100137221D02*
X163590000Y-100462779D01*
X164610000Y-100137221D02*
X164610000Y-100462779D01*
%TO.C,L10*%
X155549721Y-93290000D02*
X155875279Y-93290000D01*
X155549721Y-94310000D02*
X155875279Y-94310000D01*
%TO.C,U12*%
X118140000Y-99000000D02*
X118140000Y-98200000D01*
X118140000Y-99000000D02*
X118140000Y-99800000D01*
X121260000Y-99000000D02*
X121260000Y-98200000D01*
X121260000Y-99000000D02*
X121260000Y-99800000D01*
X121540000Y-97940000D02*
X121210000Y-97700000D01*
X121540000Y-97460000D01*
X121540000Y-97940000D01*
G36*
X121540000Y-97940000D02*
G01*
X121210000Y-97700000D01*
X121540000Y-97460000D01*
X121540000Y-97940000D01*
G37*
%TO.C,Q1*%
X170540000Y-90440000D02*
X171850000Y-90440000D01*
X170540000Y-93160000D02*
X170540000Y-90440000D01*
X170540000Y-93160000D02*
X170770000Y-93160000D01*
X170770000Y-94300000D02*
X170770000Y-93160000D01*
X173950000Y-90440000D02*
X175260000Y-90440000D01*
X175260000Y-90440000D02*
X175260000Y-93160000D01*
X175260000Y-93160000D02*
X175030000Y-93160000D01*
%TO.C,C24*%
X153590000Y-90659420D02*
X153590000Y-90940580D01*
X154610000Y-90659420D02*
X154610000Y-90940580D01*
%TO.C,C12*%
X149165580Y-102840000D02*
X148884420Y-102840000D01*
X149165580Y-103860000D02*
X148884420Y-103860000D01*
%TO.C,L16*%
X173115000Y-100252221D02*
X173115000Y-100577779D01*
X174135000Y-100252221D02*
X174135000Y-100577779D01*
%TO.C,R4*%
X147837742Y-89777500D02*
X148312258Y-89777500D01*
X147837742Y-90822500D02*
X148312258Y-90822500D01*
%TO.C,R10*%
X133627500Y-106662742D02*
X133627500Y-107137258D01*
X134672500Y-106662742D02*
X134672500Y-107137258D01*
%TO.C,C38*%
X126961252Y-96065000D02*
X126438748Y-96065000D01*
X126961252Y-97535000D02*
X126438748Y-97535000D01*
%TO.C,C13*%
X178865580Y-95265000D02*
X178584420Y-95265000D01*
X178865580Y-96285000D02*
X178584420Y-96285000D01*
%TO.C,L14*%
X178262779Y-110790000D02*
X177937221Y-110790000D01*
X178262779Y-111810000D02*
X177937221Y-111810000D01*
%TO.C,C26*%
X122090000Y-99140580D02*
X122090000Y-98859420D01*
X123110000Y-99140580D02*
X123110000Y-98859420D01*
%TD*%
M02*
