%TF.GenerationSoftware,KiCad,Pcbnew,8.0.9-8.0.9-0~ubuntu24.04.1*%
%TF.CreationDate,2025-08-15T15:16:14-07:00*%
%TF.ProjectId,transponder-12.0.1,7472616e-7370-46f6-9e64-65722d31322e,rev?*%
%TF.SameCoordinates,Original*%
%TF.FileFunction,Drillmap*%
%TF.FilePolarity,Positive*%
%FSLAX45Y45*%
G04 Gerber Fmt 4.5, Leading zero omitted, Abs format (unit mm)*
G04 Created by KiCad (PCBNEW 8.0.9-8.0.9-0~ubuntu24.04.1) date 2025-08-15 15:16:14*
%MOMM*%
%LPD*%
G01*
G04 APERTURE LIST*
%ADD10C,0.010000*%
%ADD11C,0.100000*%
%ADD12C,0.200000*%
%ADD13C,0.180000*%
G04 APERTURE END LIST*
D10*
X19150000Y-11390000D02*
X10110000Y-11390000D01*
D11*
X11251245Y-9170000D02*
G75*
G02*
X10928755Y-9170000I-161245J0D01*
G01*
X10928755Y-9170000D02*
G75*
G02*
X11251245Y-9170000I161245J0D01*
G01*
D10*
X10110000Y-10810000D02*
X10110000Y-11390000D01*
X10110000Y-8890000D02*
X10110000Y-9450000D01*
X19150000Y-8890000D02*
X19150000Y-11390000D01*
D11*
X19010312Y-9120000D02*
G75*
G02*
X18689688Y-9120000I-160312J0D01*
G01*
X18689688Y-9120000D02*
G75*
G02*
X19010312Y-9120000I160312J0D01*
G01*
X11251245Y-11100000D02*
G75*
G02*
X10928755Y-11100000I-161245J0D01*
G01*
X10928755Y-11100000D02*
G75*
G02*
X11251245Y-11100000I161245J0D01*
G01*
D10*
X10110000Y-8890000D02*
X19150000Y-8890000D01*
D11*
X15880312Y-10650000D02*
G75*
G02*
X15559688Y-10650000I-160312J0D01*
G01*
X15559688Y-10650000D02*
G75*
G02*
X15880312Y-10650000I160312J0D01*
G01*
D10*
X10110000Y-9450000D02*
X10900000Y-9450000D01*
X10900000Y-9450000D02*
X10900000Y-10810000D01*
X10900000Y-10810000D02*
X10110000Y-10810000D01*
D12*
D13*
X11000000Y-9445000D02*
X11180000Y-9625000D01*
X11180000Y-9445000D02*
X11000000Y-9625000D01*
X11000000Y-10635000D02*
X11180000Y-10815000D01*
X11180000Y-10635000D02*
X11000000Y-10815000D01*
D12*
X10370277Y-11701984D02*
X10370277Y-11501984D01*
X10370277Y-11501984D02*
X10417896Y-11501984D01*
X10417896Y-11501984D02*
X10446467Y-11511508D01*
X10446467Y-11511508D02*
X10465515Y-11530555D01*
X10465515Y-11530555D02*
X10475039Y-11549603D01*
X10475039Y-11549603D02*
X10484563Y-11587698D01*
X10484563Y-11587698D02*
X10484563Y-11616269D01*
X10484563Y-11616269D02*
X10475039Y-11654365D01*
X10475039Y-11654365D02*
X10465515Y-11673412D01*
X10465515Y-11673412D02*
X10446467Y-11692460D01*
X10446467Y-11692460D02*
X10417896Y-11701984D01*
X10417896Y-11701984D02*
X10370277Y-11701984D01*
X10570277Y-11701984D02*
X10570277Y-11568650D01*
X10570277Y-11606746D02*
X10579801Y-11587698D01*
X10579801Y-11587698D02*
X10589324Y-11578174D01*
X10589324Y-11578174D02*
X10608372Y-11568650D01*
X10608372Y-11568650D02*
X10627420Y-11568650D01*
X10694086Y-11701984D02*
X10694086Y-11568650D01*
X10694086Y-11501984D02*
X10684563Y-11511508D01*
X10684563Y-11511508D02*
X10694086Y-11521031D01*
X10694086Y-11521031D02*
X10703610Y-11511508D01*
X10703610Y-11511508D02*
X10694086Y-11501984D01*
X10694086Y-11501984D02*
X10694086Y-11521031D01*
X10817896Y-11701984D02*
X10798848Y-11692460D01*
X10798848Y-11692460D02*
X10789324Y-11673412D01*
X10789324Y-11673412D02*
X10789324Y-11501984D01*
X10922658Y-11701984D02*
X10903610Y-11692460D01*
X10903610Y-11692460D02*
X10894086Y-11673412D01*
X10894086Y-11673412D02*
X10894086Y-11501984D01*
X11151229Y-11701984D02*
X11151229Y-11501984D01*
X11151229Y-11501984D02*
X11217896Y-11644841D01*
X11217896Y-11644841D02*
X11284562Y-11501984D01*
X11284562Y-11501984D02*
X11284562Y-11701984D01*
X11465515Y-11701984D02*
X11465515Y-11597222D01*
X11465515Y-11597222D02*
X11455991Y-11578174D01*
X11455991Y-11578174D02*
X11436943Y-11568650D01*
X11436943Y-11568650D02*
X11398848Y-11568650D01*
X11398848Y-11568650D02*
X11379801Y-11578174D01*
X11465515Y-11692460D02*
X11446467Y-11701984D01*
X11446467Y-11701984D02*
X11398848Y-11701984D01*
X11398848Y-11701984D02*
X11379801Y-11692460D01*
X11379801Y-11692460D02*
X11370277Y-11673412D01*
X11370277Y-11673412D02*
X11370277Y-11654365D01*
X11370277Y-11654365D02*
X11379801Y-11635317D01*
X11379801Y-11635317D02*
X11398848Y-11625793D01*
X11398848Y-11625793D02*
X11446467Y-11625793D01*
X11446467Y-11625793D02*
X11465515Y-11616269D01*
X11560753Y-11568650D02*
X11560753Y-11768650D01*
X11560753Y-11578174D02*
X11579801Y-11568650D01*
X11579801Y-11568650D02*
X11617896Y-11568650D01*
X11617896Y-11568650D02*
X11636943Y-11578174D01*
X11636943Y-11578174D02*
X11646467Y-11587698D01*
X11646467Y-11587698D02*
X11655991Y-11606746D01*
X11655991Y-11606746D02*
X11655991Y-11663888D01*
X11655991Y-11663888D02*
X11646467Y-11682936D01*
X11646467Y-11682936D02*
X11636943Y-11692460D01*
X11636943Y-11692460D02*
X11617896Y-11701984D01*
X11617896Y-11701984D02*
X11579801Y-11701984D01*
X11579801Y-11701984D02*
X11560753Y-11692460D01*
X11741705Y-11682936D02*
X11751229Y-11692460D01*
X11751229Y-11692460D02*
X11741705Y-11701984D01*
X11741705Y-11701984D02*
X11732182Y-11692460D01*
X11732182Y-11692460D02*
X11741705Y-11682936D01*
X11741705Y-11682936D02*
X11741705Y-11701984D01*
X11741705Y-11578174D02*
X11751229Y-11587698D01*
X11751229Y-11587698D02*
X11741705Y-11597222D01*
X11741705Y-11597222D02*
X11732182Y-11587698D01*
X11732182Y-11587698D02*
X11741705Y-11578174D01*
X11741705Y-11578174D02*
X11741705Y-11597222D01*
D13*
X9929500Y-11940500D02*
X10109500Y-12120500D01*
X10109500Y-11940500D02*
X9929500Y-12120500D01*
D12*
X10475039Y-12121984D02*
X10360753Y-12121984D01*
X10417896Y-12121984D02*
X10417896Y-11921984D01*
X10417896Y-11921984D02*
X10398848Y-11950555D01*
X10398848Y-11950555D02*
X10379801Y-11969603D01*
X10379801Y-11969603D02*
X10360753Y-11979127D01*
X10560753Y-12102936D02*
X10570277Y-12112460D01*
X10570277Y-12112460D02*
X10560753Y-12121984D01*
X10560753Y-12121984D02*
X10551229Y-12112460D01*
X10551229Y-12112460D02*
X10560753Y-12102936D01*
X10560753Y-12102936D02*
X10560753Y-12121984D01*
X10684563Y-12007698D02*
X10665515Y-11998174D01*
X10665515Y-11998174D02*
X10655991Y-11988650D01*
X10655991Y-11988650D02*
X10646467Y-11969603D01*
X10646467Y-11969603D02*
X10646467Y-11960079D01*
X10646467Y-11960079D02*
X10655991Y-11941031D01*
X10655991Y-11941031D02*
X10665515Y-11931508D01*
X10665515Y-11931508D02*
X10684563Y-11921984D01*
X10684563Y-11921984D02*
X10722658Y-11921984D01*
X10722658Y-11921984D02*
X10741705Y-11931508D01*
X10741705Y-11931508D02*
X10751229Y-11941031D01*
X10751229Y-11941031D02*
X10760753Y-11960079D01*
X10760753Y-11960079D02*
X10760753Y-11969603D01*
X10760753Y-11969603D02*
X10751229Y-11988650D01*
X10751229Y-11988650D02*
X10741705Y-11998174D01*
X10741705Y-11998174D02*
X10722658Y-12007698D01*
X10722658Y-12007698D02*
X10684563Y-12007698D01*
X10684563Y-12007698D02*
X10665515Y-12017222D01*
X10665515Y-12017222D02*
X10655991Y-12026746D01*
X10655991Y-12026746D02*
X10646467Y-12045793D01*
X10646467Y-12045793D02*
X10646467Y-12083888D01*
X10646467Y-12083888D02*
X10655991Y-12102936D01*
X10655991Y-12102936D02*
X10665515Y-12112460D01*
X10665515Y-12112460D02*
X10684563Y-12121984D01*
X10684563Y-12121984D02*
X10722658Y-12121984D01*
X10722658Y-12121984D02*
X10741705Y-12112460D01*
X10741705Y-12112460D02*
X10751229Y-12102936D01*
X10751229Y-12102936D02*
X10760753Y-12083888D01*
X10760753Y-12083888D02*
X10760753Y-12045793D01*
X10760753Y-12045793D02*
X10751229Y-12026746D01*
X10751229Y-12026746D02*
X10741705Y-12017222D01*
X10741705Y-12017222D02*
X10722658Y-12007698D01*
X10884563Y-11921984D02*
X10903610Y-11921984D01*
X10903610Y-11921984D02*
X10922658Y-11931508D01*
X10922658Y-11931508D02*
X10932182Y-11941031D01*
X10932182Y-11941031D02*
X10941705Y-11960079D01*
X10941705Y-11960079D02*
X10951229Y-11998174D01*
X10951229Y-11998174D02*
X10951229Y-12045793D01*
X10951229Y-12045793D02*
X10941705Y-12083888D01*
X10941705Y-12083888D02*
X10932182Y-12102936D01*
X10932182Y-12102936D02*
X10922658Y-12112460D01*
X10922658Y-12112460D02*
X10903610Y-12121984D01*
X10903610Y-12121984D02*
X10884563Y-12121984D01*
X10884563Y-12121984D02*
X10865515Y-12112460D01*
X10865515Y-12112460D02*
X10855991Y-12102936D01*
X10855991Y-12102936D02*
X10846467Y-12083888D01*
X10846467Y-12083888D02*
X10836944Y-12045793D01*
X10836944Y-12045793D02*
X10836944Y-11998174D01*
X10836944Y-11998174D02*
X10846467Y-11960079D01*
X10846467Y-11960079D02*
X10855991Y-11941031D01*
X10855991Y-11941031D02*
X10865515Y-11931508D01*
X10865515Y-11931508D02*
X10884563Y-11921984D01*
X11075039Y-11921984D02*
X11094086Y-11921984D01*
X11094086Y-11921984D02*
X11113134Y-11931508D01*
X11113134Y-11931508D02*
X11122658Y-11941031D01*
X11122658Y-11941031D02*
X11132182Y-11960079D01*
X11132182Y-11960079D02*
X11141705Y-11998174D01*
X11141705Y-11998174D02*
X11141705Y-12045793D01*
X11141705Y-12045793D02*
X11132182Y-12083888D01*
X11132182Y-12083888D02*
X11122658Y-12102936D01*
X11122658Y-12102936D02*
X11113134Y-12112460D01*
X11113134Y-12112460D02*
X11094086Y-12121984D01*
X11094086Y-12121984D02*
X11075039Y-12121984D01*
X11075039Y-12121984D02*
X11055991Y-12112460D01*
X11055991Y-12112460D02*
X11046467Y-12102936D01*
X11046467Y-12102936D02*
X11036944Y-12083888D01*
X11036944Y-12083888D02*
X11027420Y-12045793D01*
X11027420Y-12045793D02*
X11027420Y-11998174D01*
X11027420Y-11998174D02*
X11036944Y-11960079D01*
X11036944Y-11960079D02*
X11046467Y-11941031D01*
X11046467Y-11941031D02*
X11055991Y-11931508D01*
X11055991Y-11931508D02*
X11075039Y-11921984D01*
X11227420Y-12121984D02*
X11227420Y-11988650D01*
X11227420Y-12007698D02*
X11236943Y-11998174D01*
X11236943Y-11998174D02*
X11255991Y-11988650D01*
X11255991Y-11988650D02*
X11284563Y-11988650D01*
X11284563Y-11988650D02*
X11303610Y-11998174D01*
X11303610Y-11998174D02*
X11313134Y-12017222D01*
X11313134Y-12017222D02*
X11313134Y-12121984D01*
X11313134Y-12017222D02*
X11322658Y-11998174D01*
X11322658Y-11998174D02*
X11341705Y-11988650D01*
X11341705Y-11988650D02*
X11370277Y-11988650D01*
X11370277Y-11988650D02*
X11389324Y-11998174D01*
X11389324Y-11998174D02*
X11398848Y-12017222D01*
X11398848Y-12017222D02*
X11398848Y-12121984D01*
X11494086Y-12121984D02*
X11494086Y-11988650D01*
X11494086Y-12007698D02*
X11503610Y-11998174D01*
X11503610Y-11998174D02*
X11522658Y-11988650D01*
X11522658Y-11988650D02*
X11551229Y-11988650D01*
X11551229Y-11988650D02*
X11570277Y-11998174D01*
X11570277Y-11998174D02*
X11579801Y-12017222D01*
X11579801Y-12017222D02*
X11579801Y-12121984D01*
X11579801Y-12017222D02*
X11589324Y-11998174D01*
X11589324Y-11998174D02*
X11608372Y-11988650D01*
X11608372Y-11988650D02*
X11636943Y-11988650D01*
X11636943Y-11988650D02*
X11655991Y-11998174D01*
X11655991Y-11998174D02*
X11665515Y-12017222D01*
X11665515Y-12017222D02*
X11665515Y-12121984D01*
X12055991Y-11912460D02*
X11884563Y-12169603D01*
X12313134Y-11921984D02*
X12332182Y-11921984D01*
X12332182Y-11921984D02*
X12351229Y-11931508D01*
X12351229Y-11931508D02*
X12360753Y-11941031D01*
X12360753Y-11941031D02*
X12370277Y-11960079D01*
X12370277Y-11960079D02*
X12379801Y-11998174D01*
X12379801Y-11998174D02*
X12379801Y-12045793D01*
X12379801Y-12045793D02*
X12370277Y-12083888D01*
X12370277Y-12083888D02*
X12360753Y-12102936D01*
X12360753Y-12102936D02*
X12351229Y-12112460D01*
X12351229Y-12112460D02*
X12332182Y-12121984D01*
X12332182Y-12121984D02*
X12313134Y-12121984D01*
X12313134Y-12121984D02*
X12294086Y-12112460D01*
X12294086Y-12112460D02*
X12284563Y-12102936D01*
X12284563Y-12102936D02*
X12275039Y-12083888D01*
X12275039Y-12083888D02*
X12265515Y-12045793D01*
X12265515Y-12045793D02*
X12265515Y-11998174D01*
X12265515Y-11998174D02*
X12275039Y-11960079D01*
X12275039Y-11960079D02*
X12284563Y-11941031D01*
X12284563Y-11941031D02*
X12294086Y-11931508D01*
X12294086Y-11931508D02*
X12313134Y-11921984D01*
X12465515Y-12102936D02*
X12475039Y-12112460D01*
X12475039Y-12112460D02*
X12465515Y-12121984D01*
X12465515Y-12121984D02*
X12455991Y-12112460D01*
X12455991Y-12112460D02*
X12465515Y-12102936D01*
X12465515Y-12102936D02*
X12465515Y-12121984D01*
X12598848Y-11921984D02*
X12617896Y-11921984D01*
X12617896Y-11921984D02*
X12636944Y-11931508D01*
X12636944Y-11931508D02*
X12646467Y-11941031D01*
X12646467Y-11941031D02*
X12655991Y-11960079D01*
X12655991Y-11960079D02*
X12665515Y-11998174D01*
X12665515Y-11998174D02*
X12665515Y-12045793D01*
X12665515Y-12045793D02*
X12655991Y-12083888D01*
X12655991Y-12083888D02*
X12646467Y-12102936D01*
X12646467Y-12102936D02*
X12636944Y-12112460D01*
X12636944Y-12112460D02*
X12617896Y-12121984D01*
X12617896Y-12121984D02*
X12598848Y-12121984D01*
X12598848Y-12121984D02*
X12579801Y-12112460D01*
X12579801Y-12112460D02*
X12570277Y-12102936D01*
X12570277Y-12102936D02*
X12560753Y-12083888D01*
X12560753Y-12083888D02*
X12551229Y-12045793D01*
X12551229Y-12045793D02*
X12551229Y-11998174D01*
X12551229Y-11998174D02*
X12560753Y-11960079D01*
X12560753Y-11960079D02*
X12570277Y-11941031D01*
X12570277Y-11941031D02*
X12579801Y-11931508D01*
X12579801Y-11931508D02*
X12598848Y-11921984D01*
X12732182Y-11921984D02*
X12865515Y-11921984D01*
X12865515Y-11921984D02*
X12779801Y-12121984D01*
X12979801Y-11921984D02*
X12998848Y-11921984D01*
X12998848Y-11921984D02*
X13017896Y-11931508D01*
X13017896Y-11931508D02*
X13027420Y-11941031D01*
X13027420Y-11941031D02*
X13036944Y-11960079D01*
X13036944Y-11960079D02*
X13046467Y-11998174D01*
X13046467Y-11998174D02*
X13046467Y-12045793D01*
X13046467Y-12045793D02*
X13036944Y-12083888D01*
X13036944Y-12083888D02*
X13027420Y-12102936D01*
X13027420Y-12102936D02*
X13017896Y-12112460D01*
X13017896Y-12112460D02*
X12998848Y-12121984D01*
X12998848Y-12121984D02*
X12979801Y-12121984D01*
X12979801Y-12121984D02*
X12960753Y-12112460D01*
X12960753Y-12112460D02*
X12951229Y-12102936D01*
X12951229Y-12102936D02*
X12941706Y-12083888D01*
X12941706Y-12083888D02*
X12932182Y-12045793D01*
X12932182Y-12045793D02*
X12932182Y-11998174D01*
X12932182Y-11998174D02*
X12941706Y-11960079D01*
X12941706Y-11960079D02*
X12951229Y-11941031D01*
X12951229Y-11941031D02*
X12960753Y-11931508D01*
X12960753Y-11931508D02*
X12979801Y-11921984D01*
X13141706Y-12121984D02*
X13179801Y-12121984D01*
X13179801Y-12121984D02*
X13198848Y-12112460D01*
X13198848Y-12112460D02*
X13208372Y-12102936D01*
X13208372Y-12102936D02*
X13227420Y-12074365D01*
X13227420Y-12074365D02*
X13236944Y-12036269D01*
X13236944Y-12036269D02*
X13236944Y-11960079D01*
X13236944Y-11960079D02*
X13227420Y-11941031D01*
X13227420Y-11941031D02*
X13217896Y-11931508D01*
X13217896Y-11931508D02*
X13198848Y-11921984D01*
X13198848Y-11921984D02*
X13160753Y-11921984D01*
X13160753Y-11921984D02*
X13141706Y-11931508D01*
X13141706Y-11931508D02*
X13132182Y-11941031D01*
X13132182Y-11941031D02*
X13122658Y-11960079D01*
X13122658Y-11960079D02*
X13122658Y-12007698D01*
X13122658Y-12007698D02*
X13132182Y-12026746D01*
X13132182Y-12026746D02*
X13141706Y-12036269D01*
X13141706Y-12036269D02*
X13160753Y-12045793D01*
X13160753Y-12045793D02*
X13198848Y-12045793D01*
X13198848Y-12045793D02*
X13217896Y-12036269D01*
X13217896Y-12036269D02*
X13227420Y-12026746D01*
X13227420Y-12026746D02*
X13236944Y-12007698D01*
X13313134Y-11921984D02*
X13313134Y-11960079D01*
X13389325Y-11921984D02*
X13389325Y-11960079D01*
X13684563Y-12198174D02*
X13675039Y-12188650D01*
X13675039Y-12188650D02*
X13655991Y-12160079D01*
X13655991Y-12160079D02*
X13646468Y-12141031D01*
X13646468Y-12141031D02*
X13636944Y-12112460D01*
X13636944Y-12112460D02*
X13627420Y-12064841D01*
X13627420Y-12064841D02*
X13627420Y-12026746D01*
X13627420Y-12026746D02*
X13636944Y-11979127D01*
X13636944Y-11979127D02*
X13646468Y-11950555D01*
X13646468Y-11950555D02*
X13655991Y-11931508D01*
X13655991Y-11931508D02*
X13675039Y-11902936D01*
X13675039Y-11902936D02*
X13684563Y-11893412D01*
X13751229Y-11941031D02*
X13760753Y-11931508D01*
X13760753Y-11931508D02*
X13779801Y-11921984D01*
X13779801Y-11921984D02*
X13827420Y-11921984D01*
X13827420Y-11921984D02*
X13846468Y-11931508D01*
X13846468Y-11931508D02*
X13855991Y-11941031D01*
X13855991Y-11941031D02*
X13865515Y-11960079D01*
X13865515Y-11960079D02*
X13865515Y-11979127D01*
X13865515Y-11979127D02*
X13855991Y-12007698D01*
X13855991Y-12007698D02*
X13741706Y-12121984D01*
X13741706Y-12121984D02*
X13865515Y-12121984D01*
X14103610Y-12121984D02*
X14103610Y-11921984D01*
X14189325Y-12121984D02*
X14189325Y-12017222D01*
X14189325Y-12017222D02*
X14179801Y-11998174D01*
X14179801Y-11998174D02*
X14160753Y-11988650D01*
X14160753Y-11988650D02*
X14132182Y-11988650D01*
X14132182Y-11988650D02*
X14113134Y-11998174D01*
X14113134Y-11998174D02*
X14103610Y-12007698D01*
X14313134Y-12121984D02*
X14294087Y-12112460D01*
X14294087Y-12112460D02*
X14284563Y-12102936D01*
X14284563Y-12102936D02*
X14275039Y-12083888D01*
X14275039Y-12083888D02*
X14275039Y-12026746D01*
X14275039Y-12026746D02*
X14284563Y-12007698D01*
X14284563Y-12007698D02*
X14294087Y-11998174D01*
X14294087Y-11998174D02*
X14313134Y-11988650D01*
X14313134Y-11988650D02*
X14341706Y-11988650D01*
X14341706Y-11988650D02*
X14360753Y-11998174D01*
X14360753Y-11998174D02*
X14370277Y-12007698D01*
X14370277Y-12007698D02*
X14379801Y-12026746D01*
X14379801Y-12026746D02*
X14379801Y-12083888D01*
X14379801Y-12083888D02*
X14370277Y-12102936D01*
X14370277Y-12102936D02*
X14360753Y-12112460D01*
X14360753Y-12112460D02*
X14341706Y-12121984D01*
X14341706Y-12121984D02*
X14313134Y-12121984D01*
X14494087Y-12121984D02*
X14475039Y-12112460D01*
X14475039Y-12112460D02*
X14465515Y-12093412D01*
X14465515Y-12093412D02*
X14465515Y-11921984D01*
X14646468Y-12112460D02*
X14627420Y-12121984D01*
X14627420Y-12121984D02*
X14589325Y-12121984D01*
X14589325Y-12121984D02*
X14570277Y-12112460D01*
X14570277Y-12112460D02*
X14560753Y-12093412D01*
X14560753Y-12093412D02*
X14560753Y-12017222D01*
X14560753Y-12017222D02*
X14570277Y-11998174D01*
X14570277Y-11998174D02*
X14589325Y-11988650D01*
X14589325Y-11988650D02*
X14627420Y-11988650D01*
X14627420Y-11988650D02*
X14646468Y-11998174D01*
X14646468Y-11998174D02*
X14655991Y-12017222D01*
X14655991Y-12017222D02*
X14655991Y-12036269D01*
X14655991Y-12036269D02*
X14560753Y-12055317D01*
X14732182Y-12112460D02*
X14751230Y-12121984D01*
X14751230Y-12121984D02*
X14789325Y-12121984D01*
X14789325Y-12121984D02*
X14808372Y-12112460D01*
X14808372Y-12112460D02*
X14817896Y-12093412D01*
X14817896Y-12093412D02*
X14817896Y-12083888D01*
X14817896Y-12083888D02*
X14808372Y-12064841D01*
X14808372Y-12064841D02*
X14789325Y-12055317D01*
X14789325Y-12055317D02*
X14760753Y-12055317D01*
X14760753Y-12055317D02*
X14741706Y-12045793D01*
X14741706Y-12045793D02*
X14732182Y-12026746D01*
X14732182Y-12026746D02*
X14732182Y-12017222D01*
X14732182Y-12017222D02*
X14741706Y-11998174D01*
X14741706Y-11998174D02*
X14760753Y-11988650D01*
X14760753Y-11988650D02*
X14789325Y-11988650D01*
X14789325Y-11988650D02*
X14808372Y-11998174D01*
X14884563Y-12198174D02*
X14894087Y-12188650D01*
X14894087Y-12188650D02*
X14913134Y-12160079D01*
X14913134Y-12160079D02*
X14922658Y-12141031D01*
X14922658Y-12141031D02*
X14932182Y-12112460D01*
X14932182Y-12112460D02*
X14941706Y-12064841D01*
X14941706Y-12064841D02*
X14941706Y-12026746D01*
X14941706Y-12026746D02*
X14932182Y-11979127D01*
X14932182Y-11979127D02*
X14922658Y-11950555D01*
X14922658Y-11950555D02*
X14913134Y-11931508D01*
X14913134Y-11931508D02*
X14894087Y-11902936D01*
X14894087Y-11902936D02*
X14884563Y-11893412D01*
X15246468Y-12198174D02*
X15236944Y-12188650D01*
X15236944Y-12188650D02*
X15217896Y-12160079D01*
X15217896Y-12160079D02*
X15208372Y-12141031D01*
X15208372Y-12141031D02*
X15198849Y-12112460D01*
X15198849Y-12112460D02*
X15189325Y-12064841D01*
X15189325Y-12064841D02*
X15189325Y-12026746D01*
X15189325Y-12026746D02*
X15198849Y-11979127D01*
X15198849Y-11979127D02*
X15208372Y-11950555D01*
X15208372Y-11950555D02*
X15217896Y-11931508D01*
X15217896Y-11931508D02*
X15236944Y-11902936D01*
X15236944Y-11902936D02*
X15246468Y-11893412D01*
X15322658Y-11988650D02*
X15322658Y-12121984D01*
X15322658Y-12007698D02*
X15332182Y-11998174D01*
X15332182Y-11998174D02*
X15351230Y-11988650D01*
X15351230Y-11988650D02*
X15379801Y-11988650D01*
X15379801Y-11988650D02*
X15398849Y-11998174D01*
X15398849Y-11998174D02*
X15408372Y-12017222D01*
X15408372Y-12017222D02*
X15408372Y-12121984D01*
X15532182Y-12121984D02*
X15513134Y-12112460D01*
X15513134Y-12112460D02*
X15503611Y-12102936D01*
X15503611Y-12102936D02*
X15494087Y-12083888D01*
X15494087Y-12083888D02*
X15494087Y-12026746D01*
X15494087Y-12026746D02*
X15503611Y-12007698D01*
X15503611Y-12007698D02*
X15513134Y-11998174D01*
X15513134Y-11998174D02*
X15532182Y-11988650D01*
X15532182Y-11988650D02*
X15560753Y-11988650D01*
X15560753Y-11988650D02*
X15579801Y-11998174D01*
X15579801Y-11998174D02*
X15589325Y-12007698D01*
X15589325Y-12007698D02*
X15598849Y-12026746D01*
X15598849Y-12026746D02*
X15598849Y-12083888D01*
X15598849Y-12083888D02*
X15589325Y-12102936D01*
X15589325Y-12102936D02*
X15579801Y-12112460D01*
X15579801Y-12112460D02*
X15560753Y-12121984D01*
X15560753Y-12121984D02*
X15532182Y-12121984D01*
X15655992Y-11988650D02*
X15732182Y-11988650D01*
X15684563Y-11921984D02*
X15684563Y-12093412D01*
X15684563Y-12093412D02*
X15694087Y-12112460D01*
X15694087Y-12112460D02*
X15713134Y-12121984D01*
X15713134Y-12121984D02*
X15732182Y-12121984D01*
X15951230Y-11988650D02*
X15951230Y-12188650D01*
X15951230Y-11998174D02*
X15970277Y-11988650D01*
X15970277Y-11988650D02*
X16008373Y-11988650D01*
X16008373Y-11988650D02*
X16027420Y-11998174D01*
X16027420Y-11998174D02*
X16036944Y-12007698D01*
X16036944Y-12007698D02*
X16046468Y-12026746D01*
X16046468Y-12026746D02*
X16046468Y-12083888D01*
X16046468Y-12083888D02*
X16036944Y-12102936D01*
X16036944Y-12102936D02*
X16027420Y-12112460D01*
X16027420Y-12112460D02*
X16008373Y-12121984D01*
X16008373Y-12121984D02*
X15970277Y-12121984D01*
X15970277Y-12121984D02*
X15951230Y-12112460D01*
X16160753Y-12121984D02*
X16141706Y-12112460D01*
X16141706Y-12112460D02*
X16132182Y-12093412D01*
X16132182Y-12093412D02*
X16132182Y-11921984D01*
X16322658Y-12121984D02*
X16322658Y-12017222D01*
X16322658Y-12017222D02*
X16313134Y-11998174D01*
X16313134Y-11998174D02*
X16294087Y-11988650D01*
X16294087Y-11988650D02*
X16255992Y-11988650D01*
X16255992Y-11988650D02*
X16236944Y-11998174D01*
X16322658Y-12112460D02*
X16303611Y-12121984D01*
X16303611Y-12121984D02*
X16255992Y-12121984D01*
X16255992Y-12121984D02*
X16236944Y-12112460D01*
X16236944Y-12112460D02*
X16227420Y-12093412D01*
X16227420Y-12093412D02*
X16227420Y-12074365D01*
X16227420Y-12074365D02*
X16236944Y-12055317D01*
X16236944Y-12055317D02*
X16255992Y-12045793D01*
X16255992Y-12045793D02*
X16303611Y-12045793D01*
X16303611Y-12045793D02*
X16322658Y-12036269D01*
X16389325Y-11988650D02*
X16465515Y-11988650D01*
X16417896Y-11921984D02*
X16417896Y-12093412D01*
X16417896Y-12093412D02*
X16427420Y-12112460D01*
X16427420Y-12112460D02*
X16446468Y-12121984D01*
X16446468Y-12121984D02*
X16465515Y-12121984D01*
X16608373Y-12112460D02*
X16589325Y-12121984D01*
X16589325Y-12121984D02*
X16551230Y-12121984D01*
X16551230Y-12121984D02*
X16532182Y-12112460D01*
X16532182Y-12112460D02*
X16522658Y-12093412D01*
X16522658Y-12093412D02*
X16522658Y-12017222D01*
X16522658Y-12017222D02*
X16532182Y-11998174D01*
X16532182Y-11998174D02*
X16551230Y-11988650D01*
X16551230Y-11988650D02*
X16589325Y-11988650D01*
X16589325Y-11988650D02*
X16608373Y-11998174D01*
X16608373Y-11998174D02*
X16617896Y-12017222D01*
X16617896Y-12017222D02*
X16617896Y-12036269D01*
X16617896Y-12036269D02*
X16522658Y-12055317D01*
X16789325Y-12121984D02*
X16789325Y-11921984D01*
X16789325Y-12112460D02*
X16770277Y-12121984D01*
X16770277Y-12121984D02*
X16732182Y-12121984D01*
X16732182Y-12121984D02*
X16713134Y-12112460D01*
X16713134Y-12112460D02*
X16703611Y-12102936D01*
X16703611Y-12102936D02*
X16694087Y-12083888D01*
X16694087Y-12083888D02*
X16694087Y-12026746D01*
X16694087Y-12026746D02*
X16703611Y-12007698D01*
X16703611Y-12007698D02*
X16713134Y-11998174D01*
X16713134Y-11998174D02*
X16732182Y-11988650D01*
X16732182Y-11988650D02*
X16770277Y-11988650D01*
X16770277Y-11988650D02*
X16789325Y-11998174D01*
X16865516Y-12198174D02*
X16875039Y-12188650D01*
X16875039Y-12188650D02*
X16894087Y-12160079D01*
X16894087Y-12160079D02*
X16903611Y-12141031D01*
X16903611Y-12141031D02*
X16913135Y-12112460D01*
X16913135Y-12112460D02*
X16922658Y-12064841D01*
X16922658Y-12064841D02*
X16922658Y-12026746D01*
X16922658Y-12026746D02*
X16913135Y-11979127D01*
X16913135Y-11979127D02*
X16903611Y-11950555D01*
X16903611Y-11950555D02*
X16894087Y-11931508D01*
X16894087Y-11931508D02*
X16875039Y-11902936D01*
X16875039Y-11902936D02*
X16865516Y-11893412D01*
M02*
